<svg width="116" height="85" viewBox="0 0 116 85" fill="none" xmlns="http://www.w3.org/2000/svg">
<g id="SEO">
<path id="Vector" d="M107.577 6.26863V58.587C107.577 59.875 107.066 61.1102 106.155 62.0209C105.244 62.9316 104.009 63.4432 102.721 63.4432H14.2337C12.9457 63.4432 11.7105 62.9316 10.7998 62.0209C9.88908 61.1102 9.37744 59.875 9.37744 58.587V6.26863C9.37875 4.98154 9.89097 3.74761 10.8015 2.83797C11.7121 1.92832 12.9466 1.41736 14.2337 1.41736H102.721C103.359 1.41671 103.99 1.54171 104.579 1.78522C105.168 2.02873 105.704 2.38597 106.155 2.83651C106.606 3.28706 106.963 3.82208 107.207 4.41099C107.452 4.99989 107.577 5.63114 107.577 6.26863Z" fill="white"/>
<path id="Vector_2" d="M102.721 63.9388H14.2336C12.8146 63.9375 11.4541 63.3732 10.4508 62.3698C9.44742 61.3665 8.88315 60.006 8.88184 58.587V6.26863C8.88315 4.85012 9.44758 3.49015 10.4511 2.48757C11.4546 1.48499 12.8151 0.921829 14.2336 0.921829H102.721C104.139 0.921829 105.5 1.48499 106.503 2.48757C107.507 3.49015 108.071 4.85012 108.073 6.26863V58.587C108.071 60.006 107.507 61.3665 106.504 62.3698C105.5 63.3732 104.14 63.9375 102.721 63.9388ZM14.2336 1.9129C13.0779 1.91289 11.9695 2.37165 11.1519 3.18836C10.3342 4.00508 9.87422 5.11296 9.8729 6.26863V58.587C9.87421 59.7431 10.3341 60.8515 11.1516 61.669C11.9691 62.4866 13.0775 62.9464 14.2336 62.9477H102.721C103.877 62.9464 104.985 62.4866 105.803 61.669C106.62 60.8515 107.08 59.7431 107.082 58.587V6.26863C107.08 5.11296 106.62 4.00508 105.803 3.18836C104.985 2.37165 103.877 1.91289 102.721 1.9129H14.2336Z" fill="#093F68"/>
<path id="Vector_3" d="M100.219 33.9095V36.0899C100.217 37.2074 99.7724 38.2787 98.9817 39.0685C98.191 39.8583 97.1191 40.3019 96.0016 40.3019H20.9531C19.8355 40.3019 18.7637 39.8583 17.973 39.0685C17.1823 38.2787 16.7374 37.2074 16.7361 36.0899V33.9095C16.7361 33.356 16.8452 32.8078 17.0572 32.2965C17.2692 31.7851 17.5799 31.3206 17.9715 30.9294C18.3632 30.5382 18.8281 30.2281 19.3397 30.0167C19.8513 29.8053 20.3995 29.6968 20.9531 29.6975H96.0016C96.5551 29.6968 97.1034 29.8053 97.615 30.0167C98.1266 30.2281 98.5915 30.5382 98.9831 30.9294C99.3748 31.3206 99.6855 31.7851 99.8975 32.2965C100.109 32.8078 100.219 33.356 100.219 33.9095Z" fill="white"/>
<path id="Vector_4" d="M96.0015 40.7974H20.953C19.7044 40.7961 18.5073 40.2999 17.6239 39.4175C16.7406 38.535 16.2431 37.3384 16.2405 36.0898V33.9095C16.2431 32.6609 16.7406 31.4643 17.6239 30.5819C18.5073 29.6995 19.7044 29.2032 20.953 29.2019H96.0015C97.2501 29.2032 98.4472 29.6995 99.3306 30.5819C100.214 31.4643 100.711 32.6609 100.714 33.9095V36.0898C100.711 37.3384 100.214 38.535 99.3306 39.4175C98.4472 40.2999 97.2501 40.7961 96.0015 40.7974ZM20.953 30.198C19.9673 30.1993 19.0222 30.5911 18.3247 31.2876C17.6272 31.9842 17.2342 32.9287 17.2315 33.9145V36.0948C17.2329 37.0809 17.6255 38.0262 18.3233 38.7231C19.021 39.4199 19.9669 39.8113 20.953 39.8113H96.0015C96.9876 39.8113 97.9334 39.4199 98.6312 38.7231C99.329 38.0262 99.7216 37.0809 99.723 36.0948V33.9145C99.7203 32.9287 99.3272 31.9842 98.6298 31.2876C97.9323 30.5911 96.9872 30.1993 96.0015 30.198H20.953Z" fill="#093F68"/>
<path id="Vector_5" d="M107.577 6.26862V10.8721H9.37744V6.26367C9.37875 4.97658 9.89097 3.74265 10.8015 2.833C11.7121 1.92336 12.9466 1.4124 14.2337 1.4124H102.721C103.359 1.41175 103.991 1.53691 104.58 1.78073C105.17 2.02455 105.705 2.38223 106.156 2.8333C106.607 3.28437 106.965 3.81998 107.209 4.40946C107.453 4.99894 107.578 5.63071 107.577 6.26862Z" fill="#ED4ABF"/>
<path id="Vector_6" d="M107.577 11.3677H9.37737C9.24595 11.3677 9.1199 11.3155 9.02697 11.2225C8.93404 11.1296 8.88184 11.0036 8.88184 10.8721V6.26367C8.88315 4.84515 9.44758 3.48519 10.4511 2.48261C11.4546 1.48003 12.8151 0.91687 14.2336 0.91687H102.721C104.139 0.91687 105.5 1.48003 106.503 2.48261C107.507 3.48519 108.071 4.84515 108.073 6.26367V10.8721C108.073 11.0036 108.021 11.1296 107.928 11.2225C107.835 11.3155 107.709 11.3677 107.577 11.3677ZM9.8729 10.3766H107.082V6.26367C107.08 5.108 106.62 4.00012 105.803 3.1834C104.985 2.36668 103.877 1.90794 102.721 1.90794H14.2336C13.0779 1.90794 11.9695 2.36668 11.1519 3.1834C10.3342 4.00012 9.87422 5.108 9.8729 6.26367V10.3766Z" fill="#093F68"/>
<path id="Vector_7" d="M15.3783 6.99208C16.0379 6.99208 16.5726 6.4574 16.5726 5.79784C16.5726 5.13829 16.0379 4.60361 15.3783 4.60361C14.7188 4.60361 14.1841 5.13829 14.1841 5.79784C14.1841 6.4574 14.7188 6.99208 15.3783 6.99208Z" fill="#ED4ABF"/>
<path id="Vector_8" d="M19.7094 6.99208C20.3689 6.99208 20.9036 6.4574 20.9036 5.79784C20.9036 5.13829 20.3689 4.60361 19.7094 4.60361C19.0498 4.60361 18.5151 5.13829 18.5151 5.79784C18.5151 6.4574 19.0498 6.99208 19.7094 6.99208Z" fill="#093F68"/>
<path id="Vector_9" d="M24.0453 6.99208C24.7049 6.99208 25.2395 6.4574 25.2395 5.79784C25.2395 5.13829 24.7049 4.60361 24.0453 4.60361C23.3857 4.60361 22.8511 5.13829 22.8511 5.79784C22.8511 6.4574 23.3857 6.99208 24.0453 6.99208Z" fill="#093F68"/>
<path id="Vector_10" d="M100.218 33.9095V36.0899C100.217 37.2074 99.7723 38.2788 98.9816 39.0685C98.1909 39.8583 97.119 40.3019 96.0015 40.3019H87.8252V29.7024H96.0015C96.5546 29.7018 97.1025 29.8101 97.6137 30.0212C98.125 30.2322 98.5897 30.5419 98.9813 30.9326C99.3729 31.3233 99.6837 31.7872 99.896 32.298C100.108 32.8088 100.218 33.3564 100.218 33.9095Z" fill="#DADADA"/>
<path id="Vector_11" d="M96.0017 40.7974H87.8254C87.6939 40.7974 87.5679 40.7452 87.475 40.6523C87.382 40.5594 87.3298 40.4333 87.3298 40.3019V29.7024C87.3298 29.571 87.382 29.445 87.475 29.352C87.5679 29.2591 87.6939 29.2069 87.8254 29.2069H96.0017C97.2502 29.2082 98.4474 29.7045 99.3307 30.5869C100.214 31.4693 100.712 32.6659 100.714 33.9145V36.0948C100.71 37.3425 100.212 38.5379 99.329 39.4192C98.4458 40.3006 97.2494 40.7961 96.0017 40.7974ZM88.3209 39.8064H96.0017C96.9878 39.8064 97.9336 39.415 98.6314 38.7181C99.3291 38.0213 99.7218 37.076 99.7231 36.0899V33.9095C99.7205 32.9238 99.3274 31.9793 98.6299 31.2827C97.9325 30.5861 96.9874 30.1943 96.0017 30.193H88.3209V39.8064Z" fill="#093F68"/>
<path id="Vector_12" d="M92.6865 37.2841C92.1444 37.2845 91.6106 37.1511 91.1324 36.8958C90.6542 36.6405 90.2463 36.2712 89.945 35.8206C89.6437 35.37 89.4581 34.852 89.4049 34.3126C89.3516 33.7731 89.4322 33.2289 89.6396 32.728C89.847 32.2272 90.1748 31.7853 90.5938 31.4414C91.0129 31.0975 91.5103 30.8623 92.0419 30.7567C92.5736 30.651 93.1232 30.6782 93.6418 30.8357C94.1605 30.9932 94.6323 31.2763 95.0155 31.6598C95.4759 32.1206 95.7893 32.7076 95.9163 33.3465C96.0433 33.9855 95.978 34.6477 95.7288 35.2495C95.4796 35.8514 95.0575 36.3659 94.516 36.728C93.9745 37.0901 93.3379 37.2836 92.6865 37.2841ZM92.6865 31.6846C92.1534 31.685 91.637 31.8703 91.2252 32.2088C90.8134 32.5473 90.5317 33.0181 90.4281 33.541C90.3245 34.0639 90.4054 34.6066 90.657 35.0765C90.9087 35.5465 91.3155 35.9146 91.8081 36.1183C92.3008 36.3219 92.8488 36.3484 93.3588 36.1933C93.8688 36.0382 94.3093 35.7111 94.6051 35.2677C94.901 34.8243 95.034 34.292 94.9814 33.7615C94.9288 33.231 94.6939 32.7352 94.3168 32.3585C94.1029 32.1441 93.8488 31.9742 93.569 31.8586C93.2892 31.7429 92.9892 31.6838 92.6865 31.6846Z" fill="#093F68"/>
<path id="Vector_13" d="M96.8689 38.6666C96.7389 38.666 96.6143 38.6144 96.522 38.5229L94.3169 36.3227C94.2236 36.2294 94.1711 36.1028 94.1711 35.9709C94.1711 35.8389 94.2236 35.7123 94.3169 35.619C94.4102 35.5257 94.5367 35.4733 94.6687 35.4733C94.8007 35.4733 94.9272 35.5257 95.0205 35.619L97.2207 37.8192C97.2671 37.8653 97.304 37.9201 97.3292 37.9805C97.3543 38.0408 97.3673 38.1056 97.3673 38.171C97.3673 38.2364 97.3543 38.3012 97.3292 38.3616C97.304 38.422 97.2671 38.4768 97.2207 38.5229C97.1744 38.5688 97.1195 38.6051 97.0591 38.6298C96.9987 38.6544 96.9341 38.6669 96.8689 38.6666Z" fill="#093F68"/>
<path id="Vector_14" d="M42.3596 52.6464L47.1232 56.0117L40.9758 64.7132L36.2123 61.3479L42.3596 52.6464Z" fill="#093F68"/>
<path id="Vector_15" d="M40.9874 65.2123C40.8854 65.2131 40.7861 65.18 40.705 65.1182L35.9379 61.7535C35.8311 61.6787 35.7581 61.5647 35.7348 61.4364C35.7148 61.3063 35.7449 61.1735 35.819 61.0647L41.9686 52.3632C42.0434 52.2563 42.1574 52.1833 42.2857 52.16C42.4158 52.1401 42.5486 52.1702 42.6574 52.2442L47.4194 55.6089C47.4729 55.6465 47.5183 55.6944 47.5532 55.7497C47.5881 55.8049 47.6116 55.8666 47.6226 55.931C47.6351 55.9946 47.6341 56.0601 47.6196 56.1233C47.6051 56.1865 47.5774 56.2459 47.5384 56.2977L41.3938 64.9993C41.3482 65.0649 41.2875 65.1186 41.2167 65.1557C41.146 65.1928 41.0673 65.2122 40.9874 65.2123ZM36.9141 61.2481L40.8784 64.0379L46.4531 56.149L42.4889 53.3542L36.9141 61.2481Z" fill="#093F68"/>
<path id="Vector_16" d="M45.8955 44.9424L53.2088 50.109L47.0615 58.8106L39.7481 53.6439L45.8955 44.9424Z" fill="#ED4ABF"/>
<path id="Vector_17" d="M47.0975 59.3006C46.9947 59.3014 46.8943 59.2702 46.8101 59.2114L39.501 54.048C39.4474 54.0104 39.4017 53.9626 39.3667 53.9073C39.3317 53.852 39.308 53.7904 39.2969 53.7259C39.2859 53.6614 39.2877 53.5953 39.3023 53.5315C39.3169 53.4677 39.344 53.4075 39.382 53.3542L45.5266 44.6526C45.6045 44.5467 45.7196 44.4741 45.8487 44.4495C45.9773 44.4283 46.109 44.4585 46.2154 44.5337L53.5295 49.7021C53.6363 49.7779 53.7088 49.8929 53.7311 50.022C53.7534 50.1511 53.7237 50.2837 53.6484 50.3909L47.5038 59.0925C47.4662 59.1459 47.4184 59.1914 47.3631 59.2262C47.3078 59.2611 47.2462 59.2847 47.1817 59.2957L47.0975 59.3006ZM40.4772 53.5227L46.9786 58.1163L52.5483 50.2224L46.047 45.6288L40.4772 53.5227Z" fill="#093F68"/>
<path id="Vector_18" d="M41.5586 63.2997L37.3617 60.3346C36.5011 59.7267 35.3106 59.9315 34.7027 60.792L22.8225 77.6083C22.2146 78.4688 22.4193 79.6593 23.2799 80.2673L27.4769 83.2323C28.3374 83.8402 29.5279 83.6355 30.1359 82.7749L42.016 65.9587C42.624 65.0981 42.4192 63.9076 41.5586 63.2997Z" fill="#ED4ABF"/>
<path id="Vector_19" d="M28.5843 84.0723C28.0888 84.0726 27.6055 83.9184 27.2017 83.6313L23.0046 80.6581C22.4841 80.2901 22.1312 79.7304 22.0234 79.1022C21.9156 78.474 22.0618 77.8287 22.4297 77.3083L34.3225 60.4899C34.5059 60.232 34.7385 60.0128 35.0068 59.845C35.2751 59.6772 35.5739 59.564 35.8861 59.512C36.1982 59.46 36.5176 59.4701 36.8258 59.5418C37.1341 59.6136 37.4251 59.7455 37.6823 59.9299L41.8794 62.9031C42.3988 63.272 42.7508 63.8315 42.8586 64.4593C42.9663 65.0872 42.8209 65.7321 42.4542 66.253L30.5614 83.0713C30.3364 83.3846 30.0392 83.6391 29.6951 83.8133C29.351 83.9876 28.97 84.0764 28.5843 84.0723ZM27.7716 82.8236C27.9234 82.9328 28.0955 83.0108 28.2777 83.053C28.4599 83.0953 28.6487 83.1009 28.8331 83.0695C29.0175 83.0382 29.1939 82.9705 29.3519 82.8704C29.5099 82.7704 29.6465 82.6399 29.7537 82.4866L41.6465 65.6682C41.7555 65.5161 41.8332 65.3438 41.875 65.1614C41.9169 64.979 41.922 64.7901 41.8902 64.6056C41.8584 64.4212 41.7902 64.2449 41.6897 64.0871C41.5892 63.9292 41.4583 63.7929 41.3046 63.6861L37.1074 60.7129C36.9553 60.6039 36.783 60.5262 36.6006 60.4844C36.4182 60.4426 36.2293 60.4374 36.0448 60.4692C35.8604 60.501 35.6841 60.5692 35.5263 60.6697C35.3684 60.7702 35.2321 60.9011 35.1253 61.0548L23.2325 77.8732C23.1248 78.0236 23.0483 78.194 23.0075 78.3745C22.9666 78.5549 22.9623 78.7416 22.9946 78.9237C23.0255 79.1068 23.0921 79.282 23.1908 79.4393C23.2894 79.5966 23.4181 79.733 23.5695 79.8405L27.7666 82.8137L27.7716 82.8236Z" fill="#093F68"/>
<path id="Vector_20" d="M69.9563 18.647C66.5571 16.2467 62.5224 14.9083 58.3625 14.801C54.2026 14.6937 50.1043 15.8223 46.5858 18.0441C43.0673 20.2659 40.2867 23.4812 38.5955 27.2833C36.9043 31.0855 36.3786 35.3037 37.0847 39.4046C37.7908 43.5056 39.6971 47.305 42.5626 50.3226C45.428 53.3401 49.1239 55.4402 53.1828 56.3573C57.2418 57.2744 61.4816 56.9673 65.366 55.4749C69.2505 53.9824 72.6051 51.3717 75.0058 47.9727C76.6 45.7156 77.7339 43.1667 78.3429 40.4714C78.9519 37.7761 79.024 34.9872 78.5551 32.264C78.0862 29.5408 77.0855 26.9367 75.6101 24.6003C74.1347 22.2638 72.2136 20.2409 69.9563 18.647ZM49.7138 47.3087C47.4442 45.7058 45.7009 43.4658 44.7043 40.8721C43.7078 38.2784 43.5028 35.4474 44.1152 32.7372C44.7276 30.027 46.13 27.5592 48.1449 25.646C50.1599 23.7328 52.697 22.4601 55.4353 21.9888C58.1736 21.5175 60.9901 21.8688 63.5288 22.9983C66.0674 24.1278 68.2141 25.9847 69.6973 28.3343C71.1806 30.6838 71.9338 33.4205 71.8617 36.1981C71.7896 38.9757 70.8955 41.6696 69.2923 43.939C67.1428 46.982 63.8725 49.0465 60.2009 49.6784C56.5293 50.3103 52.757 49.4579 49.7138 47.3087Z" fill="#ED4ABF"/>
<path id="Vector_21" d="M57.7713 57.378C54.3876 57.3682 51.0538 56.5615 48.04 55.0231C45.0262 53.4847 42.4172 51.258 40.4244 48.5234C38.4316 45.7887 37.1111 42.623 36.5699 39.2829C36.0286 35.9427 36.2818 32.5221 37.309 29.298C38.3362 26.074 40.1085 23.1373 42.4823 20.7259C44.856 18.3145 47.7644 16.4962 50.9719 15.4184C54.1794 14.3406 57.5957 14.0335 60.9439 14.5222C64.2922 15.0108 67.4782 16.2813 70.2439 18.2308C73.7261 20.6882 76.401 24.1233 77.9302 28.1015C79.4594 32.0796 79.7742 36.422 78.8347 40.5791C77.8951 44.7362 75.7435 48.5212 72.6521 51.455C69.5607 54.3889 65.6685 56.3398 61.468 57.0608C60.2471 57.2716 59.0103 57.3777 57.7713 57.378ZM57.8457 15.2973C52.9462 15.2956 48.2077 17.0465 44.4866 20.2337C40.7655 23.4209 38.3072 27.834 37.5561 32.6756C36.805 37.5171 37.8105 42.4677 40.391 46.6325C42.9715 50.7974 46.9567 53.9017 51.6264 55.3846C56.296 56.8675 61.3421 56.631 65.8527 54.718C70.3632 52.8049 74.0406 49.3415 76.2204 44.9536C78.4001 40.5657 78.9383 35.5428 77.7377 30.7927C76.5371 26.0426 73.6769 21.8787 69.674 19.0534C66.213 16.6114 62.0815 15.2994 57.8457 15.2973ZM57.7961 50.3711C54.5393 50.3662 51.3785 49.2679 48.8203 47.2524C46.2621 45.2368 44.4547 42.4207 43.6879 39.2555C42.9211 36.0903 43.2392 32.7592 44.5912 29.7964C45.9433 26.8335 48.251 24.4104 51.1444 22.9154C54.0378 21.4205 57.3494 20.9403 60.5483 21.5519C63.7471 22.1635 66.648 23.8314 68.7859 26.2882C70.9238 28.7451 72.1749 31.8486 72.3386 35.1012C72.5024 38.3539 71.5693 41.5674 69.6889 44.2265C68.3468 46.1316 66.565 47.6849 64.4946 48.7546C62.4243 49.8242 60.1264 50.3788 57.7961 50.3711ZM57.8357 22.2893C54.6027 22.2872 51.4756 23.4418 49.0196 25.5443C46.5637 27.6468 44.9409 30.5586 44.4446 33.7533C43.9484 36.948 44.6113 40.2149 46.3137 42.9634C48.0161 45.7119 50.6456 47.7607 53.7269 48.7395C56.8082 49.7183 60.138 49.5625 63.1144 48.3003C66.0909 47.0381 68.5176 44.7527 69.9559 41.8573C71.3942 38.9618 71.7493 35.6473 70.9569 32.5129C70.1645 29.3785 68.277 26.631 65.6354 24.7669C63.3559 23.1488 60.6312 22.2764 57.8357 22.2694V22.2893Z" fill="#093F68"/>
<path id="Vector_22" d="M57.8159 49.8854C65.5746 49.8854 71.8643 43.5957 71.8643 35.837C71.8643 28.0783 65.5746 21.7887 57.8159 21.7887C50.0572 21.7887 43.7676 28.0783 43.7676 35.837C43.7676 43.5957 50.0572 49.8854 57.8159 49.8854Z" fill="white"/>
<g id="Group">
<path id="Vector_23" d="M57.7959 50.371C54.5418 50.365 51.3839 49.2666 48.8283 47.252C46.2728 45.2375 44.4675 42.4233 43.7018 39.2605C42.9362 36.0977 43.2545 32.7695 44.6057 29.8091C45.9569 26.8488 48.2628 24.4278 51.1539 22.9341C54.0449 21.4403 57.3537 20.9604 60.55 21.5712C63.7463 22.182 66.6451 23.8481 68.7816 26.3026C70.9182 28.7571 72.169 31.8578 72.3334 35.1077C72.4979 38.3577 71.5666 41.5688 69.6887 44.2264C68.3466 46.1315 66.5648 47.6848 64.4944 48.7545C62.4241 49.8242 60.1262 50.3787 57.7959 50.371ZM57.8355 22.2892C54.6025 22.2871 51.4754 23.4417 49.0194 25.5442C46.5635 27.6467 44.9407 30.5585 44.4444 33.7532C43.9481 36.9479 44.6111 40.2148 46.3135 42.9633C48.0159 45.7118 50.6454 47.7606 53.7267 48.7394C56.808 49.7182 60.1378 49.5624 63.1142 48.3002C66.0906 47.038 68.5173 44.7526 69.9557 41.8572C71.394 38.9617 71.7491 35.6473 70.9567 32.5128C70.1643 29.3784 68.2768 26.6309 65.6352 24.7668C63.3557 23.1487 60.631 22.2763 57.8355 22.2693V22.2892Z" fill="#093F68"/>
<path id="Vector_24" d="M49.4758 34.4398C49.3967 34.3465 49.294 34.2763 49.1784 34.2366C49.0658 34.195 48.9467 34.1732 48.8266 34.1722C48.7592 34.1627 48.6908 34.1627 48.6234 34.1722C48.5563 34.187 48.4914 34.2103 48.4302 34.2415C48.372 34.2734 48.3213 34.3173 48.2815 34.3704C48.2538 34.408 48.2338 34.4507 48.2228 34.4961C48.2118 34.5415 48.2099 34.5886 48.2173 34.6348C48.2247 34.6809 48.2412 34.7251 48.2658 34.7648C48.2904 34.8045 48.3227 34.8388 48.3608 34.8659C48.4676 34.9387 48.5845 34.9954 48.7077 35.0344L49.1586 35.1731C49.3169 35.217 49.4686 35.282 49.6096 35.3664C49.7482 35.4522 49.8666 35.5672 49.9564 35.7034C50.0574 35.8757 50.1057 36.0738 50.0952 36.2732C50.0993 36.4772 50.0552 36.6793 49.9663 36.8629C49.885 37.0269 49.7682 37.1708 49.6244 37.2841C49.4762 37.397 49.3081 37.4811 49.1289 37.5319C48.9332 37.5835 48.7317 37.6102 48.5293 37.6112C48.2782 37.6136 48.0286 37.5734 47.7909 37.4922C47.5579 37.4036 47.3442 37.2706 47.1616 37.1008L47.7959 36.3971C47.8881 36.5201 48.0089 36.6187 48.1477 36.6845C48.2821 36.7496 48.4295 36.7835 48.5788 36.7836C48.6538 36.7827 48.7285 36.7744 48.8018 36.7589C48.8712 36.7415 48.9379 36.7149 49 36.6796C49.0566 36.6474 49.1056 36.6034 49.1438 36.5507C49.1803 36.493 49.1993 36.4258 49.1983 36.3575C49.2007 36.3018 49.1893 36.2465 49.1651 36.1963C49.1409 36.1461 49.1046 36.1028 49.0595 36.0701C48.9517 35.9923 48.8332 35.9305 48.7077 35.8867L48.2468 35.7381C48.0859 35.6904 47.9312 35.6239 47.786 35.5398C47.6471 35.4546 47.5273 35.3415 47.4342 35.2078C47.3343 35.0442 47.286 34.8542 47.2954 34.6627C47.2888 34.4633 47.3332 34.2655 47.4243 34.0879C47.5056 33.9253 47.6225 33.7831 47.7662 33.6717C47.9144 33.5588 48.0825 33.4747 48.2617 33.4239C48.45 33.3686 48.6452 33.3402 48.8415 33.3397C49.0681 33.3399 49.2935 33.3733 49.5104 33.4388C49.7253 33.5041 49.9232 33.6158 50.0902 33.7658L49.4758 34.4398Z" fill="#093F68"/>
<path id="Vector_25" d="M53.2915 37.0314C53.1529 37.2063 52.9745 37.3456 52.7712 37.4377C52.5641 37.5316 52.3395 37.5806 52.1121 37.5814C51.9061 37.5823 51.7015 37.5471 51.5076 37.4774C51.3241 37.4126 51.1555 37.3115 51.012 37.18C50.8686 37.0529 50.7552 36.8955 50.68 36.7192C50.5217 36.3334 50.5217 35.9008 50.68 35.5151C50.7564 35.3394 50.8697 35.1823 51.012 35.0542C51.1555 34.9228 51.3241 34.8217 51.5076 34.7569C51.7015 34.6872 51.9061 34.6519 52.1121 34.6528C52.299 34.65 52.4845 34.6855 52.6572 34.7569C52.8159 34.8221 52.9568 34.924 53.0685 35.0542C53.1864 35.1884 53.2757 35.3452 53.3311 35.5151C53.3947 35.7102 53.4265 35.9143 53.4253 36.1196V36.3872H51.4432C51.4721 36.5399 51.5525 36.6781 51.6711 36.7787C51.7879 36.8793 51.9382 36.9324 52.0923 36.9273C52.2195 36.9324 52.3454 36.8996 52.454 36.8332C52.552 36.7679 52.6376 36.6857 52.7068 36.5904L53.2915 37.0314ZM52.5482 35.8025C52.5513 35.7339 52.5401 35.6655 52.5153 35.6016C52.4906 35.5376 52.4529 35.4794 52.4045 35.4308C52.3555 35.3778 52.2955 35.3362 52.2288 35.3088C52.162 35.2814 52.09 35.2689 52.018 35.2722C51.9311 35.2699 51.8448 35.2869 51.7652 35.3218C51.6984 35.3498 51.6365 35.3882 51.5819 35.4358C51.5291 35.4825 51.4869 35.5399 51.458 35.6043C51.4317 35.6675 51.415 35.7343 51.4085 35.8025H52.5482Z" fill="#093F68"/>
<path id="Vector_26" d="M55.6949 37.1602C55.6066 37.3066 55.4725 37.4198 55.3134 37.4823C55.0347 37.597 54.7251 37.6127 54.4363 37.5269C54.319 37.4947 54.2094 37.439 54.1142 37.3634C54.0233 37.2887 53.949 37.1959 53.8961 37.0908C53.8407 36.9686 53.812 36.836 53.812 36.7018C53.812 36.5677 53.8407 36.435 53.8961 36.3128C53.9547 36.203 54.0378 36.108 54.1389 36.0353C54.2452 35.9616 54.3622 35.9048 54.4858 35.8669C54.6186 35.8262 54.7545 35.7963 54.8921 35.7777C55.0302 35.7587 55.1691 35.7471 55.3084 35.743H55.6949C55.6978 35.6741 55.6846 35.6055 55.6562 35.5427C55.6278 35.4798 55.585 35.4246 55.5314 35.3812C55.4243 35.2886 55.2865 35.2391 55.1449 35.2425C55.0108 35.2408 54.8782 35.2714 54.7584 35.3317C54.6386 35.3923 54.5324 35.4766 54.4462 35.5794L53.9853 35.1087C54.1468 34.9565 54.3396 34.8415 54.5502 34.7717C54.7636 34.6967 54.9881 34.6582 55.2143 34.6578C55.4262 34.6529 55.6375 34.6848 55.8386 34.7519C55.9899 34.8084 56.1233 34.9042 56.2251 35.0294C56.3275 35.1622 56.3987 35.3163 56.4333 35.4803C56.4711 35.6846 56.4893 35.892 56.4878 36.0998V37.517H55.6949V37.1602ZM55.4818 36.2881H55.239C55.1431 36.2925 55.0482 36.3092 54.9566 36.3376C54.8728 36.36 54.7949 36.4006 54.7286 36.4565C54.6968 36.4839 54.6718 36.5183 54.6554 36.557C54.6391 36.5957 54.6319 36.6376 54.6345 36.6795C54.632 36.7271 54.6433 36.7744 54.6671 36.8157C54.6908 36.857 54.7259 36.8906 54.7683 36.9124C54.8508 36.9612 54.9449 36.9868 55.0408 36.9868C55.1231 36.9881 55.205 36.9764 55.2836 36.9521C55.3593 36.9302 55.4312 36.8968 55.4967 36.853C55.5603 36.81 55.6119 36.7515 55.6466 36.683C55.6813 36.6145 55.6979 36.5382 55.6949 36.4615V36.2782L55.4818 36.2881Z" fill="#093F68"/>
<path id="Vector_27" d="M57.0081 34.7222H57.8703V35.1681C57.9496 35.0169 58.0613 34.8849 58.1973 34.7816C58.3454 34.6889 58.5184 34.6439 58.6929 34.6528H58.8415L58.9803 34.6776V35.4655C58.9221 35.446 58.8624 35.431 58.8019 35.4209C58.7392 35.4158 58.6763 35.4158 58.6136 35.4209C58.4797 35.4163 58.3463 35.44 58.2221 35.4902C58.1317 35.5314 58.0557 35.5987 58.0041 35.6835C57.946 35.7728 57.9104 35.8748 57.9 35.9808C57.892 36.1062 57.892 36.232 57.9 36.3574V37.5219H57.0081V34.7222Z" fill="#093F68"/>
<path id="Vector_28" d="M61.1506 35.6489C61.1017 35.582 61.0375 35.5278 60.9634 35.4907C60.8893 35.4536 60.8074 35.4348 60.7245 35.4358C60.6331 35.4327 60.542 35.4483 60.4568 35.4815C60.3717 35.5147 60.2941 35.5649 60.229 35.6291C60.1136 35.7751 60.0509 35.9558 60.0509 36.1419C60.0509 36.3281 60.1136 36.5088 60.229 36.6548C60.2941 36.719 60.3717 36.7692 60.4568 36.8024C60.542 36.8356 60.6331 36.8512 60.7245 36.8481C60.8116 36.851 60.8976 36.8286 60.9723 36.7837C61.0402 36.7452 61.1006 36.6949 61.1506 36.635L61.7156 37.2346C61.5847 37.3677 61.423 37.4664 61.2448 37.522C61.0763 37.575 60.9011 37.6034 60.7245 37.6062C60.5184 37.6076 60.3137 37.5724 60.1199 37.5022C59.9369 37.4364 59.7685 37.3354 59.6244 37.2049C59.4839 37.0762 59.3724 36.9191 59.2973 36.744C59.1755 36.4663 59.1415 36.1579 59.2 35.8603C59.2585 35.5627 59.4065 35.2901 59.6244 35.079C59.7685 34.9485 59.9369 34.8474 60.1199 34.7817C60.3137 34.7115 60.5184 34.6762 60.7245 34.6776C60.9011 34.6805 61.0763 34.7089 61.2448 34.7619C61.423 34.8175 61.5847 34.9162 61.7156 35.0493L61.1506 35.6489Z" fill="#093F68"/>
<path id="Vector_29" d="M62.8898 33.1712V35.1037C62.9119 35.0433 62.9456 34.9878 62.989 34.9402C63.0364 34.8848 63.0915 34.8365 63.1525 34.7965C63.2259 34.7532 63.3041 34.7183 63.3854 34.6924C63.4772 34.6661 63.5723 34.6528 63.6678 34.6528C63.8503 34.6453 64.032 34.6809 64.198 34.7569C64.3266 34.8174 64.4351 34.9137 64.5102 35.0344C64.5892 35.1612 64.6414 35.3029 64.6638 35.4506C64.6904 35.6244 64.7036 35.8 64.7035 35.9759V37.512H63.8413V36.1444C63.8461 36.0618 63.8461 35.9791 63.8413 35.8966C63.8377 35.8151 63.821 35.7348 63.7917 35.6587C63.7646 35.588 63.7183 35.5262 63.6579 35.4803C63.5833 35.4306 63.4947 35.4063 63.4052 35.411C63.3108 35.4073 63.217 35.4277 63.1327 35.4704C63.0671 35.5094 63.0139 35.5661 62.979 35.634C62.9382 35.7019 62.9128 35.7781 62.9047 35.8569C62.8995 35.9461 62.8995 36.0354 62.9047 36.1245V37.512H62.0425V33.1712H62.8898Z" fill="#093F68"/>
<path id="Vector_30" d="M65.3379 37.0165C65.3386 36.9469 65.352 36.878 65.3775 36.8133C65.4035 36.7499 65.4423 36.6925 65.4915 36.6448C65.5392 36.5956 65.5966 36.5568 65.66 36.5308C65.7263 36.5048 65.7969 36.4914 65.8681 36.4912C65.9377 36.4919 66.0065 36.5053 66.0713 36.5308C66.137 36.5551 66.1963 36.5941 66.2447 36.6448C66.2922 36.6929 66.3293 36.7503 66.3537 36.8133C66.3811 36.8775 66.3946 36.9467 66.3934 37.0165C66.3953 37.0879 66.3818 37.1589 66.3537 37.2246C66.3293 37.2876 66.2922 37.3449 66.2447 37.3931C66.195 37.4421 66.136 37.4808 66.0713 37.507C66.0065 37.5325 65.9377 37.546 65.8681 37.5467C65.7969 37.5465 65.7263 37.533 65.66 37.507C65.5973 37.4797 65.5402 37.441 65.4915 37.3931C65.4423 37.3454 65.4035 37.288 65.3775 37.2246C65.3515 37.1583 65.3381 37.0877 65.3379 37.0165Z" fill="#093F68"/>
<path id="Vector_31" d="M67.0376 37.0165C67.0383 36.9469 67.0517 36.878 67.0772 36.8133C67.1032 36.7499 67.142 36.6925 67.1912 36.6448C67.2377 36.5942 67.2954 36.5552 67.3597 36.5308C67.426 36.5048 67.4966 36.4914 67.5678 36.4912C67.6374 36.4919 67.7062 36.5053 67.771 36.5308C67.8981 36.585 67.9993 36.6862 68.0534 36.8133C68.0789 36.878 68.0924 36.9469 68.0931 37.0165C68.0929 37.0877 68.0794 37.1583 68.0534 37.2246C68.0291 37.2889 67.9901 37.3466 67.9395 37.3931C67.8918 37.4423 67.8344 37.4811 67.771 37.507C67.7062 37.5325 67.6374 37.546 67.5678 37.5467C67.4966 37.5465 67.426 37.533 67.3597 37.507C67.2326 37.4529 67.1314 37.3517 67.0772 37.2246C67.0512 37.1583 67.0378 37.0877 67.0376 37.0165Z" fill="#093F68"/>
<path id="Vector_32" d="M68.7373 37.0165C68.738 36.9469 68.7514 36.878 68.7769 36.8133C68.8311 36.6862 68.9323 36.585 69.0594 36.5308C69.1241 36.5053 69.193 36.4919 69.2626 36.4912C69.3338 36.4914 69.4044 36.5048 69.4707 36.5308C69.5978 36.585 69.699 36.6862 69.7531 36.8133C69.7787 36.878 69.7921 36.9469 69.7928 37.0165C69.7926 37.0877 69.7791 37.1583 69.7531 37.2246C69.7288 37.2889 69.6898 37.3466 69.6392 37.3931C69.5915 37.4423 69.5341 37.4811 69.4707 37.507C69.4044 37.533 69.3338 37.5465 69.2626 37.5467C69.193 37.546 69.1241 37.5325 69.0594 37.507C68.996 37.4811 68.9386 37.4423 68.8909 37.3931C68.8403 37.3466 68.8013 37.2889 68.7769 37.2246C68.751 37.1583 68.7375 37.0877 68.7373 37.0165Z" fill="#093F68"/>
</g>
<path id="Vector_33" d="M22.1821 48.0173H3.1784C1.82645 48.0173 0.730469 49.1133 0.730469 50.4652V65.1925C0.730469 66.5445 1.82645 67.6404 3.1784 67.6404H22.1821C23.5341 67.6404 24.63 66.5445 24.63 65.1925V50.4652C24.63 49.1133 23.5341 48.0173 22.1821 48.0173Z" fill="#ED4ABF"/>
<path id="Vector_34" d="M22.182 68.136H3.17338C2.39358 68.1347 1.64617 67.824 1.09523 67.2721C0.544298 66.7202 0.234862 65.9723 0.234863 65.1925V50.4603C0.24139 49.6848 0.553705 48.9432 1.10394 48.3967C1.65417 47.8502 2.39785 47.5429 3.17338 47.5416H22.182C22.9594 47.5493 23.7029 47.8613 24.2531 48.4105C24.8033 48.9598 25.1165 49.7027 25.1255 50.4801V65.2123C25.1126 65.9871 24.7978 66.7263 24.248 67.2724C23.6982 67.8185 22.9569 68.1283 22.182 68.136ZM3.17338 48.5327C2.91763 48.5327 2.6644 48.5831 2.42812 48.6809C2.19185 48.7788 1.97716 48.9223 1.79632 49.1031C1.61549 49.2839 1.47204 49.4986 1.37417 49.7349C1.2763 49.9712 1.22593 50.2244 1.22593 50.4801V65.2123C1.22528 65.4685 1.27517 65.7223 1.37275 65.9591C1.47032 66.196 1.61367 66.4112 1.79457 66.5926C1.97547 66.774 2.19038 66.9179 2.42698 67.016C2.66357 67.1142 2.91722 67.1647 3.17338 67.1647H22.182C22.6998 67.1647 23.1964 66.959 23.5626 66.5929C23.9287 66.2267 24.1344 65.7302 24.1344 65.2123V50.4603C24.1331 49.9434 23.9268 49.448 23.5608 49.083C23.1948 48.7179 22.699 48.5129 22.182 48.5129L3.17338 48.5327Z" fill="#093F68"/>
<path id="Vector_35" d="M8.73315 63.4284V52.2294L18.515 57.8289L8.73315 63.4284Z" fill="white"/>
<path id="Vector_36" d="M8.73333 63.924C8.64652 63.9246 8.56108 63.9024 8.48556 63.8596C8.40994 63.8159 8.3472 63.753 8.30369 63.6773C8.26018 63.6016 8.23745 63.5158 8.2378 63.4284V52.2294C8.23745 52.1421 8.26018 52.0562 8.30369 51.9805C8.3472 51.9048 8.40994 51.8419 8.48556 51.7983C8.56089 51.7548 8.64635 51.7319 8.73333 51.7319C8.82031 51.7319 8.90577 51.7548 8.9811 51.7983L18.7629 57.3978C18.8392 57.441 18.9026 57.5037 18.9467 57.5794C18.9909 57.6552 19.0141 57.7413 19.0141 57.8289C19.0141 57.9166 18.9909 58.0027 18.9467 58.0784C18.9026 58.1541 18.8392 58.2168 18.7629 58.26L8.9811 63.8596C8.90558 63.9024 8.82014 63.9246 8.73333 63.924ZM9.22886 53.0817V62.5761L17.5191 57.8289L9.22886 53.0817Z" fill="#093F68"/>
<path id="Vector_37" d="M113.553 4.62344H91.0117C90.0647 4.62344 89.2971 5.39107 89.2971 6.33799V22.0018C89.2971 22.9487 90.0647 23.7163 91.0117 23.7163H113.553C114.5 23.7163 115.268 22.9487 115.268 22.0018V6.33799C115.268 5.39107 114.5 4.62344 113.553 4.62344Z" fill="#DADADA"/>
<path id="Vector_38" d="M113.553 24.2119H91.0116C90.4254 24.2119 89.8633 23.979 89.4488 23.5646C89.0344 23.1501 88.8015 22.5879 88.8015 22.0018V6.33799C88.8015 5.75184 89.0344 5.1897 89.4488 4.77523C89.8633 4.36076 90.4254 4.12791 91.0116 4.12791H113.553C114.14 4.12791 114.702 4.36076 115.116 4.77523C115.531 5.1897 115.763 5.75184 115.763 6.33799V22.0018C115.763 22.5879 115.531 23.1501 115.116 23.5646C114.702 23.979 114.14 24.2119 113.553 24.2119ZM91.0116 5.11898C90.6883 5.11898 90.3782 5.24741 90.1496 5.47602C89.921 5.70463 89.7926 6.01469 89.7926 6.33799V22.0018C89.7939 22.3247 89.9227 22.634 90.1511 22.8623C90.3794 23.0907 90.6887 23.2195 91.0116 23.2208H113.553C113.877 23.2208 114.187 23.0924 114.415 22.8638C114.644 22.6352 114.772 22.3251 114.772 22.0018V6.33799C114.772 6.01469 114.644 5.70463 114.415 5.47602C114.187 5.24741 113.877 5.11898 113.553 5.11898H91.0116Z" fill="#093F68"/>
<path id="Vector_39" d="M89.2971 21.6847C89.1766 21.6845 89.0603 21.6405 88.97 21.5608C88.9209 21.5174 88.8808 21.4647 88.8522 21.4058C88.8236 21.3468 88.807 21.2827 88.8033 21.2173C88.7996 21.1518 88.8089 21.0863 88.8307 21.0245C88.8526 20.9627 88.8864 20.9058 88.9304 20.8572L97.1463 11.6254C97.2362 11.5306 97.358 11.4724 97.4882 11.4619C97.5541 11.4582 97.62 11.4677 97.6821 11.4898C97.7442 11.512 97.8013 11.5462 97.85 11.5907L106.348 19.217C106.438 19.3063 106.491 19.4269 106.495 19.5538C106.499 19.6806 106.454 19.8041 106.369 19.8988C106.285 19.9935 106.167 20.0522 106.04 20.0627C105.914 20.0732 105.788 20.0348 105.689 19.9553L97.5774 12.6561L89.6489 21.5212C89.6042 21.5707 89.5501 21.6107 89.4896 21.6388C89.4292 21.6669 89.3637 21.6825 89.2971 21.6847Z" fill="#093F68"/>
<path id="Vector_40" d="M104.351 18.5678C104.283 18.5683 104.214 18.5544 104.151 18.5271C104.088 18.4998 104.031 18.4597 103.985 18.4092C103.94 18.3612 103.905 18.3049 103.883 18.2434C103.86 18.182 103.85 18.1166 103.853 18.0512C103.856 17.9858 103.871 17.9215 103.899 17.8622C103.927 17.8029 103.966 17.7496 104.014 17.7056L108.91 13.1962C108.992 13.121 109.096 13.0752 109.206 13.0662C109.317 13.0572 109.427 13.0855 109.52 13.1467L115.545 17.1803C115.655 17.2546 115.731 17.3694 115.756 17.4995C115.781 17.6296 115.753 17.7643 115.679 17.874C115.605 17.9838 115.49 18.0595 115.36 18.0846C115.23 18.1097 115.095 18.0821 114.985 18.0078L109.282 14.1922L104.678 18.434C104.59 18.5173 104.473 18.5649 104.351 18.5678Z" fill="#093F68"/>
<path id="Vector_41" d="M104.351 11.9574C105.438 11.9574 106.319 11.0766 106.319 9.99012C106.319 8.90363 105.438 8.02286 104.351 8.02286C103.265 8.02286 102.384 8.90363 102.384 9.99012C102.384 11.0766 103.265 11.9574 104.351 11.9574Z" fill="white"/>
<path id="Vector_42" d="M104.351 12.4529C103.861 12.4529 103.382 12.3076 102.975 12.0353C102.567 11.7631 102.25 11.3761 102.062 10.9234C101.875 10.4707 101.826 9.97248 101.921 9.49186C102.017 9.01124 102.253 8.56976 102.599 8.22325C102.946 7.87674 103.387 7.64077 103.868 7.54517C104.349 7.44957 104.847 7.49863 105.3 7.68616C105.752 7.87369 106.139 8.19126 106.412 8.59871C106.684 9.00616 106.829 9.48519 106.829 9.97523C106.829 10.6323 106.568 11.2625 106.103 11.7272C105.639 12.1919 105.009 12.4529 104.351 12.4529ZM104.351 8.51836C104.057 8.51836 103.77 8.60555 103.526 8.7689C103.281 8.93225 103.091 9.16442 102.978 9.43606C102.865 9.7077 102.836 10.0066 102.893 10.295C102.951 10.5834 103.092 10.8482 103.3 11.0561C103.508 11.264 103.773 11.4056 104.061 11.463C104.35 11.5204 104.649 11.4909 104.92 11.3784C105.192 11.2659 105.424 11.0753 105.588 10.8309C105.751 10.5864 105.838 10.299 105.838 10.005C105.838 9.61069 105.681 9.23256 105.403 8.95377C105.124 8.67498 104.746 8.51836 104.351 8.51836Z" fill="#093F68"/>
<path id="Vector_43" d="M113.752 67.2737H97.1067V51.9419L100.6 48.5524H113.752V67.2737Z" fill="white"/>
<path id="Vector_44" d="M113.752 67.7692H97.1066C96.9752 67.7692 96.8491 67.717 96.7562 67.6241C96.6633 67.5311 96.6111 67.4051 96.6111 67.2737V51.9419C96.6113 51.8751 96.6251 51.8091 96.6515 51.7478C96.6779 51.6865 96.7164 51.6311 96.7647 51.5851L100.233 48.2006C100.326 48.109 100.45 48.0574 100.58 48.0569H113.732C113.863 48.0569 113.989 48.1091 114.082 48.202C114.175 48.295 114.227 48.421 114.227 48.5524V67.2737C114.227 67.4017 114.178 67.5249 114.089 67.6172C114.001 67.7096 113.88 67.7641 113.752 67.7692ZM97.6022 66.7781H113.256V49.0281H100.798L97.6022 52.1302V66.7781Z" fill="#093F68"/>
<path id="Vector_45" d="M97.1067 51.9419H100.566V48.5524L97.1067 51.9419Z" fill="white"/>
<path id="Vector_46" d="M100.565 52.4375H97.0967C96.9976 52.4381 96.9007 52.409 96.8183 52.3539C96.736 52.2989 96.672 52.2205 96.6347 52.1287C96.5974 52.037 96.5884 51.9362 96.6089 51.8393C96.6294 51.7424 96.6785 51.6539 96.7498 51.5851L100.219 48.2007C100.288 48.1329 100.375 48.0869 100.471 48.0684C100.566 48.0499 100.664 48.0597 100.754 48.0966C100.844 48.1338 100.922 48.1969 100.976 48.278C101.031 48.3592 101.06 48.4546 101.061 48.5525V51.9419C101.061 52.0734 101.009 52.1994 100.916 52.2923C100.823 52.3853 100.697 52.4375 100.565 52.4375ZM98.3206 51.4464H100.07V49.7318L98.3206 51.4464Z" fill="#093F68"/>
<path id="Vector_47" d="M110.66 55.2669H100.204C100.072 55.2669 99.9463 55.2147 99.8534 55.1218C99.7605 55.0288 99.7083 54.9028 99.7083 54.7714C99.7083 54.64 99.7605 54.5139 99.8534 54.421C99.9463 54.3281 100.072 54.2758 100.204 54.2758H110.66C110.791 54.2758 110.917 54.3281 111.01 54.421C111.103 54.5139 111.155 54.64 111.155 54.7714C111.155 54.9028 111.103 55.0288 111.01 55.1218C110.917 55.2147 110.791 55.2669 110.66 55.2669Z" fill="#DFEAEF"/>
<path id="Vector_48" d="M110.66 59.0825H100.204C100.072 59.0825 99.9463 59.0303 99.8534 58.9374C99.7605 58.8444 99.7083 58.7184 99.7083 58.587C99.7083 58.4555 99.7605 58.3295 99.8534 58.2366C99.9463 58.1436 100.072 58.0914 100.204 58.0914H110.66C110.791 58.0914 110.917 58.1436 111.01 58.2366C111.103 58.3295 111.155 58.4555 111.155 58.587C111.155 58.7184 111.103 58.8444 111.01 58.9374C110.917 59.0303 110.791 59.0825 110.66 59.0825Z" fill="#DFEAEF"/>
<path id="Vector_49" d="M108.142 62.9032H100.214C100.082 62.9032 99.9561 62.851 99.8631 62.758C99.7702 62.6651 99.718 62.5391 99.718 62.4076C99.718 62.2762 99.7702 62.1502 99.8631 62.0572C99.9561 61.9643 100.082 61.9121 100.214 61.9121H108.142C108.274 61.9121 108.4 61.9643 108.492 62.0572C108.585 62.1502 108.638 62.2762 108.638 62.4076C108.638 62.5391 108.585 62.6651 108.492 62.758C108.4 62.851 108.274 62.9032 108.142 62.9032Z" fill="#DFEAEF"/>
</g>
</svg>
