<svg width="98" height="93" viewBox="0 0 98 93" fill="none" xmlns="http://www.w3.org/2000/svg">
<g id="Content Writing">
<path id="Vector" d="M24.6546 91.9008C24.2484 91.9169 23.843 91.8526 23.4617 91.7117C23.0805 91.5707 22.7307 91.3559 22.4326 91.0795C22.1345 90.8032 21.8939 90.4707 21.7245 90.1011C21.5552 89.7316 21.4604 89.3323 21.4457 88.926L18.5908 16.2404C18.5747 15.8339 18.639 15.4283 18.7798 15.0466C18.9207 14.665 19.1354 14.3149 19.4117 14.0163C19.688 13.7178 20.0205 13.4766 20.39 13.3066C20.7596 13.1367 21.1591 13.0412 21.5656 13.0258L90.6198 10.3365C91.0263 10.3204 91.4319 10.3847 91.8136 10.5255C92.1952 10.6664 92.5453 10.8811 92.8439 11.1574C93.1424 11.4337 93.3836 11.7661 93.5536 12.1357C93.7235 12.5053 93.819 12.9048 93.8344 13.3113L96.6665 85.4259C96.7035 86.4004 96.352 87.3496 95.6892 88.0649C95.0264 88.7802 94.1066 89.2029 93.1321 89.24L24.6546 91.9008Z" fill="#ED4ABF"/>
<path id="Vector_2" d="M24.5346 92.4776C23.5863 92.4782 22.6747 92.1107 21.992 91.4525C21.3093 90.7942 20.9087 89.8967 20.8747 88.949L18.0198 16.2633C17.9827 15.2913 18.3329 14.3444 18.9934 13.6303C19.6539 12.9163 20.5708 12.4935 21.5427 12.4549L90.6197 9.7713C91.1009 9.75142 91.5813 9.8267 92.0334 9.99282C92.4854 10.159 92.9002 10.4127 93.254 10.7394C93.6078 11.0662 93.8937 11.4595 94.0952 11.897C94.2966 12.3344 94.4098 12.8073 94.4282 13.2885L97.2374 85.426C97.2791 86.5515 96.8727 87.6477 96.1074 88.474C95.3421 89.3003 94.2803 89.7894 93.1549 89.834L24.6774 92.5005L24.5346 92.4776ZM90.7682 10.9075H90.6654L21.6112 13.5969C20.9422 13.6236 20.3112 13.9145 19.8563 14.4058C19.4014 14.897 19.1598 15.5486 19.1846 16.2177L22.0109 88.909C22.0234 89.2403 22.1015 89.5658 22.2407 89.8667C22.3799 90.1676 22.5773 90.4378 22.8217 90.6619C23.3155 91.1148 23.9679 91.3548 24.6374 91.3299L93.1149 88.6635C93.9369 88.6308 94.7123 88.2734 95.2711 87.6696C95.8299 87.0659 96.1263 86.2652 96.0954 85.4431L93.2862 13.3342C93.2611 12.6828 92.985 12.0664 92.5156 11.6141C92.0463 11.1617 91.4201 10.9085 90.7682 10.9075Z" fill="#093F68"/>
<path id="Vector_3" d="M75.957 85.6029H17.2261C16.4053 85.6029 15.6181 85.2769 15.0378 84.6965C14.4574 84.1161 14.1314 83.329 14.1314 82.5082V9.76549C14.1306 9.35887 14.2101 8.95611 14.3654 8.58031C14.5207 8.2045 14.7486 7.86304 15.0361 7.57552C15.3236 7.288 15.6651 7.06008 16.0409 6.90482C16.4167 6.74956 16.8194 6.67003 17.2261 6.67078H86.3145C86.7209 6.67078 87.1233 6.75083 87.4988 6.90635C87.8743 7.06188 88.2154 7.28983 88.5028 7.5772C88.7902 7.86457 89.0181 8.20573 89.1737 8.58119C89.3292 8.95666 89.4092 9.35908 89.4092 9.76549V71.4598L75.957 85.6029Z" fill="white"/>
<path id="Vector_4" d="M75.957 86.174H17.2261C16.2538 86.1725 15.3217 85.786 14.6337 85.099C13.9457 84.4121 13.5577 83.4806 13.5547 82.5083V9.76559C13.5577 8.79333 13.9457 7.86184 14.6337 7.17488C15.3217 6.48792 16.2538 6.10141 17.2261 6.0999H86.3145C87.2863 6.10141 88.2178 6.4881 88.9049 7.17522C89.592 7.86235 89.9787 8.79385 89.9802 9.76559V71.4599C89.9796 71.6069 89.9224 71.748 89.8203 71.8538L76.3681 85.997C76.315 86.0527 76.2512 86.097 76.1806 86.1275C76.11 86.1579 76.0339 86.1737 75.957 86.174ZM17.2261 7.24186C16.5562 7.24186 15.9137 7.50757 15.4395 7.9807C14.9653 8.45383 14.6982 9.09573 14.6966 9.76559V82.5083C14.6997 83.1777 14.9673 83.8187 15.4412 84.2915C15.915 84.7643 16.5567 85.0305 17.2261 85.032H75.7115L88.844 71.2315V9.76559C88.8425 9.09672 88.5761 8.45568 88.1031 7.98271C87.6301 7.50975 86.9891 7.24337 86.3202 7.24186H17.2261Z" fill="#093F68"/>
<path id="Vector_5" d="M75.957 85.6029V74.6858C75.9585 73.9033 76.27 73.1533 76.8233 72.6001C77.3766 72.0468 78.1265 71.7353 78.909 71.7338H89.4321L75.957 85.6029Z" fill="#020312"/>
<g id="Group">
<path id="Vector_6" d="M75.957 86.1739C75.8848 86.1722 75.8135 86.1587 75.7457 86.134C75.6395 86.0917 75.5484 86.0184 75.4842 85.9238C75.4201 85.8291 75.3859 85.7173 75.386 85.603V74.6859C75.3875 73.752 75.7591 72.8568 76.4195 72.1964C77.0799 71.5361 77.975 71.1644 78.9089 71.1629H89.4321C89.5448 71.1623 89.6552 71.195 89.7494 71.2569C89.8435 71.3189 89.9172 71.4074 89.9612 71.5112C90.0052 71.615 90.0174 71.7295 89.9964 71.8403C89.9754 71.951 89.9221 72.0531 89.8432 72.1336L76.3681 85.9969C76.315 86.0526 76.2512 86.097 76.1806 86.1274C76.1099 86.1578 76.0339 86.1737 75.957 86.1739ZM78.9089 72.2934C78.2775 72.2934 77.6718 72.5443 77.2253 72.9908C76.7788 73.4373 76.5279 74.043 76.5279 74.6744V84.1812L88.0789 72.2934H78.9089Z" fill="#093F68"/>
<path id="Vector_7" d="M75.957 25.119H42.8403C42.6888 25.119 42.5436 25.0589 42.4365 24.9518C42.3294 24.8447 42.2693 24.6995 42.2693 24.548C42.2693 24.3966 42.3294 24.2514 42.4365 24.1443C42.5436 24.0372 42.6888 23.9771 42.8403 23.9771H75.957C76.1085 23.9771 76.2537 24.0372 76.3608 24.1443C76.4679 24.2514 76.528 24.3966 76.528 24.548C76.528 24.6995 76.4679 24.8447 76.3608 24.9518C76.2537 25.0589 76.1085 25.119 75.957 25.119Z" fill="#093F68"/>
<path id="Vector_8" d="M75.9571 34.169H28.0805C27.9291 34.169 27.7838 34.1089 27.6768 34.0018C27.5697 33.8947 27.5095 33.7495 27.5095 33.5981C27.5095 33.4466 27.5697 33.3014 27.6768 33.1943C27.7838 33.0872 27.9291 33.0271 28.0805 33.0271H75.9571C76.1085 33.0271 76.2537 33.0872 76.3608 33.1943C76.4679 33.3014 76.5281 33.4466 76.5281 33.5981C76.5281 33.7495 76.4679 33.8947 76.3608 34.0018C76.2537 34.1089 76.1085 34.169 75.9571 34.169Z" fill="#093F68"/>
<path id="Vector_9" d="M75.9571 43.2249H28.0805C27.9291 43.2249 27.7838 43.1648 27.6768 43.0577C27.5697 42.9506 27.5095 42.8054 27.5095 42.654C27.5095 42.5025 27.5697 42.3573 27.6768 42.2502C27.7838 42.1431 27.9291 42.083 28.0805 42.083H75.9571C76.1085 42.083 76.2537 42.1431 76.3608 42.2502C76.4679 42.3573 76.5281 42.5025 76.5281 42.654C76.5281 42.8054 76.4679 42.9506 76.3608 43.0577C76.2537 43.1648 76.1085 43.2249 75.9571 43.2249Z" fill="#093F68"/>
<path id="Vector_10" d="M75.9571 52.2748H28.0805C27.9291 52.2748 27.7838 52.2147 27.6768 52.1076C27.5697 52.0005 27.5095 51.8553 27.5095 51.7039C27.5095 51.5524 27.5697 51.4072 27.6768 51.3001C27.7838 51.193 27.9291 51.1329 28.0805 51.1329H75.9571C76.1085 51.1329 76.2537 51.193 76.3608 51.3001C76.4679 51.4072 76.5281 51.5524 76.5281 51.7039C76.5281 51.8553 76.4679 52.0005 76.3608 52.1076C76.2537 52.2147 76.1085 52.2748 75.9571 52.2748Z" fill="#093F68"/>
<path id="Vector_11" d="M75.9571 61.3306H28.0805C27.9291 61.3306 27.7838 61.2704 27.6768 61.1634C27.5697 61.0563 27.5095 60.911 27.5095 60.7596C27.5095 60.6082 27.5697 60.4629 27.6768 60.3559C27.7838 60.2488 27.9291 60.1886 28.0805 60.1886H75.9571C76.1085 60.1886 76.2537 60.2488 76.3608 60.3559C76.4679 60.4629 76.5281 60.6082 76.5281 60.7596C76.5281 60.911 76.4679 61.0563 76.3608 61.1634C76.2537 61.2704 76.1085 61.3306 75.9571 61.3306Z" fill="#093F68"/>
<path id="Vector_12" d="M57.6172 70.3862H28.0805C27.9291 70.3862 27.7838 70.326 27.6768 70.219C27.5697 70.1119 27.5095 69.9666 27.5095 69.8152C27.5095 69.6638 27.5697 69.5185 27.6768 69.4115C27.7838 69.3044 27.9291 69.2442 28.0805 69.2442H57.6172C57.7687 69.2442 57.9139 69.3044 58.021 69.4115C58.1281 69.5185 58.1882 69.6638 58.1882 69.8152C58.1882 69.9666 58.1281 70.1119 58.021 70.219C57.9139 70.326 57.7687 70.3862 57.6172 70.3862Z" fill="#093F68"/>
<path id="Vector_13" d="M33.5791 17.1425C32.8396 17.1793 32.1123 16.9431 31.5355 16.4789C30.9587 16.0147 30.5724 15.3547 30.4502 14.6245L28.6459 4.43821C28.5553 4.00197 28.5659 3.55079 28.6767 3.11927C28.7876 2.68774 28.9958 2.28733 29.2854 1.94874C29.8314 1.34925 30.5605 0.947381 31.359 0.805871C32.1574 0.664361 32.9802 0.791168 33.699 1.1665C34.0871 1.38531 34.42 1.68992 34.6723 2.05706C34.9247 2.42419 35.0898 2.84414 35.155 3.28483L35.6575 6.13973C35.6706 6.21359 35.6691 6.28932 35.653 6.36259C35.6369 6.43586 35.6064 6.50523 35.5635 6.56674C35.5205 6.62825 35.4659 6.68069 35.4027 6.72107C35.3394 6.76145 35.2689 6.78897 35.195 6.80207C35.1211 6.81522 35.0454 6.81369 34.9721 6.79756C34.8989 6.78143 34.8295 6.75103 34.768 6.70808C34.7065 6.66512 34.654 6.61047 34.6137 6.54724C34.5733 6.48401 34.5458 6.41344 34.5327 6.33957L34.0302 3.48467C33.9937 3.21021 33.8943 2.94788 33.7398 2.71811C33.5853 2.48834 33.3799 2.29735 33.1395 2.16C32.6508 1.91569 32.0964 1.8354 31.5584 1.93106C31.0205 2.02671 30.5278 2.29321 30.1532 2.69101C29.9745 2.90197 29.8469 3.15141 29.7806 3.41984C29.7142 3.68827 29.7108 3.96841 29.7707 4.23837L31.5693 14.4246C31.8091 15.7607 32.9853 16.1376 34.0416 15.9834C35.0979 15.8292 36.0686 15.007 35.8345 13.6995L35.4634 11.6154C35.4369 11.464 35.4716 11.3082 35.5599 11.1824C35.6483 11.0566 35.783 10.971 35.9344 10.9445C36.0858 10.918 36.2416 10.9528 36.3674 11.0411C36.4932 11.1294 36.5788 11.2641 36.6053 11.4156L36.9707 13.4996C37.3305 15.5095 35.8745 16.8513 34.2586 17.1368C34.0326 17.1568 33.8054 17.1587 33.5791 17.1425Z" fill="#093F68"/>
</g>
<path id="Vector_14" d="M22.3479 67.4608L15.9915 70.0187L1.71023 34.5287C1.4581 33.9021 1.4652 33.2011 1.72996 32.5797C1.99473 31.9584 2.49547 31.4677 3.12204 31.2156L4.74822 30.5612C5.37478 30.3091 6.07584 30.3162 6.69717 30.5809C7.3185 30.8457 7.80921 31.3464 8.06134 31.973L22.3426 67.4629L22.3479 67.4608Z" fill="#ED4ABF"/>
<path id="Vector_15" d="M15.9985 70.6091C15.9218 70.6105 15.8458 70.5949 15.7758 70.5634C15.6363 70.5055 15.5254 70.3946 15.4675 70.2551L1.19301 34.7802C1.03625 34.4018 0.955566 33.9963 0.955566 33.5868C0.955566 33.1773 1.03625 32.7718 1.19301 32.3935C1.3529 32.0154 1.58681 31.6731 1.88099 31.3867C2.17517 31.1004 2.52366 30.8758 2.90594 30.7262L4.52752 30.0696C5.29334 29.762 6.14964 29.7695 6.90999 30.0903C7.67034 30.4111 8.27316 31.0193 8.58718 31.7825L22.8617 67.2517C22.9182 67.3918 22.9168 67.5486 22.858 67.6877C22.7991 67.8269 22.6875 67.937 22.5476 67.994L16.2155 70.5805C16.1457 70.604 16.072 70.6137 15.9985 70.6091ZM5.72087 30.9889C5.46846 30.9887 5.21838 31.0371 4.98431 31.1316L3.37415 31.7825C2.88872 31.9802 2.5014 32.3622 2.297 32.8448C2.0926 33.3275 2.08777 33.8714 2.28357 34.3576L16.3468 69.2958L21.6341 67.1661L7.5423 32.2279C7.39465 31.8625 7.1414 31.5494 6.81491 31.3287C6.48843 31.108 6.10354 30.9897 5.70945 30.9889H5.72087Z" fill="#093F68"/>
<path id="Vector_16" d="M16.0042 70.0438L22.3534 67.4858L23.0329 75.8221L23.2956 79.0024L21.28 76.5244L16.0042 70.0438Z" fill="white"/>
<path id="Vector_17" d="M23.2955 79.5734C23.2112 79.5728 23.128 79.5536 23.052 79.517C22.976 79.4805 22.909 79.4276 22.8559 79.3621L15.5588 70.4034C15.5021 70.3341 15.4626 70.2525 15.4433 70.1651C15.4241 70.0777 15.4256 69.987 15.4478 69.9004C15.47 69.8137 15.5123 69.7334 15.5713 69.6661C15.6302 69.5988 15.7042 69.5462 15.7872 69.5127L22.1421 66.9547C22.2246 66.9224 22.3134 66.9097 22.4016 66.9176C22.4898 66.9256 22.575 66.9539 22.6503 67.0004C22.7274 67.0469 22.7925 67.1109 22.8401 67.1874C22.8877 67.2638 22.9166 67.3504 22.9244 67.4401L23.8665 78.9567C23.875 79.0778 23.8447 79.1984 23.78 79.301C23.7153 79.4037 23.6196 79.4831 23.5068 79.5277C23.4402 79.5571 23.3683 79.5726 23.2955 79.5734ZM16.9348 70.2835L22.5761 77.2152L21.8452 68.2965L16.9348 70.2835Z" fill="#093F68"/>
<path id="Vector_18" d="M21.28 76.5243L23.0329 75.822L23.2956 79.0024L21.28 76.5243Z" fill="#093F68"/>
<path id="Vector_19" d="M23.2957 79.5733C23.2114 79.5728 23.1282 79.5535 23.0522 79.517C22.9762 79.4805 22.9092 79.4276 22.856 79.3621L20.8348 76.8897C20.7778 76.8196 20.7382 76.737 20.7194 76.6487C20.7005 76.5604 20.7029 76.4688 20.7263 76.3816C20.7495 76.2955 20.7927 76.216 20.8521 76.1496C20.9116 76.0832 20.9859 76.0316 21.0689 75.999L22.8218 75.291C22.9045 75.2576 22.9939 75.2441 23.0828 75.2516C23.1717 75.259 23.2576 75.2872 23.3337 75.3338C23.4097 75.3804 23.4738 75.4442 23.5208 75.5201C23.5677 75.5959 23.5962 75.6817 23.604 75.7706L23.8667 78.9567C23.8752 79.0777 23.8449 79.1983 23.7802 79.301C23.7155 79.4036 23.6198 79.483 23.507 79.5276C23.4404 79.557 23.3685 79.5726 23.2957 79.5733ZM22.2108 76.7641L22.5763 77.2152L22.5306 76.6442L22.2108 76.7641Z" fill="#093F68"/>
</g>
</svg>
