<svg width="140" height="83" viewBox="0 0 140 83" fill="none" xmlns="http://www.w3.org/2000/svg">
<g id="Website">
<path id="Vector" d="M122.962 1.0975H41.8574C38.9012 1.0975 36.5046 3.49403 36.5046 6.4503V58.3087C36.5046 61.265 38.9012 63.6615 41.8574 63.6615H122.962C125.919 63.6615 128.315 61.265 128.315 58.3087V6.4503C128.315 3.49403 125.919 1.0975 122.962 1.0975Z" fill="#ED4ABF"/>
<path id="Vector_2" d="M122.956 64.2868H41.895C40.3084 64.2852 38.7872 63.6542 37.6653 62.5322C36.5433 61.4103 35.9123 59.8891 35.9106 58.3025V6.45031C35.9123 4.86424 36.5435 3.3437 37.6656 2.22276C38.7878 1.10182 40.309 0.472182 41.895 0.472183H122.956C124.542 0.472182 126.064 1.10182 127.186 2.22276C128.308 3.3437 128.939 4.86424 128.941 6.45031V58.3025C128.939 59.8891 128.308 61.4103 127.186 62.5322C126.064 63.6542 124.543 64.2852 122.956 64.2868ZM41.895 1.72284C40.6412 1.72449 39.439 2.22289 38.5518 3.10893C37.6646 3.99497 37.1646 5.19644 37.1613 6.45031V58.3025C37.163 59.5574 37.6622 60.7605 38.5496 61.6479C39.437 62.5353 40.6401 63.0345 41.895 63.0362H122.956C124.211 63.0345 125.414 62.5353 126.302 61.6479C127.189 60.7605 127.688 59.5574 127.69 58.3025V6.45031C127.688 5.19593 127.189 3.99349 126.301 3.1071C125.414 2.22071 124.211 1.72284 122.956 1.72284H41.895Z" fill="#093F68"/>
<path id="Vector_3" d="M97.0801 77.1123H67.7397L70.8038 63.6615H94.016L97.0801 77.1123Z" fill="#ED4ABF"/>
<path id="Vector_4" d="M97.08 77.7377H67.7397C67.6458 77.7373 67.5531 77.7157 67.4687 77.6745C67.3843 77.6334 67.3102 77.5738 67.2519 77.5001C67.1942 77.4269 67.1536 77.3418 67.1331 77.2509C67.1125 77.16 67.1125 77.0657 67.1331 76.9748L70.191 63.524C70.2227 63.383 70.3024 63.2573 70.4164 63.1683C70.5304 63.0794 70.6717 63.0327 70.8163 63.0363H94.0284C94.173 63.0327 94.3143 63.0794 94.4283 63.1683C94.5423 63.2573 94.622 63.383 94.6538 63.524L97.7116 76.9748C97.7322 77.0657 97.7322 77.16 97.7117 77.2509C97.6911 77.3418 97.6505 77.4269 97.5928 77.5001C97.532 77.5772 97.4539 77.6388 97.3648 77.6801C97.2757 77.7214 97.1782 77.7411 97.08 77.7377ZM68.5213 76.487H96.2984L93.5219 64.2869H71.2853L68.5213 76.487Z" fill="#093F68"/>
<path id="Vector_5" d="M42.7642 6.31279H122.056V52.7433H42.7642V6.31279Z" fill="white"/>
<path id="Vector_6" d="M122.056 53.3687H42.7642C42.5984 53.3687 42.4393 53.3028 42.3221 53.1855C42.2048 53.0683 42.1389 52.9092 42.1389 52.7434V6.3128C42.1389 6.14695 42.2048 5.9879 42.3221 5.87063C42.4393 5.75336 42.5984 5.68747 42.7642 5.68747H122.056C122.222 5.68747 122.381 5.75336 122.498 5.87063C122.615 5.9879 122.681 6.14695 122.681 6.3128V52.7434C122.681 52.9092 122.615 53.0683 122.498 53.1855C122.381 53.3028 122.222 53.3687 122.056 53.3687ZM43.3896 52.118H121.43V6.93812H43.3896V52.118Z" fill="#093F68"/>
<path id="Vector_7" d="M100.676 77.1123H64.1378C62.7495 77.1123 61.624 78.2378 61.624 79.6262C61.624 81.0145 62.7495 82.14 64.1378 82.14H100.676C102.064 82.14 103.19 81.0145 103.19 79.6262C103.19 78.2378 102.064 77.1123 100.676 77.1123Z" fill="#ED4ABF"/>
<path id="Vector_8" d="M100.676 82.7653H64.1442C63.315 82.7653 62.5197 82.4359 61.9333 81.8496C61.347 81.2632 61.0176 80.4679 61.0176 79.6387C61.0176 78.8095 61.347 78.0142 61.9333 77.4278C62.5197 76.8415 63.315 76.5121 64.1442 76.5121H100.676C101.505 76.5121 102.3 76.8415 102.887 77.4278C103.473 78.0142 103.802 78.8095 103.802 79.6387C103.802 80.4679 103.473 81.2632 102.887 81.8496C102.3 82.4359 101.505 82.7653 100.676 82.7653ZM64.138 77.7627C63.6404 77.7627 63.1633 77.9604 62.8114 78.3122C62.4596 78.664 62.262 79.1411 62.262 79.6387C62.262 80.1362 62.4596 80.6134 62.8114 80.9652C63.1633 81.317 63.6404 81.5147 64.138 81.5147H100.676C101.173 81.5147 101.651 81.317 102.002 80.9652C102.354 80.6134 102.552 80.1362 102.552 79.6387C102.552 79.1411 102.354 78.664 102.002 78.3122C101.651 77.9604 101.173 77.7627 100.676 77.7627H64.138Z" fill="#093F68"/>
<path id="Vector_9" d="M121.687 12.7224H43.1456C42.9797 12.7224 42.8207 12.6565 42.7034 12.5392C42.5861 12.422 42.5203 12.2629 42.5203 12.0971C42.5203 11.9312 42.5861 11.7722 42.7034 11.6549C42.8207 11.5376 42.9797 11.4717 43.1456 11.4717H121.687C121.853 11.4717 122.012 11.5376 122.129 11.6549C122.246 11.7722 122.312 11.9312 122.312 12.0971C122.312 12.2629 122.246 12.422 122.129 12.5392C122.012 12.6565 121.853 12.7224 121.687 12.7224Z" fill="#093F68"/>
<path id="Vector_10" d="M47.0478 10.4712C47.7212 10.4712 48.2672 9.92528 48.2672 9.25183C48.2672 8.57838 47.7212 8.03244 47.0478 8.03244C46.3743 8.03244 45.8284 8.57838 45.8284 9.25183C45.8284 9.92528 46.3743 10.4712 47.0478 10.4712Z" fill="#0B105F"/>
<path id="Vector_11" d="M51.7751 10.4712C52.4485 10.4712 52.9944 9.92528 52.9944 9.25183C52.9944 8.57838 52.4485 8.03244 51.7751 8.03244C51.1016 8.03244 50.5557 8.57838 50.5557 9.25183C50.5557 9.92528 51.1016 10.4712 51.7751 10.4712Z" fill="#093F68"/>
<path id="Vector_12" d="M56.5026 10.4712C57.176 10.4712 57.722 9.92528 57.722 9.25183C57.722 8.57838 57.176 8.03244 56.5026 8.03244C55.8291 8.03244 55.2832 8.57838 55.2832 9.25183C55.2832 9.92528 55.8291 10.4712 56.5026 10.4712Z" fill="#093F68"/>
<path id="Vector_13" d="M51.7751 15.8616H85.5929V29.5312H51.7751V15.8616Z" fill="#0B105F"/>
<path id="Vector_14" d="M85.5929 30.1503H51.7752C51.6094 30.1503 51.4503 30.0844 51.3331 29.9671C51.2158 29.8499 51.1499 29.6908 51.1499 29.525V15.8616C51.1499 15.6957 51.2158 15.5367 51.3331 15.4194C51.4503 15.3021 51.6094 15.2362 51.7752 15.2362H85.5929C85.7588 15.2362 85.9178 15.3021 86.0351 15.4194C86.1524 15.5367 86.2183 15.6957 86.2183 15.8616V29.525C86.2183 29.6908 86.1524 29.8499 86.0351 29.9671C85.9178 30.0844 85.7588 30.1503 85.5929 30.1503ZM52.4006 28.8996H84.9676V16.4869H52.4006V28.8996Z" fill="#093F68"/>
<path id="Vector_15" d="M51.775 30.1502C51.6831 30.1504 51.5924 30.1303 51.5092 30.0914C51.4259 30.0525 51.3523 29.9957 51.2935 29.9251C51.2412 29.8616 51.202 29.7883 51.1781 29.7095C51.1542 29.6307 51.146 29.548 51.1542 29.4661C51.1623 29.3842 51.1865 29.3047 51.2255 29.2321C51.2644 29.1596 51.3173 29.0955 51.3811 29.0434L62.4806 19.9199C62.5925 19.8279 62.7329 19.7776 62.8777 19.7776C63.0225 19.7776 63.1629 19.8279 63.2748 19.9199L72.1044 27.2737C72.1676 27.3263 72.2199 27.3908 72.2582 27.4635C72.2965 27.5363 72.3201 27.6159 72.3277 27.6978C72.3352 27.7796 72.3266 27.8622 72.3022 27.9407C72.2778 28.0192 72.2383 28.0922 72.1857 28.1554C72.1331 28.2187 72.0686 28.2709 71.9959 28.3092C71.9231 28.3476 71.8435 28.3712 71.7617 28.3787C71.6798 28.3863 71.5972 28.3776 71.5187 28.3532C71.4402 28.3289 71.3672 28.2893 71.304 28.2367L62.8746 21.2081L52.169 30.0189C52.0564 30.1063 51.9175 30.1526 51.775 30.1502Z" fill="#093F68"/>
<path id="Vector_16" d="M85.5928 30.1502C85.4529 30.1489 85.3171 30.1028 85.2051 30.0189L75.1999 22.0897L70.116 26.5733C69.9905 26.6744 69.8308 26.7231 69.6703 26.7094C69.5097 26.6956 69.3607 26.6204 69.2543 26.4994C69.1478 26.3785 69.0922 26.2211 69.0989 26.0601C69.1057 25.8991 69.1743 25.7469 69.2905 25.6353L74.7622 20.8016C74.8745 20.708 75.0161 20.6567 75.1624 20.6567C75.3086 20.6567 75.4502 20.708 75.5626 20.8016L85.9743 29.0559C86.0755 29.1371 86.1489 29.2477 86.1844 29.3725C86.2199 29.4972 86.2157 29.63 86.1725 29.7523C86.1292 29.8746 86.0489 29.9804 85.9428 30.055C85.8367 30.1297 85.71 30.1695 85.5803 30.169L85.5928 30.1502Z" fill="#093F68"/>
<path id="Vector_17" d="M111.531 17.106H92.1463C91.9805 17.106 91.8214 17.0401 91.7041 16.9228C91.5869 16.8055 91.521 16.6465 91.521 16.4806C91.521 16.3148 91.5869 16.1557 91.7041 16.0385C91.8214 15.9212 91.9805 15.8553 92.1463 15.8553H111.531C111.697 15.8553 111.856 15.9212 111.974 16.0385C112.091 16.1557 112.157 16.3148 112.157 16.4806C112.157 16.6465 112.091 16.8055 111.974 16.9228C111.856 17.0401 111.697 17.106 111.531 17.106Z" fill="#DFEAEF"/>
<path id="Vector_18" d="M111.531 22.6337H92.1463C91.9805 22.6337 91.8214 22.5679 91.7041 22.4506C91.5869 22.3333 91.521 22.1743 91.521 22.0084C91.521 21.8426 91.5869 21.6835 91.7041 21.5662C91.8214 21.449 91.9805 21.3831 92.1463 21.3831H111.531C111.697 21.3831 111.856 21.449 111.974 21.5662C112.091 21.6835 112.157 21.8426 112.157 22.0084C112.157 22.1743 112.091 22.3333 111.974 22.4506C111.856 22.5679 111.697 22.6337 111.531 22.6337Z" fill="#DFEAEF"/>
<path id="Vector_19" d="M107.41 28.1429H92.1336C91.9678 28.1429 91.8087 28.077 91.6915 27.9598C91.5742 27.8425 91.5083 27.6834 91.5083 27.5176C91.5083 27.3518 91.5742 27.1927 91.6915 27.0754C91.8087 26.9582 91.9678 26.8923 92.1336 26.8923H107.41C107.576 26.8923 107.735 26.9582 107.853 27.0754C107.97 27.1927 108.036 27.3518 108.036 27.5176C108.036 27.6834 107.97 27.8425 107.853 27.9598C107.735 28.077 107.576 28.1429 107.41 28.1429Z" fill="#DFEAEF"/>
<path id="Vector_20" d="M51.7751 34.0773H66.1952V44.2138H51.7751V34.0773Z" fill="#DFEAEF"/>
<path id="Vector_21" d="M66.1953 44.8391H51.7752C51.6094 44.8391 51.4503 44.7733 51.3331 44.656C51.2158 44.5387 51.1499 44.3797 51.1499 44.2138V34.0773C51.1499 33.9114 51.2158 33.7524 51.3331 33.6351C51.4503 33.5178 51.6094 33.4519 51.7752 33.4519H66.1953C66.3611 33.4519 66.5202 33.5178 66.6375 33.6351C66.7547 33.7524 66.8206 33.9114 66.8206 34.0773V44.2138C66.8206 44.3797 66.7547 44.5387 66.6375 44.656C66.5202 44.7733 66.3611 44.8391 66.1953 44.8391ZM52.4006 43.5885H65.5699V34.7026H52.4006V43.5885Z" fill="#093F68"/>
<path id="Vector_22" d="M74.9873 34.0773H89.4074V44.2138H74.9873V34.0773Z" fill="#DFEAEF"/>
<path id="Vector_23" d="M89.4199 44.8391H74.9874C74.8215 44.8391 74.6625 44.7733 74.5452 44.656C74.4279 44.5387 74.3621 44.3797 74.3621 44.2138V34.0773C74.3621 33.9114 74.4279 33.7524 74.5452 33.6351C74.6625 33.5178 74.8215 33.4519 74.9874 33.4519H89.4199C89.5858 33.4519 89.7448 33.5178 89.8621 33.6351C89.9794 33.7524 90.0453 33.9114 90.0453 34.0773V44.2138C90.0453 44.3797 89.9794 44.5387 89.8621 44.656C89.7448 44.7733 89.5858 44.8391 89.4199 44.8391ZM75.6252 43.5885H88.7946V34.7026H75.6127L75.6252 43.5885Z" fill="#093F68"/>
<path id="Vector_24" d="M98.1995 34.0773H112.62V44.2138H98.1995V34.0773Z" fill="#DFEAEF"/>
<path id="Vector_25" d="M112.619 44.8391H98.1744C98.0086 44.8391 97.8495 44.7733 97.7322 44.656C97.615 44.5387 97.5491 44.3797 97.5491 44.2138V34.0773C97.5491 33.9114 97.615 33.7524 97.7322 33.6351C97.8495 33.5178 98.0086 33.4519 98.1744 33.4519H112.619C112.785 33.4519 112.944 33.5178 113.062 33.6351C113.179 33.7524 113.245 33.9114 113.245 34.0773V44.2138C113.245 44.3797 113.179 44.5387 113.062 44.656C112.944 44.7733 112.785 44.8391 112.619 44.8391ZM98.8247 43.5885H111.994V34.7026H98.7997L98.8247 43.5885Z" fill="#093F68"/>
<path id="Vector_26" d="M62.0931 49.5729H55.8836C55.7178 49.5729 55.5587 49.507 55.4415 49.3898C55.3242 49.2725 55.2583 49.1134 55.2583 48.9476C55.2583 48.7817 55.3242 48.6227 55.4415 48.5054C55.5587 48.3881 55.7178 48.3223 55.8836 48.3223H62.0931C62.259 48.3223 62.418 48.3881 62.5353 48.5054C62.6526 48.6227 62.7185 48.7817 62.7185 48.9476C62.7185 49.1134 62.6526 49.2725 62.5353 49.3898C62.418 49.507 62.259 49.5729 62.0931 49.5729Z" fill="#DFEAEF"/>
<path id="Vector_27" d="M85.3052 49.5729H79.0894C78.9236 49.5729 78.7645 49.507 78.6473 49.3898C78.53 49.2725 78.4641 49.1134 78.4641 48.9476C78.4641 48.7817 78.53 48.6227 78.6473 48.5054C78.7645 48.3881 78.9236 48.3223 79.0894 48.3223H85.3052C85.471 48.3223 85.6301 48.3881 85.7474 48.5054C85.8646 48.6227 85.9305 48.7817 85.9305 48.9476C85.9305 49.1134 85.8646 49.2725 85.7474 49.3898C85.6301 49.507 85.471 49.5729 85.3052 49.5729Z" fill="#DFEAEF"/>
<path id="Vector_28" d="M108.517 49.5729H102.302C102.136 49.5729 101.977 49.507 101.859 49.3898C101.742 49.2725 101.676 49.1134 101.676 48.9476C101.676 48.7817 101.742 48.6227 101.859 48.5054C101.977 48.3881 102.136 48.3223 102.302 48.3223H108.517C108.683 48.3223 108.842 48.3881 108.96 48.5054C109.077 48.6227 109.143 48.7817 109.143 48.9476C109.143 49.1134 109.077 49.2725 108.96 49.3898C108.842 49.507 108.683 49.5729 108.517 49.5729Z" fill="#DFEAEF"/>
<path id="Vector_29" d="M43.058 18.4441H8.63377C6.79301 18.4441 5.30078 19.9363 5.30078 21.7771V78.8194C5.30078 80.6602 6.79301 82.1524 8.63377 82.1524H43.058C44.8988 82.1524 46.391 80.6602 46.391 78.8194V21.7771C46.391 19.9363 44.8988 18.4441 43.058 18.4441Z" fill="#ED4ABF"/>
<path id="Vector_30" d="M43.0518 82.7778H8.6588C8.13471 82.7802 7.61532 82.6789 7.13057 82.4797C6.64582 82.2805 6.2053 81.9873 5.83442 81.617C5.46354 81.2467 5.16963 80.8066 4.96965 80.3222C4.76966 79.8378 4.66755 79.3185 4.66921 78.7944V21.7771C4.67251 20.7272 5.09147 19.7214 5.83444 18.9796C6.5774 18.2378 7.5839 17.8204 8.63378 17.8188H43.0268C44.0772 17.8188 45.0846 18.2356 45.828 18.9777C46.5713 19.7199 46.9897 20.7267 46.9914 21.7771V78.7944C46.9964 79.8448 46.5843 80.8543 45.8457 81.6011C45.107 82.348 44.1022 82.7711 43.0518 82.7778ZM8.6588 19.0694C7.9401 19.0694 7.25075 19.3545 6.74197 19.8621C6.23319 20.3697 5.94653 21.0584 5.94488 21.7771V78.7944C5.94818 79.5126 6.23537 80.2004 6.74379 80.7076C7.25221 81.2149 7.94061 81.5005 8.6588 81.5021H43.0518C43.77 81.5005 44.4584 81.2149 44.9668 80.7076C45.4752 80.2004 45.7624 79.5126 45.7657 78.7944V21.7771C45.7641 21.0584 45.4774 20.3697 44.9686 19.8621C44.4599 19.3545 43.7705 19.0694 43.0518 19.0694H8.6588Z" fill="#093F68"/>
<path id="Vector_31" d="M41.3259 26.8985H10.366C9.48186 26.8985 8.76514 27.6152 8.76514 28.4994V71.0717C8.76514 71.9558 9.48186 72.6725 10.366 72.6725H41.3259C42.21 72.6725 42.9268 71.9558 42.9268 71.0717V28.4994C42.9268 27.6152 42.21 26.8985 41.3259 26.8985Z" fill="white"/>
<g id="Group">
<path id="Vector_32" d="M41.3198 73.2979H10.3661C9.77565 73.2979 9.20941 73.0633 8.79192 72.6458C8.37444 72.2283 8.13989 71.6621 8.13989 71.0717V28.4994C8.13989 27.909 8.37444 27.3428 8.79192 26.9253C9.20941 26.5078 9.77565 26.2732 10.3661 26.2732H41.3198C41.9108 26.2732 42.4776 26.5076 42.8961 26.9249C43.3146 27.3422 43.5505 27.9084 43.5522 28.4994V71.0717C43.5522 71.3646 43.4944 71.6546 43.3821 71.9251C43.2699 72.1956 43.1053 72.4412 42.8979 72.648C42.6906 72.8548 42.4444 73.0187 42.1736 73.1302C41.9028 73.2417 41.6126 73.2987 41.3198 73.2979ZM10.3661 27.5176C10.1073 27.5176 9.85921 27.6204 9.67627 27.8034C9.49333 27.9863 9.39055 28.2344 9.39055 28.4931V71.0654C9.39055 71.3242 9.49333 71.5723 9.67627 71.7552C9.85921 71.9382 10.1073 72.041 10.3661 72.041H41.3198C41.4484 72.0418 41.5759 72.0172 41.695 71.9685C41.8141 71.9198 41.9224 71.8481 42.0136 71.7575C42.1049 71.6668 42.1773 71.559 42.2267 71.4402C42.2761 71.3214 42.3015 71.1941 42.3015 71.0654V28.4994C42.3015 28.3708 42.2761 28.2434 42.2267 28.1246C42.1773 28.0059 42.1049 27.8981 42.0136 27.8074C41.9224 27.7167 41.8141 27.645 41.695 27.5963C41.5759 27.5477 41.4484 27.5231 41.3198 27.5239L10.3661 27.5176Z" fill="#093F68"/>
<path id="Vector_33" d="M20.5402 22.5274C20.8372 22.5274 21.078 22.2866 21.078 21.9896C21.078 21.6926 20.8372 21.4518 20.5402 21.4518C20.2432 21.4518 20.0024 21.6926 20.0024 21.9896C20.0024 22.2866 20.2432 22.5274 20.5402 22.5274Z" fill="#093F68"/>
<path id="Vector_34" d="M31.6836 22.615H23.1353C22.9695 22.615 22.8104 22.5491 22.6932 22.4319C22.5759 22.3146 22.51 22.1555 22.51 21.9897C22.51 21.8238 22.5759 21.6648 22.6932 21.5475C22.8104 21.4302 22.9695 21.3644 23.1353 21.3644H31.7148C31.8807 21.3644 32.0397 21.4302 32.157 21.5475C32.2743 21.6648 32.3402 21.8238 32.3402 21.9897C32.3402 22.1555 32.2743 22.3146 32.157 22.4319C32.0397 22.5491 31.8807 22.615 31.7148 22.615H31.6836Z" fill="#093F68"/>
<path id="Vector_35" d="M25.8429 80.4766C27.0896 80.4766 28.1003 79.4659 28.1003 78.2192C28.1003 76.9724 27.0896 75.9617 25.8429 75.9617C24.5961 75.9617 23.5854 76.9724 23.5854 78.2192C23.5854 79.4659 24.5961 80.4766 25.8429 80.4766Z" fill="#093F68"/>
</g>
<path id="Vector_36" d="M12.9048 31.8199H38.8371V48.166H12.9048V31.8199Z" fill="#0B105F"/>
<path id="Vector_37" d="M38.8434 48.7788H12.9049C12.739 48.7788 12.58 48.7129 12.4627 48.5956C12.3454 48.4784 12.2795 48.3193 12.2795 48.1535V31.8199C12.2795 31.6541 12.3454 31.495 12.4627 31.3777C12.58 31.2605 12.739 31.1946 12.9049 31.1946H38.8434C39.0093 31.1946 39.1683 31.2605 39.2856 31.3777C39.4029 31.495 39.4688 31.6541 39.4688 31.8199V48.1535C39.4688 48.3193 39.4029 48.4784 39.2856 48.5956C39.1683 48.7129 39.0093 48.7788 38.8434 48.7788ZM13.5302 47.5281H38.2181V32.4453H13.5302V47.5281Z" fill="#093F68"/>
<path id="Vector_38" d="M36.1169 62.7672H15.625C14.1226 62.7672 12.9048 63.9851 12.9048 65.4874C12.9048 66.9897 14.1226 68.2076 15.625 68.2076H36.1169C37.6192 68.2076 38.8371 66.9897 38.8371 65.4874C38.8371 63.9851 37.6192 62.7672 36.1169 62.7672Z" fill="#DFEAEF"/>
<path id="Vector_39" d="M36.1168 68.8392H15.6311C14.768 68.8019 13.9527 68.4328 13.3551 67.8089C12.7576 67.185 12.4241 66.3545 12.4241 65.4906C12.4241 64.6267 12.7576 63.7962 13.3551 63.1723C13.9527 62.5484 14.768 62.1793 15.6311 62.142H36.1231C36.575 62.1224 37.0262 62.1946 37.4495 62.3541C37.8728 62.5135 38.2594 62.757 38.5861 63.0699C38.9128 63.3828 39.1728 63.7585 39.3504 64.1746C39.528 64.5906 39.6196 65.0383 39.6196 65.4906C39.6196 65.9429 39.528 66.3906 39.3504 66.8066C39.1728 67.2226 38.9128 67.5984 38.5861 67.9113C38.2594 68.2242 37.8728 68.4677 37.4495 68.6271C37.0262 68.7866 36.575 68.8588 36.1231 68.8392H36.1168ZM15.6311 63.3926C15.0945 63.4219 14.5895 63.6557 14.22 64.046C13.8505 64.4362 13.6446 64.9532 13.6446 65.4906C13.6446 66.028 13.8505 66.545 14.22 66.9352C14.5895 67.3255 15.0945 67.5593 15.6311 67.5886H36.1231C36.4082 67.6041 36.6935 67.5614 36.9616 67.463C37.2297 67.3646 37.4749 67.2126 37.6823 67.0163C37.8896 66.8199 38.0548 66.5834 38.1677 66.3211C38.2805 66.0587 38.3387 65.7762 38.3387 65.4906C38.3387 65.205 38.2805 64.9225 38.1677 64.6601C38.0548 64.3978 37.8896 64.1613 37.6823 63.9649C37.4749 63.7686 37.2297 63.6166 36.9616 63.5182C36.6935 63.4198 36.4082 63.377 36.1231 63.3926H15.6311Z" fill="#093F68"/>
<path id="Vector_40" d="M38.8434 53.3624H12.9049C12.739 53.3624 12.58 53.2965 12.4627 53.1793C12.3454 53.062 12.2795 52.9029 12.2795 52.7371C12.2795 52.5713 12.3454 52.4122 12.4627 52.2949C12.58 52.1777 12.739 52.1118 12.9049 52.1118H38.8434C39.0093 52.1118 39.1683 52.1777 39.2856 52.2949C39.4029 52.4122 39.4688 52.5713 39.4688 52.7371C39.4688 52.9029 39.4029 53.062 39.2856 53.1793C39.1683 53.2965 39.0093 53.3624 38.8434 53.3624Z" fill="#DFEAEF"/>
<path id="Vector_41" d="M33.0091 58.3776H12.9049C12.739 58.3776 12.58 58.3117 12.4627 58.1944C12.3454 58.0771 12.2795 57.9181 12.2795 57.7522C12.2795 57.5864 12.3454 57.4273 12.4627 57.3101C12.58 57.1928 12.739 57.1269 12.9049 57.1269H33.0091C33.175 57.1269 33.334 57.1928 33.4513 57.3101C33.5686 57.4273 33.6345 57.5864 33.6345 57.7522C33.6345 57.9181 33.5686 58.0771 33.4513 58.1944C33.334 58.3117 33.175 58.3776 33.0091 58.3776Z" fill="#DFEAEF"/>
<path id="Vector_42" d="M30.3389 46.6088C30.2486 46.6088 30.1593 46.5893 30.0773 46.5515C29.9952 46.5137 29.9223 46.4586 29.8636 46.39L22.0345 37.379L13.7552 46.0335C13.6399 46.153 13.482 46.2217 13.316 46.2246C13.1501 46.2275 12.9898 46.1644 12.8704 46.0492C12.751 45.9339 12.6822 45.7759 12.6793 45.61C12.6764 45.4441 12.7395 45.2837 12.8547 45.1643L21.6093 36.0158C21.6679 35.9523 21.7389 35.9017 21.818 35.867C21.8972 35.8324 21.9826 35.8145 22.0689 35.8145C22.1553 35.8145 22.2407 35.8324 22.3198 35.867C22.3989 35.9017 22.47 35.9523 22.5286 36.0158L30.8079 45.5458C30.9164 45.671 30.9708 45.8343 30.9591 45.9996C30.9474 46.1649 30.8705 46.3188 30.7454 46.4275C30.6367 46.5358 30.492 46.6003 30.3389 46.6088Z" fill="#093F68"/>
<path id="Vector_43" d="M38.8372 44.9079C38.6903 44.9064 38.5486 44.8533 38.437 44.7578L33.0404 40.1804L28.8757 44.245C28.7563 44.3611 28.5957 44.425 28.4292 44.4227C28.2626 44.4203 28.1039 44.3519 27.9878 44.2325C27.8717 44.1131 27.8078 43.9525 27.8101 43.786C27.8125 43.6194 27.8809 43.4607 28.0003 43.3446L32.5714 38.886C32.6867 38.7805 32.8373 38.722 32.9935 38.722C33.1498 38.722 33.3003 38.7805 33.4156 38.886L39.2437 43.8261C39.3432 43.9086 39.4148 44.0199 39.4485 44.1447C39.4822 44.2696 39.4763 44.4018 39.4317 44.5232C39.3872 44.6446 39.3061 44.7491 39.1996 44.8225C39.0931 44.8959 38.9665 44.9345 38.8372 44.9329V44.9079Z" fill="#093F68"/>
<path id="Vector_44" d="M0.998539 82.7777C0.856061 82.7712 0.720086 82.7162 0.613172 82.6218C0.506258 82.5274 0.434833 82.3993 0.410735 82.2587C0.395605 82.1755 0.39749 82.0902 0.416279 82.0078C0.435068 81.9253 0.470369 81.8476 0.52005 81.7792C0.56973 81.7108 0.632758 81.6532 0.705327 81.6099C0.777895 81.5665 0.858498 81.5384 0.942262 81.5271C1.56759 81.402 104.446 81.4895 135.95 81.5271C136.116 81.5271 136.275 81.5929 136.393 81.7102C136.51 81.8275 136.576 81.9865 136.576 82.1524C136.576 82.3182 136.51 82.4773 136.393 82.5946C136.275 82.7118 136.116 82.7777 135.95 82.7777C134.618 82.7777 2.94331 82.6652 1.1111 82.7777H0.998539Z" fill="#093F68"/>
<path id="Vector_45" d="M134.243 50.2982H115.815C114.876 50.2982 114.114 51.0597 114.114 51.9991V65.2748C114.114 66.2142 114.876 66.9757 115.815 66.9757H134.243C135.183 66.9757 135.944 66.2142 135.944 65.2748V51.9991C135.944 51.0597 135.183 50.2982 134.243 50.2982Z" fill="white"/>
<path id="Vector_46" d="M134.25 67.601H115.815C115.199 67.5994 114.608 67.3538 114.172 66.9179C113.736 66.482 113.49 65.8913 113.489 65.2748V51.9991C113.49 51.3827 113.736 50.792 114.172 50.3561C114.608 49.9202 115.199 49.6745 115.815 49.6729H134.25C134.866 49.6745 135.457 49.9202 135.893 50.3561C136.329 50.792 136.574 51.3827 136.576 51.9991V65.2748C136.574 65.8913 136.329 66.482 135.893 66.9179C135.457 67.3538 134.866 67.5994 134.25 67.601ZM115.815 50.9236C115.674 50.9236 115.534 50.9514 115.403 51.0054C115.273 51.0595 115.154 51.1387 115.054 51.2386C114.955 51.3385 114.875 51.457 114.821 51.5875C114.767 51.718 114.739 51.8579 114.739 51.9991V65.2748C114.739 65.4161 114.767 65.5559 114.821 65.6864C114.875 65.8169 114.955 65.9355 115.054 66.0354C115.154 66.1352 115.273 66.2145 115.403 66.2685C115.534 66.3226 115.674 66.3504 115.815 66.3504H134.25C134.535 66.3504 134.808 66.2371 135.01 66.0354C135.212 65.8337 135.325 65.5601 135.325 65.2748V51.9991C135.325 51.7139 135.212 51.4403 135.01 51.2386C134.808 51.0369 134.535 50.9236 134.25 50.9236H115.815Z" fill="#093F68"/>
<path id="Vector_47" d="M132.155 55.3634H118.773C118.607 55.3634 118.448 55.2976 118.331 55.1803C118.213 55.063 118.147 54.904 118.147 54.7381C118.147 54.5723 118.213 54.4132 118.331 54.2959C118.448 54.1787 118.607 54.1128 118.773 54.1128H132.155C132.321 54.1128 132.48 54.1787 132.597 54.2959C132.714 54.4132 132.78 54.5723 132.78 54.7381C132.78 54.904 132.714 55.063 132.597 55.1803C132.48 55.2976 132.321 55.3634 132.155 55.3634Z" fill="#DFEAEF"/>
<path id="Vector_48" d="M132.155 59.2592H118.773C118.607 59.2592 118.448 59.1933 118.331 59.0761C118.213 58.9588 118.147 58.7997 118.147 58.6339C118.147 58.468 118.213 58.309 118.331 58.1917C118.448 58.0744 118.607 58.0086 118.773 58.0086H132.155C132.321 58.0086 132.48 58.0744 132.597 58.1917C132.714 58.309 132.78 58.468 132.78 58.6339C132.78 58.7997 132.714 58.9588 132.597 59.0761C132.48 59.1933 132.321 59.2592 132.155 59.2592Z" fill="#DFEAEF"/>
<path id="Vector_49" d="M128.49 63.1613H118.773C118.607 63.1613 118.448 63.0954 118.331 62.9781C118.213 62.8608 118.147 62.7018 118.147 62.5359C118.147 62.3701 118.213 62.211 118.331 62.0938C118.448 61.9765 118.607 61.9106 118.773 61.9106H128.49C128.656 61.9106 128.815 61.9765 128.933 62.0938C129.05 62.211 129.116 62.3701 129.116 62.5359C129.116 62.7018 129.05 62.8608 128.933 62.9781C128.815 63.0954 128.656 63.1613 128.49 63.1613Z" fill="#DFEAEF"/>
<path id="Vector_50" d="M139.015 63.9991L131.379 71.6344L127.046 59.6656L139.015 63.9991Z" fill="white"/>
<path id="Vector_51" d="M131.379 72.2598H131.242C131.14 72.237 131.045 72.189 130.966 72.1201C130.888 72.0513 130.828 71.9639 130.792 71.8658L126.458 59.897C126.418 59.7854 126.41 59.6645 126.436 59.5486C126.462 59.4328 126.52 59.3266 126.604 59.2427C126.688 59.1587 126.794 59.1004 126.91 59.0745C127.026 59.0487 127.147 59.0563 127.258 59.0966L139.227 63.4301C139.317 63.4698 139.396 63.5298 139.458 63.6055C139.52 63.6812 139.563 63.7703 139.584 63.8658C139.606 63.9613 139.604 64.0605 139.58 64.1553C139.556 64.2502 139.51 64.338 139.446 64.4119L131.811 72.0472C131.756 72.1093 131.69 72.1601 131.616 72.1966C131.542 72.2331 131.462 72.2546 131.379 72.2598ZM128.09 60.71L131.636 70.4963L137.889 64.2431L128.09 60.71Z" fill="#093F68"/>
<path id="Vector_52" d="M135.2 67.8137L137.77 70.3838L135.2 67.8137Z" fill="white"/>
<path id="Vector_53" d="M137.77 71.0091C137.688 71.0096 137.606 70.9938 137.53 70.9627C137.454 70.9316 137.385 70.8857 137.326 70.8278L134.756 68.2577C134.697 68.1995 134.651 68.1304 134.619 68.0542C134.587 67.978 134.571 67.8962 134.571 67.8137C134.571 67.7311 134.587 67.6494 134.619 67.5732C134.651 67.497 134.697 67.4278 134.756 67.3697C134.873 67.2532 135.032 67.1879 135.197 67.1879C135.362 67.1879 135.521 67.2532 135.638 67.3697L138.208 69.9461C138.324 70.0632 138.39 70.2217 138.39 70.3869C138.39 70.5521 138.324 70.7106 138.208 70.8278C138.091 70.9433 137.934 71.0084 137.77 71.0091Z" fill="#093F68"/>
</g>
</svg>
