<svg width="341" height="257" viewBox="0 0 341 257" fill="none" xmlns="http://www.w3.org/2000/svg">
<g clip-path="url(#clip0_88_2688)">
<path opacity="0.18" d="M136.55 14.2996L125.788 11.5636C110.073 7.69675 93.1642 3.8846 78.0518 9.67579C65.7758 14.4091 56.6737 24.7694 48.0824 34.6737C36.7823 47.7517 25.4001 60.9483 16.9729 76.051C-2.90027 111.674 -5.88262 162.344 10.9991 199.399C17.7208 214.164 26.7226 228.501 40.1842 237.621C54.2021 247.133 71.932 250.051 88.7955 248.473C105.659 246.896 121.857 241.132 137.361 234.474C154.69 227.05 173.049 218.25 191.545 221.861C201.204 223.74 209.859 228.884 218.541 233.507C233.809 241.642 250.134 248.51 267.372 250.005C284.609 251.501 302.941 247.051 315.427 235.049C327.566 223.357 332.755 206.239 335.637 189.64C338.702 172.408 339.386 154.837 337.671 137.419C336.029 120.511 343.143 104.542 340.334 87.1865C338.118 73.5886 331.013 60.4102 319.449 52.9136C305.102 43.6203 286.752 44.3043 269.661 44.7056C255.141 45.0461 240.622 44.9488 226.102 44.4138C217.201 44.0946 208.181 43.5747 199.717 40.7658C190.049 37.5829 181.586 31.6458 172.529 26.9855C161.193 21.2034 148.935 17.4734 136.55 14.2996Z" fill="#ED4ABF"/>
<path d="M158.767 89.4391L166.975 62.6446C168.033 57.5101 168.498 51.4544 169.082 46.2287C169.372 44.522 169.357 42.7772 169.036 41.0759C168.507 38.8597 167.021 36.4612 168.206 34.5095C169.392 32.5578 172.684 32.877 174.7 34.2268C177.482 36.0508 179.342 40.2277 177.135 42.7448C176.449 43.3336 175.806 43.9705 175.211 44.6509C174.454 45.8183 174.663 47.3869 174.809 48.7275C175.484 55.1115 174.153 61.4955 172.839 67.8795L169.191 85.3351C168.279 89.585 166.875 94.4551 162.807 96.0329C162.51 96.1776 162.187 96.2589 161.857 96.2715C161.527 96.284 161.198 96.2276 160.892 96.1058C160.527 95.897 160.214 95.6067 159.98 95.2577C159.04 93.7711 158.867 91.2175 158.767 89.4391Z" fill="#C1A7A7"/>
<path d="M158.767 89.4391L166.975 62.6446C168.033 57.5101 168.498 51.4544 169.082 46.2287C169.372 44.522 169.357 42.7772 169.036 41.0759C168.507 38.8597 167.021 36.4612 168.206 34.5095C169.392 32.5578 172.684 32.877 174.7 34.2268C177.482 36.0508 179.342 40.2277 177.135 42.7448C176.449 43.3336 175.806 43.9705 175.211 44.6509C174.454 45.8183 174.663 47.3869 174.809 48.7275C175.484 55.1115 174.153 61.4955 172.839 67.8795L169.191 85.3351C168.279 89.585 166.875 94.4551 162.807 96.0329C162.51 96.1776 162.187 96.2589 161.857 96.2715C161.527 96.284 161.198 96.2276 160.892 96.1058C160.527 95.897 160.214 95.6067 159.98 95.2577C159.04 93.7711 158.867 91.2175 158.767 89.4391Z" fill="url(#paint0_linear_88_2688)"/>
<path d="M206.01 157.739C206.088 162.872 205.155 167.971 203.263 172.744C201.371 177.517 198.557 181.871 194.982 185.556C191.407 189.242 187.141 192.187 182.428 194.224C177.715 196.262 172.647 197.35 167.513 197.429C162.379 197.507 157.28 196.574 152.507 194.682C147.734 192.79 143.38 189.976 139.694 186.401C136.009 182.827 133.063 178.561 131.026 173.848C128.989 169.135 127.9 164.067 127.821 158.933C127.821 158.532 127.821 158.14 127.821 157.739C127.802 156.74 127.841 155.741 127.94 154.747C128.697 144.656 133.337 135.251 140.887 128.512C148.436 121.772 158.304 118.222 168.417 118.61C178.53 118.997 188.098 123.292 195.109 130.589C202.12 137.887 206.028 147.619 206.01 157.739Z" fill="#ED4ABF"/>
<path opacity="0.14" d="M150.485 175.495C149.19 181.15 150.768 187.169 149.573 192.823C140.542 188.362 133.577 180.591 130.129 171.127C129.937 169.183 129.983 167.223 130.266 165.29C130.53 163.211 130.913 161.058 130.33 159.043C129.765 157.495 128.945 156.052 127.904 154.775C128.336 149.059 130.022 143.509 132.844 138.52C135.666 133.531 139.553 129.225 144.229 125.91C144.275 126.172 144.275 126.441 144.229 126.703L142.551 134.145C142.888 136.352 142.888 138.596 142.551 140.803C142.372 141.905 141.952 142.955 141.322 143.877C140.691 144.799 139.865 145.571 138.903 146.138C138.182 146.439 137.481 146.786 136.805 147.178C136.151 147.704 135.609 148.355 135.209 149.093C134.125 150.598 133.319 152.284 132.828 154.072C132.587 154.966 132.573 155.905 132.788 156.806C133.003 157.706 133.44 158.538 134.06 159.225L145.004 157.109C146.144 156.89 147.521 156.735 148.306 157.593C149.218 158.614 148.652 160.256 148.862 161.633C149.117 163.393 150.686 164.661 151.416 166.302C152.738 169.157 151.197 172.413 150.485 175.495Z" fill="#020202"/>
<path opacity="0.14" d="M140.563 130.333C139.003 132.157 137.389 134.1 136.914 136.444C136.767 136.947 136.767 137.482 136.914 137.985C137.124 138.382 137.416 138.73 137.769 139.006C138.123 139.283 138.531 139.482 138.966 139.59C142.673 141.013 146.626 141.689 150.595 141.578C150.367 143.812 150.267 146.403 151.899 147.962C152.516 148.501 153.232 148.916 154.006 149.184C156.464 150.152 159.065 150.707 161.703 150.826C163.911 150.926 166.145 150.707 168.352 150.953C171.077 151.252 173.683 152.23 175.931 153.799C176.508 154.147 176.983 154.641 177.308 155.231C177.547 155.868 177.643 156.55 177.591 157.228C177.607 159.627 177.913 162.016 178.503 164.342C179.096 166.603 180.054 168.902 181.951 170.279C182.955 170.925 184.049 171.42 185.197 171.747L192.995 174.41C193.184 174.496 193.396 174.515 193.597 174.465C193.789 174.362 193.938 174.194 194.017 173.99C194.883 172.294 195.741 170.415 195.385 168.518C195.029 166.622 193.561 165.244 192.877 163.502C191.755 160.766 192.63 157.52 191.709 154.693C191.053 152.979 190.014 151.438 188.672 150.187C186.418 147.963 184.02 145.888 181.495 143.977C177.482 140.803 173.414 137.593 168.726 135.477C166.847 134.62 164.75 133.844 163.664 132.093C162.36 129.987 162.926 127.096 161.521 125.053C160.372 123.393 158.21 122.754 156.195 122.645C152.859 122.545 149.554 123.318 146.609 124.888C143.955 126.229 142.496 128.062 140.563 130.333Z" fill="#020202"/>
<path opacity="0.14" d="M206.01 157.739C206.017 163.651 204.68 169.488 202.1 174.807C199.52 180.127 195.764 184.791 191.117 188.446C190.577 188.092 190.115 187.633 189.758 187.096C188.59 185.327 188.973 182.536 190.861 181.533C190.204 181.879 187.623 181.031 186.848 180.913L182.826 180.292C180.902 179.991 177.536 180.119 176.442 178.177C176.318 177.907 176.169 177.651 175.995 177.41C175.755 177.166 175.47 176.971 175.156 176.836C173.943 176.243 172.529 175.577 172.237 174.255C172.037 173.288 172.52 172.194 172.019 171.337C171.863 171.072 171.626 170.862 171.471 170.598C171.302 170.2 171.239 169.765 171.287 169.335C171.335 168.906 171.492 168.496 171.745 168.145C173.441 165.181 176.953 163.74 180.327 163.174C183.702 162.609 187.186 162.691 190.469 161.742C192.539 161.14 194.509 160.137 196.643 159.845C197.82 159.681 199.297 159.554 199.726 158.45C199.963 157.821 199.726 157.091 199.972 156.462C200.073 156.188 200.255 155.951 200.355 155.678C200.421 155.476 200.446 155.263 200.429 155.052C200.412 154.84 200.354 154.634 200.257 154.445C200.161 154.256 200.028 154.088 199.866 153.951C199.705 153.813 199.518 153.709 199.316 153.644C199.214 153.614 199.111 153.592 199.006 153.58C199.279 152.85 199.498 151.911 198.924 151.391C198.721 151.243 198.487 151.146 198.239 151.108C197.991 151.07 197.738 151.092 197.501 151.172C196.096 151.519 195.084 152.704 193.907 153.543C190.004 156.279 184.65 155.367 181.394 152.066C180.866 151.6 180.488 150.987 180.309 150.306C180.258 149.724 180.39 149.141 180.685 148.638C180.981 148.134 181.427 147.735 181.96 147.497C183.029 147.041 184.181 146.814 185.343 146.831C184.915 143.995 184.431 141.149 184.039 138.322C177.545 140.064 174.919 133.872 174.007 128.728C173.095 123.584 176.743 121.742 181.449 121.432C188.701 124.338 194.917 129.35 199.295 135.821C203.672 142.292 206.011 149.926 206.01 157.739Z" fill="#020202"/>
<path d="M177.235 175.085C177.235 177.237 180.71 179.271 182.407 179.773C183.116 179.919 183.807 180.143 184.468 180.438C184.794 180.599 185.067 180.849 185.258 181.159C185.448 181.469 185.547 181.826 185.544 182.189C185.471 182.819 184.96 183.329 184.823 183.94C184.749 184.477 184.815 185.024 185.015 185.527C185.663 187.616 188.234 188.911 188.864 190.999C192.421 190.644 194.026 190.945 197.546 190.352L200.483 188.473C199.006 185.737 197.537 182.946 196.051 180.174C195.485 178.999 194.784 177.894 193.962 176.881C192.991 175.877 191.894 175.003 190.697 174.282C187.608 172.274 184.394 170.464 181.075 168.865C181.522 169.12 177.235 174.529 177.235 175.085Z" fill="url(#paint1_linear_88_2688)"/>
<path d="M179.315 165.317C178.95 166.503 178.622 167.898 179.315 168.892C179.653 169.311 180.102 169.626 180.61 169.804C181.202 170.094 181.863 170.211 182.518 170.141C183.173 170.072 183.795 169.819 184.313 169.412C184.859 168.809 185.245 168.079 185.435 167.287C186.356 164.393 187.021 161.424 187.423 158.414C187.496 158.139 187.496 157.849 187.423 157.574C187.268 157.284 187.021 157.053 186.72 156.918C185.143 156.07 182.671 155.386 181.786 157.274C180.628 159.745 180.099 162.736 179.315 165.317Z" fill="#C1A7A7"/>
<path d="M184.066 166.694C184.404 166.65 184.748 166.684 185.07 166.795C185.287 166.915 185.477 167.08 185.626 167.278L189.037 171.181C189.703 171.938 190.405 173.005 189.949 173.863C189.789 174.116 189.574 174.33 189.32 174.488C189.065 174.646 188.779 174.744 188.481 174.775C186.827 174.942 185.16 174.625 183.683 173.863C182.625 173.398 181.595 172.896 180.573 172.349C179.811 171.999 179.147 171.467 178.64 170.798C177.865 169.595 177.628 166.694 179.023 165.792C179.716 165.345 180.327 165.664 181.002 165.983C181.951 166.464 183.003 166.708 184.066 166.694Z" fill="#ED4ABF"/>
<path d="M198.258 178.596C198.284 178.818 198.259 179.042 198.185 179.253C198.067 179.46 197.897 179.633 197.692 179.754C197.041 180.205 196.276 180.464 195.485 180.502C195.093 180.52 194.702 180.447 194.343 180.289C193.984 180.131 193.666 179.891 193.415 179.59C193.05 179.003 192.831 178.337 192.776 177.648C192.488 176.163 192.344 174.654 192.348 173.142C192.327 173.054 192.327 172.962 192.347 172.873C192.366 172.784 192.406 172.701 192.462 172.629C192.517 172.558 192.589 172.5 192.67 172.459C192.751 172.418 192.841 172.396 192.931 172.394C194.163 172.13 196.58 171.482 197.236 173.005C197.867 174.804 198.211 176.691 198.258 178.596Z" fill="#C1A7A7"/>
<path d="M203.465 178.441C204.519 178.494 205.56 178.697 206.557 179.043C207.059 179.219 207.519 179.496 207.91 179.857C208.3 180.218 208.613 180.654 208.828 181.141C209.027 181.625 209.049 182.164 208.892 182.664C208.553 183.39 207.954 183.963 207.214 184.269C203.701 186.176 199.72 187.049 195.731 186.786C194.705 186.821 193.706 186.451 192.95 185.755C192.39 184.92 192.13 183.921 192.211 182.919L192.074 178.195C192.986 178.058 193.78 178.642 194.628 178.933C196.096 179.435 196.671 178.231 197.884 177.939C199.462 177.575 201.851 178.277 203.465 178.441Z" fill="#ED4ABF"/>
<path d="M184.066 166.694C184.404 166.65 184.748 166.684 185.07 166.795C185.287 166.915 185.477 167.08 185.626 167.278L189.037 171.181C189.703 171.938 190.405 173.005 189.949 173.863C189.789 174.116 189.574 174.33 189.32 174.488C189.065 174.646 188.779 174.744 188.481 174.775C186.827 174.942 185.16 174.625 183.683 173.863C182.625 173.398 181.595 172.896 180.573 172.349C179.811 171.999 179.147 171.467 178.64 170.798C177.865 169.595 177.628 166.694 179.023 165.792C179.716 165.345 180.327 165.664 181.002 165.983C181.951 166.464 183.003 166.708 184.066 166.694Z" fill="url(#paint2_linear_88_2688)"/>
<path d="M178.157 167.406C178.21 167.762 178.305 168.111 178.439 168.446C178.587 168.888 178.783 169.313 179.023 169.713C179.351 170.176 179.759 170.578 180.227 170.899C181.402 171.689 182.686 172.304 184.039 172.723C186.092 173.523 188.322 173.756 190.496 173.398C190.299 173.878 189.928 174.266 189.457 174.483C188.989 174.695 188.483 174.809 187.97 174.82C185.965 174.763 184.003 174.231 182.242 173.27L180.227 172.358C179.944 172.233 179.672 172.083 179.415 171.911C179.057 171.644 178.748 171.317 178.503 170.944C178.046 170.275 177.766 169.499 177.691 168.692C177.655 168.301 177.682 167.906 177.773 167.524C177.773 167.36 178.011 166.612 178.229 166.612C178.151 166.869 178.126 167.139 178.157 167.406Z" fill="#473F47"/>
<path d="M203.465 178.441C204.519 178.494 205.56 178.697 206.557 179.043C207.059 179.219 207.519 179.496 207.91 179.857C208.3 180.218 208.613 180.654 208.828 181.141C209.027 181.625 209.049 182.164 208.892 182.664C208.553 183.39 207.954 183.963 207.214 184.269C203.701 186.176 199.72 187.049 195.731 186.786C194.705 186.821 193.706 186.451 192.95 185.755C192.39 184.92 192.13 183.921 192.211 182.919L192.074 178.195C192.986 178.058 193.78 178.642 194.628 178.933C196.096 179.435 196.671 178.231 197.884 177.939C199.462 177.575 201.851 178.277 203.465 178.441Z" fill="url(#paint3_linear_88_2688)"/>
<path d="M190.834 126.266C191.859 126.457 192.809 126.938 193.57 127.652C194.482 128.637 194.482 130.096 194.482 131.428C194.462 140.972 192.688 150.432 189.247 159.335C189.169 159.663 189.025 159.972 188.825 160.243C188.624 160.514 188.37 160.742 188.079 160.912C187.554 161.067 186.992 161.041 186.483 160.839C184.422 160.264 182.391 159.582 180.4 158.797L183.091 140.657C183.219 140.15 183.191 139.615 183.009 139.125C182.809 138.784 182.531 138.496 182.197 138.286C179.126 136.012 175.878 133.987 172.484 132.23C169.748 130.835 166.683 129.248 165.944 126.256C165.793 125.756 165.762 125.226 165.854 124.711C165.945 124.196 166.158 123.71 166.473 123.292C166.9 122.866 167.405 122.525 167.96 122.289C169.784 121.377 172.019 120.237 174.089 120.465C175.731 120.629 176.369 121.605 177.737 122.289C181.604 124.305 186.684 125.034 190.834 126.266Z" fill="white"/>
<path d="M182.543 159.517C182.315 159.444 183.118 155.167 183.191 154.738C183.337 153.899 183.966 150.178 184.632 152.759C184.74 153.325 184.807 153.898 184.833 154.474C184.915 155.16 185.034 155.842 185.188 156.517C185.274 157.046 185.43 157.561 185.653 158.049C186.077 158.764 186.641 159.384 187.313 159.873C187.439 160.007 187.606 160.093 187.788 160.119C188.052 160.119 188.253 159.873 188.362 159.626C188.636 158.861 188.754 158.049 188.709 157.237C188.846 152.677 191.208 148.701 191.053 144.022C191.053 142.882 189.967 141.505 189.511 140.456C189.107 139.609 188.801 138.719 188.599 137.802C188.025 134.692 189.858 131.656 190.113 128.5L183.93 131.537L180.4 158.833L182.543 159.517Z" fill="url(#paint4_linear_88_2688)"/>
<path d="M166.473 123.603C165.234 124.296 163.958 124.923 162.652 125.481C162.305 125.636 161.959 125.782 161.603 125.919C157.588 127.571 153.225 128.198 148.908 127.743C148.47 127.688 148.032 127.615 147.594 127.524C145.106 127.126 142.828 125.891 141.137 124.022C139.122 121.605 138.647 118.24 138.52 115.075V114.163C138.408 110.218 138.714 106.271 139.432 102.389C140.176 97.7735 141.963 93.3881 144.658 89.5668C146.474 87.109 148.838 85.1076 151.562 83.7209C154.38 82.2891 157.718 81.5595 160.728 82.5535C162.289 83.1295 163.733 83.9856 164.987 85.0798C165.456 85.43 165.876 85.8409 166.236 86.3019C166.741 87.041 167.089 87.876 167.258 88.7551C168.507 94.2271 166.774 99.8177 165.434 105.253C164.695 108.354 164.129 111.765 165.543 114.61C167.559 118.632 172.438 120.274 166.473 123.603Z" fill="#ED4ABF"/>
<path d="M166.473 123.621C166.364 124.879 164.777 125.344 163.509 125.445L162.652 125.49C158.095 125.754 153.524 125.336 149.09 124.25C148.544 124.058 147.954 124.032 147.394 124.177C147.308 124.207 147.228 124.25 147.157 124.305V124.606C147.012 125.103 146.983 125.626 147.07 126.136C147.156 126.646 147.358 127.13 147.658 127.552C145.17 127.154 142.892 125.918 141.201 124.049C139.185 121.633 138.711 118.267 138.583 115.103V114.191C138.524 111.854 138.597 109.515 138.802 107.187C138.869 105.103 139.175 103.035 139.714 101.021C141.031 97.2012 143.372 93.8161 146.482 91.2358C146.771 90.9657 147.108 90.7523 147.476 90.6065C147.891 90.5032 148.324 90.4871 148.746 90.5593C149.169 90.6315 149.571 90.7904 149.929 91.026C150.552 91.3243 151.105 91.75 151.553 92.2754C152.128 93.0731 152.447 94.0278 152.465 95.0114C152.492 96.3429 152.373 97.6733 152.109 98.9786C151.836 100.932 151.415 102.862 150.85 104.752C150.579 105.442 150.374 106.156 150.239 106.886C150.129 107.824 150.294 108.775 150.713 109.622C151.051 110.388 151.106 111.19 151.379 111.993C151.943 113.643 152.847 115.156 154.033 116.434C156.505 119.038 159.764 120.755 163.309 121.323C164.047 121.387 164.771 121.569 165.452 121.861C165.766 122.034 166.026 122.289 166.206 122.599C166.386 122.909 166.478 123.262 166.473 123.621Z" fill="url(#paint5_linear_88_2688)"/>
<path d="M154.909 90.342C155.391 90.9504 155.996 91.4507 156.684 91.8105C157.373 92.1702 158.129 92.3815 158.904 92.4305C159.148 92.458 159.395 92.4034 159.606 92.2754C159.826 92.0517 159.951 91.7506 159.952 91.4364C160.025 90.8071 160.117 90.0046 160.18 89.202C160.244 88.3994 160.372 87.378 160.463 86.7396C160.647 84.9237 161.336 83.1957 162.451 81.751C162.679 81.4358 162.942 81.1481 163.236 80.8937C165.16 79.1609 157.335 79.8449 156.304 77.4828C155.119 79.0241 155.228 81.1855 154.699 83.0734C154.346 83.993 154.041 84.9306 153.787 85.8823C153.652 86.6628 153.683 87.4629 153.876 88.2309C154.069 88.999 154.421 89.7181 154.909 90.342Z" fill="#C1A7A7"/>
<path d="M160.08 89.5668L160.18 89.202C160.29 88.29 160.372 87.378 160.463 86.7396C160.647 84.9238 161.336 83.1957 162.451 81.751L162.506 81.5595C162.506 81.5595 156.304 77.4828 155.638 82.2526C154.973 87.0223 160.08 89.5668 160.08 89.5668Z" fill="url(#paint6_linear_88_2688)"/>
<path d="M166.546 78.9238C166.665 79.9129 166.481 80.9147 166.017 81.7966C165.77 82.1523 165.461 82.4612 165.105 82.7086C162.643 84.5326 158.94 84.1951 156.496 82.2708C155.309 81.2536 154.352 79.9958 153.689 78.5807C153.025 77.1656 152.67 75.6256 152.647 74.0628C152.475 72.4342 152.935 70.8016 153.933 69.5029C154.54 68.9143 155.284 68.4867 156.098 68.2589C156.911 68.0312 157.769 68.0105 158.593 68.1987C160.842 68.7277 162.89 69.8929 164.494 71.5549C166.072 73.3241 166.464 76.6894 166.546 78.9238Z" fill="#C1A7A7"/>
<path d="M188.909 138.924C190.189 140.577 191.196 142.425 191.892 144.396C195.78 153.951 198.3 164.006 199.38 174.264C196.197 174.665 192.977 174.665 189.794 174.264C189.544 166.997 188.439 159.785 186.502 152.777C186.165 151.277 185.579 149.844 184.769 148.537C183.355 146.448 181.029 145.244 178.795 144.113C173.649 141.559 168.263 139.518 162.716 138.021C160.381 137.365 158.028 136.772 155.73 135.978C153.748 135.388 151.893 134.435 150.257 133.169C149.44 132.53 148.76 131.733 148.255 130.826C147.751 129.919 147.433 128.921 147.321 127.889C147.321 128.418 158.94 127.889 160.025 127.725C163.673 127.333 167.942 125.217 171.535 126.712C174.344 127.88 176.907 130.315 179.433 131.993C182.635 134.081 186.429 136.033 188.909 138.924Z" fill="white"/>
<path d="M172.356 138.149L152.127 128.117L175.539 119.681L193.98 127.862L172.356 138.149Z" fill="#ED4ABF"/>
<path d="M172.465 136.626L155.584 128.245L175.129 121.204L190.533 128.035L172.465 136.626Z" fill="url(#paint7_linear_88_2688)"/>
<path d="M144.274 95.1756C144.229 95.5222 144.183 95.8687 144.147 96.2153C143.6 101.359 144.092 106.421 144.284 111.546C144.402 114.711 144.813 120.757 148.123 122.38C154.343 125.417 166.309 124.25 166.309 124.25C167.696 124.031 169.112 124.087 170.477 124.414C171.225 124.651 171.909 125.053 172.63 125.326C175.247 126.348 178.175 125.828 180.929 125.326C181.406 125.271 181.866 125.116 182.279 124.87C183.346 124.141 183.3 122.408 182.507 121.386C181.611 120.451 180.449 119.814 179.178 119.562C175.7 118.404 171.964 118.258 168.407 119.143C167.953 119.297 167.49 119.425 167.021 119.526C166.472 119.616 165.916 119.655 165.361 119.645H161.129C156.277 119.69 151.698 119.708 150.969 113.935C150.695 111.8 150.64 109.643 150.805 107.497C151.096 103.621 152.091 99.7812 151.881 95.8961C151.86 94.6641 151.547 93.4547 150.969 92.3666C150.684 91.8303 150.266 91.3765 149.755 91.0489C149.244 90.7214 148.656 90.5314 148.05 90.4971C147.415 90.5461 146.804 90.7604 146.278 91.1188C145.751 91.4772 145.328 91.9671 145.05 92.5399C144.644 93.3681 144.381 94.2594 144.274 95.1756Z" fill="#C1A7A7"/>
<path d="M201.578 109.403L175.803 122.727L172.356 138.149L193.98 127.862L201.578 109.403Z" fill="#ED4ABF"/>
<path d="M166.82 67.9798C166.707 67.8211 166.568 67.6824 166.41 67.5694C166.583 67.4923 166.728 67.363 166.824 67.1995C166.921 67.036 166.964 66.8465 166.948 66.6574C166.893 66.2744 166.619 66.247 166.346 66.092C166.072 65.9369 166.218 65.7728 166.026 65.4718C165.889 65.2994 165.689 65.188 165.47 65.1617L163.537 64.6693C163.537 64.423 163.6 64.1312 163.418 63.967C163.236 63.8029 162.716 63.967 162.342 63.8758C161.813 63.7937 161.576 63.1736 161.193 62.7905C160.335 61.9424 159.77 62.7905 158.995 62.9273C158.219 63.0641 157.909 62.2342 157.016 62.1157C156.316 62.0626 155.614 62.159 154.954 62.3984C154.225 62.564 153.548 62.9088 152.984 63.4016C152.592 63.8472 152.283 64.3601 152.072 64.9155C151.852 64.7505 151.575 64.679 151.302 64.7166C151.029 64.7541 150.781 64.8976 150.613 65.1161L150.531 65.2529C150.358 65.6269 150.422 66.092 150.175 66.4112C149.99 66.3929 149.804 66.3929 149.619 66.4112C149.435 66.459 149.264 66.5462 149.117 66.6665C148.968 66.7943 148.848 66.9523 148.765 67.1299C148.682 67.3076 148.637 67.5009 148.634 67.6971C148.349 67.627 148.048 67.6493 147.777 67.7609C147.923 67.4968 148.025 67.2102 148.078 66.9128C148.109 66.8013 148.113 66.6835 148.087 66.5704C148.062 66.4573 148.008 66.3524 147.932 66.2653C147.749 66.1193 147.394 66.2653 147.467 66.5024C147.506 66.4108 147.526 66.3124 147.527 66.2128C147.528 66.1132 147.51 66.0144 147.472 65.9221C147.435 65.8297 147.38 65.7456 147.31 65.6746C147.24 65.6036 147.157 65.5471 147.065 65.5083C146.874 65.4454 146.67 65.4359 146.473 65.4809C146.277 65.5259 146.097 65.6237 145.953 65.7637C145.816 65.636 146.053 65.3989 145.998 65.2165C145.973 65.1529 145.932 65.0965 145.88 65.0523C145.636 64.8219 145.355 64.6339 145.05 64.496C144.902 64.4319 144.739 64.4083 144.579 64.4275C144.419 64.4467 144.266 64.5081 144.138 64.6054C144.028 63.9305 143.445 62.9 142.605 63.1006C142.359 63.1553 142.149 63.4472 142.277 63.6752C141.979 63.3502 141.615 63.0927 141.209 62.9197C140.803 62.7467 140.365 62.6622 139.924 62.672C139.623 62.672 139.213 62.9182 139.368 63.1827C138.98 62.8939 138.537 62.6868 138.067 62.5739C137.597 62.461 137.108 62.4448 136.632 62.5261C136.547 62.523 136.463 62.5458 136.391 62.5914C136.32 62.637 136.264 62.7032 136.23 62.7814C136.185 62.9365 136.449 63.1097 136.513 62.9547C136.274 62.9183 136.029 62.9484 135.805 63.0417C135.582 63.135 135.388 63.2878 135.245 63.4837C135.01 63.752 134.884 64.0996 134.895 64.4566C134.905 64.8135 135.05 65.1535 135.3 65.408C135.856 65.864 136.914 65.408 136.768 64.6693C136.967 64.9133 137.247 65.0772 137.557 65.1308C137.868 65.1845 138.187 65.1242 138.456 64.9611C138.526 65.3236 138.738 65.6434 139.044 65.8503C139.35 66.0571 139.725 66.1342 140.088 66.0646C140.259 66.0297 140.423 65.9648 140.572 65.8731C140.655 66.224 140.837 66.544 141.095 66.7958C141.353 67.0477 141.678 67.2211 142.031 67.2958C142.739 67.4327 143.466 67.4327 144.174 67.2958C143.992 67.4526 143.777 67.5647 143.544 67.6233C143.311 67.6819 143.068 67.6853 142.833 67.6333C142.609 67.5787 142.374 67.5787 142.149 67.6333C141.909 67.7615 141.695 67.9349 141.52 68.144C141.485 68.1822 141.445 68.2159 141.402 68.2443C141.289 68.2919 141.168 68.3165 141.046 68.3165C140.924 68.3165 140.803 68.2919 140.69 68.2443C140.371 68.1345 140.024 68.1345 139.705 68.2443C139.549 68.3053 139.417 68.416 139.33 68.5594C139.242 68.7027 139.204 68.8708 139.222 69.0377C139.023 68.9965 138.818 68.9949 138.618 69.0331C138.419 69.0713 138.229 69.1486 138.06 69.2605C137.89 69.3723 137.744 69.5166 137.631 69.685C137.517 69.8533 137.438 70.0425 137.398 70.2416C137.375 70.3927 137.375 70.5464 137.398 70.6976C137.196 70.6306 136.979 70.63 136.777 70.6956C136.575 70.7612 136.4 70.8898 136.276 71.0624C136.172 71.224 136.097 71.4032 136.057 71.5913C135.983 71.9358 135.949 72.2878 135.957 72.6401C135.95 72.7826 135.981 72.9244 136.048 73.0505C136.08 73.1141 136.133 73.1655 136.197 73.1967C136.261 73.228 136.334 73.2375 136.404 73.2238C136.307 73.3337 136.234 73.4628 136.19 73.6026C136.146 73.7424 136.132 73.8898 136.148 74.0355C136.183 74.152 136.246 74.2584 136.331 74.3456C136.475 74.5329 136.677 74.6675 136.905 74.7286C137.018 74.7598 137.137 74.761 137.251 74.7322C137.364 74.7035 137.468 74.6456 137.553 74.5644C137.79 74.3364 137.79 73.9625 137.991 73.6524C137.968 73.7472 137.972 73.8462 138.001 73.9392C138.03 74.0322 138.083 74.1158 138.155 74.1814C138.312 74.3069 138.511 74.3659 138.711 74.3456C138.767 74.3412 138.82 74.3223 138.866 74.2908C138.904 74.2522 138.932 74.2054 138.948 74.154C139.097 73.7603 139.119 73.3299 139.012 72.9228C139.101 73.0032 139.209 73.059 139.325 73.0846C139.442 73.1102 139.564 73.1048 139.678 73.0688C139.791 73.0282 139.891 72.9574 139.966 72.8642C140.042 72.7709 140.09 72.6587 140.106 72.5398C140.097 72.4123 140.097 72.2843 140.106 72.1568C140.106 71.9744 140.38 71.9196 140.526 71.8193C140.73 71.6801 140.922 71.5245 141.101 71.3542C141.183 71.2721 142.013 70.3145 141.931 70.2507C142.143 70.3875 142.398 70.4408 142.647 70.4004C142.897 70.36 143.122 70.2287 143.28 70.0318C143.423 70.285 143.65 70.4797 143.922 70.5815C144.194 70.6833 144.493 70.6856 144.767 70.5881C143.835 71.2357 142.979 71.9852 142.213 72.8225C141.453 73.6537 140.997 74.7177 140.918 75.8412C140.89 76.4118 141.064 76.974 141.411 77.4281C141.591 77.6471 141.83 77.8093 142.101 77.8951C142.371 77.9809 142.66 77.9866 142.934 77.9115C142.924 77.8276 142.895 77.7471 142.849 77.6759C142.804 77.6047 142.743 77.5446 142.671 77.5C142.599 77.4554 142.519 77.4274 142.435 77.4181C142.351 77.4088 142.266 77.4185 142.186 77.4464C142.028 77.5139 141.887 77.615 141.772 77.7425C141.657 77.8701 141.571 78.0211 141.52 78.1851C141.426 78.3863 141.377 78.6058 141.377 78.828C141.377 79.0503 141.426 79.2698 141.52 79.471C141.616 79.6606 141.783 79.8046 141.985 79.8713C142.186 79.9379 142.406 79.9219 142.596 79.8267C142.766 79.6745 142.905 79.492 143.007 79.2886C143.335 78.9211 143.682 78.571 144.046 78.2398C144.219 78.0679 144.328 77.842 144.354 77.5998C144.381 77.3575 144.324 77.1135 144.192 76.9083C144.703 76.662 144.685 75.8959 144.402 75.4035C144.052 74.9636 143.747 74.4901 143.49 73.9899H145.387L146.299 73.1508C146.688 73.3976 147.124 73.5599 147.58 73.6275C148.036 73.695 148.5 73.6663 148.944 73.543C148.869 73.9883 148.934 74.4459 149.13 74.8527C149.326 75.2595 149.643 75.5954 150.039 75.8139C149.883 75.9324 149.665 76.0784 149.692 76.3064C149.708 76.3802 149.745 76.4478 149.798 76.5012C149.851 76.5546 149.919 76.5914 149.993 76.6073C150.138 76.6347 150.286 76.6347 150.431 76.6073C150.495 76.7441 150.34 76.89 150.358 77.0451C150.377 77.1336 150.43 77.2117 150.504 77.2639C150.673 77.4002 150.868 77.4996 151.078 77.5558C151.038 77.6082 151.017 77.6723 151.017 77.7382C151.017 77.8041 151.038 77.8682 151.078 77.9206C151.152 78.0286 151.257 78.1113 151.379 78.1577C151.68 78.3141 152.003 78.4218 152.337 78.4769C152.298 78.6606 152.317 78.8517 152.392 79.0241C152.424 79.1117 152.488 79.1847 152.57 79.2298C152.651 79.275 152.747 79.2894 152.838 79.2703C152.921 79.2703 152.994 79.1791 153.076 79.1974C153.127 79.2136 153.171 79.2455 153.203 79.2886C153.355 79.4608 153.47 79.6627 153.541 79.8814C153.563 79.9848 153.603 80.0836 153.659 80.1732C153.743 80.2824 153.858 80.3648 153.988 80.4103C154.161 80.4742 154.371 80.5289 154.508 80.4103C154.552 80.3622 154.583 80.3026 154.595 80.2382C154.608 80.1739 154.603 80.1072 154.58 80.0455C154.535 79.9266 154.47 79.8157 154.389 79.7172C154.434 79.7388 154.486 79.7434 154.535 79.73C154.583 79.7166 154.625 79.6862 154.653 79.6443C154.69 79.5472 154.69 79.4403 154.653 79.3433C154.545 79.0907 154.397 78.8568 154.216 78.6502C154.207 78.6301 154.202 78.6084 154.202 78.5863C154.202 78.5643 154.207 78.5426 154.216 78.5225C154.221 78.5009 154.232 78.4807 154.246 78.4634C154.26 78.446 154.278 78.432 154.298 78.4222C154.453 78.2489 154.298 77.9662 154.207 77.7655C154.115 77.5649 153.906 77.3369 154.006 77.118C154.059 77.0255 154.124 76.9398 154.197 76.8627C154.298 76.7259 154.298 76.4796 154.425 76.3793C154.488 76.3445 154.561 76.3345 154.63 76.3515C154.7 76.3684 154.76 76.4109 154.799 76.4705C154.891 76.58 154.927 76.7259 155.009 76.8353C155.172 76.9955 155.352 77.1363 155.547 77.2548C155.684 77.3825 155.784 77.5649 155.93 77.6926C155.975 77.7524 156.036 77.7971 156.107 77.8208C156.178 77.8445 156.254 77.846 156.325 77.8252C156.397 77.8043 156.46 77.7621 156.507 77.7042C156.554 77.6462 156.582 77.5753 156.587 77.5011C156.602 77.3791 156.586 77.2553 156.541 77.1408C156.497 77.0263 156.425 76.9245 156.332 76.8444C156.26 76.796 156.195 76.7377 156.14 76.6712C156.11 76.639 156.093 76.5966 156.093 76.5526C156.093 76.5085 156.11 76.4662 156.14 76.434C156.176 76.4401 156.213 76.4345 156.246 76.4181C156.279 76.4017 156.306 76.3754 156.322 76.3428C156.332 76.3131 156.332 76.2813 156.322 76.2516C156.306 76.1658 156.264 76.0867 156.204 76.0236C156.204 76.0236 156.131 75.9507 156.14 75.9051C156.131 75.8816 156.131 75.8556 156.14 75.8321C156.231 75.6771 156.359 75.5403 156.441 75.3852C156.505 75.2621 156.52 75.1192 156.483 74.9854C156.446 74.8516 156.359 74.737 156.24 74.6648C156.423 74.78 156.64 74.8267 156.854 74.7966C157.068 74.7666 157.264 74.6617 157.408 74.5006C157.689 74.179 157.894 73.799 158.01 73.388C158.074 73.4365 158.147 73.4719 158.225 73.4922C158.302 73.5125 158.383 73.5172 158.463 73.5062C158.543 73.4952 158.619 73.4686 158.689 73.428C158.758 73.3874 158.819 73.3335 158.867 73.2694C158.916 73.2053 158.951 73.1323 158.971 73.0546C158.992 72.9768 158.996 72.8958 158.985 72.8162C158.974 72.7366 158.948 72.6599 158.907 72.5906C158.866 72.5213 158.813 72.4606 158.748 72.4121H158.675C158.913 72.5318 159.169 72.6119 159.432 72.6492C159.565 72.6668 159.7 72.65 159.825 72.6006C159.95 72.5511 160.059 72.4705 160.144 72.3665C160.372 72.0473 160.253 71.5457 160.554 71.2904C161.019 71.6957 161.523 72.0532 162.059 72.3574C162.488 72.4986 162.956 72.4636 163.36 72.2602C163.764 72.0567 164.07 71.7013 164.212 71.2721C164.212 71.2721 164.212 71.2721 164.212 71.2174C164.435 71.3653 164.69 71.4581 164.957 71.4882C165.223 71.5183 165.493 71.4849 165.744 71.3907C165.944 71.2344 166.087 71.0168 166.151 70.7713C166.215 70.5258 166.197 70.266 166.099 70.0318C166.372 69.9992 166.624 69.87 166.81 69.6676C166.996 69.4651 167.103 69.2029 167.112 68.9283C167.123 68.5884 167.02 68.2545 166.82 67.9798Z" fill="#473F47"/>
<path d="M192.339 184.369C192.339 184.369 193.251 186.193 199.416 185.153C205.581 184.114 208.482 182.189 208.828 181.104C208.95 181.311 209.03 181.539 209.063 181.777C209.096 182.014 209.083 182.256 209.022 182.488C208.962 182.72 208.857 182.938 208.713 183.129C208.568 183.32 208.387 183.481 208.181 183.603C206.639 184.515 200.665 188.619 193.387 186.102C193.387 186.138 192.475 185.883 192.339 184.369Z" fill="#473F47"/>
<path d="M153.422 75.7227C153.302 75.727 153.185 75.7649 153.085 75.8321C152.864 75.9774 152.689 76.1819 152.579 76.4223C152.469 76.6627 152.43 76.9291 152.465 77.191C152.539 77.7204 152.774 78.214 153.139 78.6046C153.286 78.7946 153.473 78.9502 153.687 79.0606C153.976 79.1796 154.286 79.2416 154.599 79.243C154.719 79.2704 154.843 79.2704 154.964 79.243C155.084 79.1764 155.185 79.0788 155.256 78.9601C155.326 78.8415 155.364 78.7061 155.365 78.5681C155.413 77.9095 155.27 77.2511 154.954 76.6712C154.854 76.4851 154.698 76.3352 154.508 76.2425C154.189 75.9909 153.818 75.8133 153.422 75.7227Z" fill="#C1A7A7"/>
<path d="M147.001 68.7459C146.638 69.7858 146.462 70.882 146.482 71.9835C146.429 72.5798 146.507 73.1803 146.71 73.7436C146.893 74.1167 147.127 74.4633 147.403 74.7742C147.676 74.7995 147.952 74.7626 148.21 74.6662C148.467 74.5699 148.7 74.4166 148.889 74.2179C148.983 74.124 149.052 74.0079 149.09 73.8804C149.19 73.5339 148.953 73.2056 148.762 72.8955C148.195 71.8646 148.061 70.651 148.388 69.5211C148.543 68.9009 149.628 67.2411 148.233 67.5056C147.937 67.5872 147.668 67.7446 147.452 67.9621C147.236 68.1797 147.081 68.4498 147.001 68.7459Z" fill="#ED4ABF"/>
<path d="M166.008 202.791H165.096C164.975 202.791 164.859 202.743 164.774 202.658C164.688 202.572 164.64 202.456 164.64 202.335C164.64 202.214 164.688 202.098 164.774 202.013C164.859 201.927 164.975 201.879 165.096 201.879H166.008C166.129 201.879 166.245 201.927 166.331 202.013C166.416 202.098 166.464 202.214 166.464 202.335C166.464 202.456 166.416 202.572 166.331 202.658C166.245 202.743 166.129 202.791 166.008 202.791ZM170.568 202.791C170.447 202.791 170.331 202.743 170.246 202.658C170.16 202.572 170.112 202.456 170.112 202.335C170.112 202.214 170.16 202.098 170.246 202.013C170.331 201.927 170.447 201.879 170.568 201.879H171.48C171.601 201.879 171.717 201.927 171.803 202.013C171.888 202.098 171.936 202.214 171.936 202.335C171.936 202.456 171.888 202.572 171.803 202.658C171.717 202.743 171.601 202.791 171.48 202.791H170.568ZM160.536 202.682H159.624C159.564 202.68 159.505 202.665 159.451 202.64C159.396 202.615 159.347 202.58 159.307 202.536C159.266 202.492 159.235 202.44 159.214 202.384C159.193 202.327 159.184 202.268 159.186 202.208C159.185 202.15 159.195 202.092 159.217 202.039C159.239 201.985 159.271 201.936 159.312 201.895C159.353 201.854 159.401 201.822 159.455 201.801C159.509 201.779 159.566 201.769 159.624 201.77H160.536C160.657 201.77 160.773 201.818 160.858 201.903C160.944 201.989 160.992 202.105 160.992 202.226C160.992 202.347 160.944 202.463 160.858 202.548C160.773 202.634 160.657 202.682 160.536 202.682ZM176.041 202.682C175.92 202.682 175.804 202.634 175.718 202.548C175.633 202.463 175.585 202.347 175.585 202.226C175.585 202.105 175.633 201.989 175.718 201.903C175.804 201.818 175.92 201.77 176.041 201.77H176.953C177.072 201.77 177.188 201.814 177.276 201.896C177.364 201.977 177.418 202.088 177.427 202.208C177.429 202.268 177.42 202.327 177.399 202.384C177.379 202.44 177.347 202.492 177.306 202.536C177.266 202.58 177.217 202.615 177.162 202.64C177.108 202.665 177.049 202.68 176.989 202.682H176.077H176.041ZM155.064 202.445L154.152 202.39C154.092 202.387 154.033 202.371 153.979 202.345C153.925 202.319 153.877 202.282 153.837 202.237C153.797 202.192 153.767 202.14 153.747 202.083C153.728 202.027 153.719 201.967 153.723 201.907C153.723 201.849 153.735 201.792 153.757 201.738C153.78 201.685 153.813 201.637 153.855 201.597C153.897 201.557 153.946 201.526 154 201.505C154.055 201.485 154.112 201.476 154.17 201.478L155.082 201.533C155.203 201.533 155.319 201.581 155.405 201.666C155.49 201.752 155.538 201.868 155.538 201.989C155.538 202.11 155.49 202.226 155.405 202.311C155.319 202.397 155.203 202.445 155.082 202.445H155.064ZM181.513 202.445C181.397 202.443 181.286 202.398 181.202 202.319C181.118 202.239 181.066 202.132 181.057 202.016C181.054 201.896 181.097 201.78 181.176 201.69C181.256 201.601 181.366 201.544 181.485 201.533L182.397 201.478C182.517 201.475 182.634 201.518 182.723 201.597C182.813 201.677 182.869 201.787 182.881 201.907C182.885 201.967 182.876 202.027 182.857 202.083C182.837 202.14 182.807 202.192 182.767 202.237C182.727 202.282 182.679 202.319 182.625 202.345C182.571 202.371 182.512 202.387 182.452 202.39L181.54 202.445H181.513ZM149.592 202.08L148.68 201.998C148.62 201.993 148.561 201.977 148.508 201.95C148.454 201.922 148.406 201.885 148.367 201.839C148.328 201.793 148.299 201.74 148.28 201.683C148.262 201.626 148.255 201.565 148.26 201.505C148.276 201.386 148.337 201.277 148.43 201.201C148.523 201.125 148.642 201.087 148.762 201.095L149.674 201.168C149.795 201.168 149.911 201.216 149.996 201.302C150.082 201.387 150.13 201.503 150.13 201.624C150.13 201.745 150.082 201.861 149.996 201.946C149.911 202.032 149.795 202.08 149.674 202.08H149.592ZM186.985 202.08C186.864 202.08 186.748 202.032 186.663 201.946C186.577 201.861 186.529 201.745 186.529 201.624C186.529 201.503 186.577 201.387 186.663 201.302C186.748 201.216 186.864 201.168 186.985 201.168L187.897 201.095C188.016 201.087 188.134 201.125 188.225 201.202C188.317 201.278 188.376 201.387 188.39 201.505C188.396 201.564 188.39 201.624 188.374 201.68C188.357 201.737 188.329 201.79 188.292 201.835C188.254 201.881 188.208 201.919 188.156 201.947C188.104 201.975 188.047 201.992 187.988 201.998L187.076 202.08H186.985ZM144.183 201.578H144.129L143.217 201.478C143.096 201.464 142.985 201.402 142.91 201.306C142.835 201.21 142.801 201.088 142.815 200.967C142.83 200.846 142.892 200.736 142.988 200.661C143.083 200.586 143.205 200.552 143.326 200.566L144.238 200.666C144.359 200.666 144.475 200.714 144.56 200.8C144.646 200.885 144.694 201.001 144.694 201.122C144.694 201.243 144.646 201.359 144.56 201.445C144.475 201.53 144.359 201.578 144.238 201.578H144.183ZM192.43 201.578C192.309 201.578 192.193 201.53 192.107 201.445C192.022 201.359 191.974 201.243 191.974 201.122C191.974 201.001 192.022 200.885 192.107 200.8C192.193 200.714 192.309 200.666 192.43 200.666L193.342 200.566C193.459 200.553 193.576 200.585 193.67 200.657C193.763 200.728 193.825 200.833 193.843 200.949C193.856 201.069 193.821 201.189 193.746 201.283C193.671 201.377 193.562 201.437 193.442 201.451L192.53 201.551L192.43 201.578ZM138.748 200.94H138.684L137.772 200.812C137.712 200.805 137.654 200.785 137.602 200.755C137.549 200.725 137.503 200.685 137.467 200.637C137.43 200.589 137.403 200.534 137.387 200.476C137.371 200.418 137.367 200.357 137.375 200.297C137.383 200.237 137.402 200.179 137.432 200.127C137.462 200.075 137.503 200.029 137.55 199.992C137.598 199.955 137.653 199.928 137.711 199.912C137.77 199.897 137.83 199.893 137.89 199.9L138.802 200.028C138.919 200.042 139.026 200.101 139.1 200.193C139.173 200.286 139.207 200.403 139.194 200.52C139.163 200.618 139.101 200.703 139.017 200.762C138.933 200.821 138.832 200.852 138.729 200.849L138.748 200.94ZM197.866 200.94C197.806 200.944 197.746 200.937 197.689 200.918C197.632 200.898 197.579 200.868 197.534 200.829C197.442 200.749 197.386 200.637 197.378 200.516C197.369 200.395 197.409 200.276 197.489 200.184C197.568 200.093 197.681 200.036 197.802 200.028L198.714 199.909C198.772 199.9 198.831 199.903 198.888 199.917C198.945 199.931 198.999 199.956 199.047 199.99C199.094 200.025 199.134 200.069 199.165 200.119C199.195 200.169 199.216 200.225 199.224 200.283C199.24 200.403 199.209 200.524 199.138 200.621C199.066 200.718 198.96 200.783 198.841 200.803L197.929 200.922L197.866 200.94ZM133.33 200.165H133.257L132.345 200.019C132.28 200.015 132.217 199.997 132.159 199.967C132.101 199.937 132.05 199.895 132.01 199.843C131.969 199.792 131.94 199.733 131.924 199.67C131.908 199.607 131.905 199.541 131.916 199.477C131.927 199.412 131.951 199.351 131.987 199.297C132.023 199.243 132.071 199.197 132.126 199.162C132.181 199.127 132.243 199.104 132.307 199.094C132.372 199.085 132.437 199.089 132.5 199.107L133.412 199.262C133.47 199.271 133.526 199.291 133.576 199.322C133.627 199.352 133.67 199.392 133.705 199.44C133.74 199.487 133.765 199.541 133.779 199.598C133.793 199.655 133.795 199.715 133.786 199.773C133.75 199.867 133.685 199.947 133.599 199.999C133.513 200.052 133.412 200.075 133.312 200.064L133.33 200.165ZM203.274 200.165C203.214 200.17 203.154 200.163 203.097 200.144C203.039 200.126 202.987 200.096 202.941 200.057C202.895 200.018 202.857 199.97 202.83 199.917C202.803 199.864 202.786 199.805 202.781 199.745C202.777 199.685 202.784 199.625 202.802 199.568C202.821 199.511 202.85 199.458 202.889 199.412C202.928 199.366 202.976 199.329 203.029 199.301C203.083 199.274 203.141 199.258 203.201 199.253L204.113 199.098C204.231 199.079 204.352 199.108 204.45 199.178C204.547 199.248 204.613 199.354 204.633 199.472C204.643 199.531 204.642 199.592 204.629 199.651C204.616 199.709 204.591 199.765 204.556 199.814C204.521 199.863 204.477 199.905 204.426 199.937C204.375 199.969 204.318 199.991 204.259 200.001L203.347 200.147L203.274 200.165ZM127.94 199.253H127.858L126.946 199.08C126.887 199.068 126.831 199.044 126.782 199.011C126.732 198.977 126.69 198.934 126.657 198.884C126.624 198.834 126.601 198.778 126.589 198.719C126.578 198.661 126.578 198.6 126.59 198.541C126.6 198.483 126.621 198.428 126.653 198.379C126.685 198.329 126.726 198.286 126.775 198.253C126.823 198.22 126.878 198.197 126.935 198.185C126.993 198.174 127.052 198.174 127.11 198.186L128.022 198.359C128.081 198.371 128.137 198.394 128.186 198.428C128.236 198.461 128.278 198.504 128.311 198.554C128.344 198.604 128.367 198.66 128.379 198.719C128.39 198.778 128.39 198.838 128.378 198.897C128.332 198.979 128.261 199.044 128.176 199.083C128.091 199.122 127.996 199.134 127.904 199.116L127.94 199.253ZM208.664 199.253C208.558 199.255 208.456 199.219 208.374 199.152C208.292 199.085 208.237 198.992 208.217 198.888C208.196 198.768 208.222 198.645 208.29 198.545C208.358 198.444 208.463 198.374 208.582 198.35L209.494 198.177C209.612 198.155 209.735 198.182 209.834 198.25C209.933 198.318 210.001 198.423 210.023 198.541C210.036 198.597 210.039 198.655 210.029 198.712C210.02 198.768 209.999 198.822 209.969 198.871C209.938 198.919 209.898 198.961 209.851 198.994C209.804 199.027 209.751 199.049 209.695 199.061L208.783 199.244L208.664 199.253ZM122.568 198.049H122.468L121.556 197.839C121.496 197.826 121.439 197.801 121.389 197.766C121.339 197.731 121.296 197.686 121.263 197.635C121.23 197.583 121.207 197.525 121.196 197.465C121.186 197.405 121.187 197.343 121.2 197.283C121.213 197.223 121.238 197.166 121.273 197.116C121.308 197.066 121.353 197.023 121.405 196.99C121.456 196.957 121.514 196.934 121.574 196.924C121.635 196.913 121.697 196.914 121.756 196.927L122.668 197.128C122.727 197.141 122.783 197.165 122.832 197.2C122.882 197.234 122.924 197.278 122.956 197.329C122.988 197.38 123.01 197.437 123.02 197.496C123.03 197.556 123.028 197.616 123.015 197.675C122.998 197.781 122.943 197.876 122.861 197.945C122.779 198.013 122.675 198.05 122.568 198.049ZM213.972 197.949C213.912 197.955 213.852 197.949 213.794 197.932C213.736 197.915 213.682 197.886 213.636 197.848C213.589 197.81 213.55 197.763 213.522 197.71C213.494 197.657 213.476 197.598 213.47 197.538C213.463 197.479 213.467 197.418 213.483 197.361C213.5 197.303 213.527 197.249 213.565 197.202C213.602 197.156 213.649 197.117 213.701 197.088C213.754 197.06 213.812 197.042 213.872 197.037L214.784 196.827C214.844 196.814 214.906 196.812 214.966 196.823C215.026 196.834 215.084 196.856 215.136 196.89C215.187 196.923 215.232 196.965 215.267 197.016C215.302 197.066 215.327 197.123 215.34 197.183C215.353 197.242 215.355 197.304 215.344 197.365C215.333 197.425 215.311 197.483 215.277 197.534C215.244 197.586 215.202 197.631 215.151 197.666C215.101 197.701 215.044 197.726 214.984 197.739L214.072 197.94L213.972 197.949ZM117.205 196.717C117.169 196.727 117.132 196.727 117.096 196.717L116.184 196.489C116.063 196.457 115.959 196.379 115.895 196.272C115.83 196.165 115.809 196.037 115.837 195.915C115.869 195.794 115.948 195.691 116.055 195.628C116.163 195.565 116.291 195.547 116.412 195.577L117.324 195.815C117.382 195.829 117.437 195.856 117.485 195.892C117.533 195.928 117.573 195.973 117.604 196.025C117.634 196.076 117.654 196.133 117.662 196.193C117.671 196.252 117.667 196.313 117.652 196.371C117.629 196.465 117.577 196.549 117.503 196.611C117.43 196.673 117.338 196.711 117.242 196.717H117.205ZM219.289 196.663C219.168 196.678 219.046 196.645 218.949 196.571C218.853 196.497 218.79 196.387 218.774 196.266C218.758 196.145 218.791 196.023 218.866 195.926C218.94 195.83 219.05 195.766 219.171 195.751L220.083 195.523C220.143 195.508 220.205 195.505 220.266 195.514C220.327 195.523 220.386 195.544 220.439 195.576C220.491 195.607 220.538 195.649 220.574 195.699C220.611 195.748 220.638 195.805 220.653 195.865C220.668 195.925 220.671 195.987 220.662 196.048C220.653 196.109 220.632 196.168 220.6 196.221C220.568 196.273 220.526 196.32 220.477 196.356C220.427 196.393 220.371 196.42 220.311 196.435L219.399 196.663H219.289ZM111.934 195.249H111.824L110.912 194.985C110.854 194.969 110.8 194.942 110.752 194.904C110.705 194.867 110.666 194.821 110.637 194.768C110.608 194.715 110.59 194.657 110.584 194.597C110.578 194.537 110.584 194.477 110.602 194.419C110.64 194.304 110.721 194.208 110.828 194.152C110.936 194.096 111.061 194.084 111.177 194.118L112.089 194.374C112.149 194.382 112.206 194.402 112.259 194.433C112.311 194.463 112.356 194.504 112.393 194.552C112.429 194.601 112.456 194.656 112.471 194.714C112.486 194.773 112.489 194.834 112.481 194.893C112.473 194.953 112.453 195.011 112.422 195.063C112.391 195.115 112.351 195.161 112.302 195.197C112.254 195.234 112.199 195.26 112.141 195.275C112.082 195.29 112.021 195.294 111.961 195.286L111.934 195.249ZM224.561 195.185C224.463 195.186 224.368 195.155 224.289 195.098C224.211 195.04 224.152 194.959 224.123 194.866C224.088 194.75 224.101 194.625 224.157 194.518C224.213 194.41 224.309 194.329 224.424 194.292L225.336 194.036C225.45 194.002 225.572 194.013 225.678 194.067C225.784 194.122 225.864 194.215 225.901 194.328C225.936 194.443 225.923 194.567 225.867 194.672C225.811 194.778 225.715 194.858 225.6 194.893L224.688 195.158H224.597L224.561 195.185ZM106.717 193.589H106.571L105.659 193.288C105.538 193.258 105.434 193.181 105.37 193.074C105.306 192.967 105.287 192.839 105.317 192.718C105.347 192.597 105.424 192.493 105.531 192.429C105.638 192.365 105.766 192.346 105.887 192.376H105.96L106.817 192.668C106.93 192.708 107.024 192.79 107.076 192.897C107.129 193.005 107.138 193.129 107.1 193.243C107.069 193.323 107.015 193.392 106.945 193.442C106.876 193.492 106.793 193.521 106.708 193.525L106.717 193.589ZM229.841 193.489C229.728 193.493 229.616 193.456 229.528 193.384C229.44 193.312 229.382 193.21 229.364 193.098C229.346 192.985 229.37 192.87 229.431 192.774C229.492 192.678 229.586 192.608 229.696 192.577L230.553 192.285C230.607 192.263 230.665 192.252 230.724 192.254C230.783 192.255 230.841 192.267 230.894 192.291C230.948 192.315 230.996 192.349 231.036 192.392C231.076 192.435 231.107 192.485 231.127 192.541C231.166 192.655 231.157 192.781 231.105 192.89C231.052 192.999 230.959 193.083 230.845 193.124L229.933 193.425L229.841 193.489ZM101.61 191.665H101.445L100.597 191.328C100.487 191.285 100.398 191.201 100.349 191.094C100.3 190.986 100.294 190.864 100.333 190.753C100.377 190.643 100.464 190.554 100.573 190.506C100.682 190.459 100.805 190.456 100.916 190.498L101.765 190.835C101.877 190.878 101.967 190.963 102.017 191.073C102.066 191.182 102.071 191.306 102.029 191.419C101.998 191.508 101.94 191.585 101.863 191.641C101.787 191.696 101.695 191.727 101.6 191.729L101.61 191.665ZM234.949 191.665C234.858 191.665 234.768 191.638 234.692 191.588C234.616 191.538 234.556 191.466 234.52 191.382C234.478 191.27 234.481 191.145 234.528 191.034C234.576 190.924 234.665 190.836 234.776 190.789L235.615 190.452C235.727 190.41 235.852 190.413 235.963 190.46C236.073 190.508 236.161 190.596 236.207 190.707C236.23 190.763 236.241 190.823 236.24 190.883C236.239 190.942 236.226 191.002 236.203 191.057C236.179 191.112 236.145 191.162 236.102 191.203C236.059 191.245 236.008 191.278 235.952 191.3L235.104 191.638C235.054 191.655 235.002 191.664 234.949 191.665ZM96.5569 189.649C96.4965 189.659 96.435 189.659 96.3745 189.649L95.5355 189.276C95.4814 189.252 95.4325 189.218 95.3917 189.175C95.3509 189.132 95.319 189.082 95.2978 189.027C95.2766 188.972 95.2665 188.913 95.2682 188.854C95.2698 188.795 95.2832 188.737 95.3074 188.683C95.3572 188.573 95.4485 188.487 95.5613 188.444C95.6741 188.402 95.7993 188.405 95.9094 188.455L96.7393 188.829C96.8492 188.878 96.9349 188.97 96.9777 189.083C97.0204 189.195 97.0167 189.321 96.9674 189.431C96.9205 189.497 96.8573 189.551 96.7839 189.586C96.7104 189.621 96.6291 189.637 96.5478 189.631L96.5569 189.649ZM239.992 189.558C239.905 189.558 239.819 189.532 239.746 189.483C239.673 189.435 239.616 189.366 239.582 189.285C239.532 189.178 239.526 189.056 239.565 188.945C239.604 188.834 239.686 188.743 239.792 188.692L240.613 188.318C240.722 188.267 240.846 188.26 240.96 188.299C241.074 188.339 241.169 188.42 241.224 188.528C241.271 188.639 241.274 188.765 241.231 188.879C241.189 188.992 241.105 189.085 240.996 189.139L240.166 189.513C240.103 189.526 240.037 189.526 239.974 189.513L239.992 189.558ZM91.6228 187.278H91.4131L90.6014 186.85C90.4965 186.79 90.4188 186.692 90.3848 186.576C90.3508 186.461 90.363 186.336 90.4189 186.229C90.4458 186.177 90.4828 186.131 90.5279 186.093C90.573 186.056 90.6251 186.028 90.6813 186.011C90.7374 185.994 90.7964 185.988 90.8548 185.994C90.9131 186.001 90.9696 186.019 91.0209 186.047L91.8235 186.467C91.9138 186.506 91.987 186.576 92.0298 186.665C92.0726 186.753 92.0822 186.854 92.0568 186.949C92.0314 187.044 91.9727 187.127 91.8913 187.182C91.81 187.238 91.7115 187.262 91.6137 187.251L91.6228 187.278ZM244.926 187.178C244.867 187.191 244.805 187.193 244.744 187.182C244.684 187.172 244.626 187.149 244.574 187.116C244.523 187.083 244.478 187.04 244.443 186.99C244.408 186.939 244.383 186.882 244.37 186.822C244.355 186.763 244.353 186.701 244.362 186.641C244.372 186.58 244.393 186.523 244.426 186.471C244.458 186.419 244.5 186.374 244.55 186.339C244.6 186.304 244.657 186.279 244.717 186.266L245.519 185.846C245.571 185.818 245.627 185.8 245.685 185.794C245.744 185.788 245.803 185.793 245.859 185.81C245.915 185.827 245.967 185.855 246.012 185.893C246.057 185.93 246.094 185.977 246.121 186.029C246.177 186.133 246.191 186.255 246.158 186.369C246.126 186.484 246.051 186.581 245.948 186.64L245.136 187.069C245.072 187.106 245 187.131 244.926 187.141V187.178ZM86.8438 184.615C86.7603 184.617 86.678 184.595 86.6067 184.551L85.8314 184.068C85.7352 183.995 85.671 183.888 85.6523 183.769C85.6336 183.65 85.6618 183.528 85.7311 183.43C85.7951 183.342 85.888 183.281 85.9933 183.256C86.0985 183.231 86.2092 183.244 86.3057 183.293L87.0809 183.767C87.1326 183.798 87.1777 183.839 87.2136 183.887C87.2494 183.936 87.2753 183.991 87.2897 184.049C87.3041 184.108 87.3068 184.169 87.2976 184.228C87.2883 184.288 87.2674 184.345 87.236 184.396C87.1924 184.459 87.1335 184.51 87.0648 184.543C86.9962 184.577 86.9201 184.592 86.8438 184.588V184.615ZM249.696 184.497C249.618 184.497 249.54 184.477 249.471 184.439C249.403 184.401 249.345 184.345 249.304 184.278C249.243 184.173 249.225 184.049 249.254 183.932C249.283 183.814 249.357 183.713 249.459 183.649L250.235 183.174C250.342 183.12 250.467 183.111 250.581 183.149C250.696 183.186 250.791 183.268 250.846 183.375C250.895 183.471 250.908 183.582 250.883 183.687C250.858 183.793 250.796 183.885 250.709 183.949L249.934 184.433C249.856 184.456 249.774 184.456 249.696 184.433V184.497ZM82.2745 181.578C82.1801 181.578 82.088 181.549 82.01 181.496L81.2713 180.949C81.18 180.883 81.1165 180.785 81.0933 180.674C81.07 180.564 81.0885 180.449 81.1452 180.351C81.202 180.253 81.2929 180.18 81.4004 180.146C81.5079 180.112 81.6244 180.118 81.7273 180.165L81.8094 180.219L82.539 180.757C82.6369 180.824 82.7043 180.927 82.7265 181.043C82.7488 181.159 82.724 181.28 82.6575 181.378C82.6147 181.44 82.5575 181.49 82.4908 181.525C82.424 181.56 82.3498 181.578 82.2745 181.578ZM254.257 181.451C254.158 181.453 254.062 181.424 253.982 181.368C253.901 181.312 253.841 181.231 253.811 181.138C253.78 181.044 253.78 180.944 253.811 180.851C253.842 180.757 253.902 180.677 253.983 180.621L254.713 180.083C254.81 180.012 254.931 179.983 255.05 180C255.169 180.017 255.277 180.079 255.351 180.174C255.424 180.271 255.455 180.392 255.438 180.512C255.421 180.632 255.357 180.74 255.26 180.812C255.023 180.995 254.767 181.186 254.521 181.359C254.447 181.421 254.353 181.454 254.257 181.451ZM77.9971 178.177C77.8867 178.17 77.7813 178.128 77.6961 178.058L77.0121 177.438C76.9285 177.353 76.8817 177.238 76.8817 177.119C76.8817 176.999 76.9285 176.885 77.0121 176.799C77.0545 176.757 77.1049 176.723 77.1605 176.7C77.216 176.676 77.2756 176.665 77.3358 176.665C77.396 176.665 77.4556 176.676 77.5112 176.7C77.5668 176.723 77.6172 176.757 77.6596 176.799L78.3345 177.401C78.4258 177.479 78.4827 177.59 78.4929 177.709C78.5031 177.829 78.4659 177.948 78.3892 178.04C78.3441 178.092 78.288 178.134 78.225 178.162C78.162 178.191 78.0935 178.205 78.0244 178.204L77.9971 178.177ZM258.516 177.985C258.452 177.985 258.388 177.972 258.33 177.945C258.271 177.918 258.22 177.879 258.178 177.83C258.095 177.746 258.049 177.633 258.049 177.515C258.049 177.397 258.095 177.284 258.178 177.201L258.844 176.59C258.887 176.547 258.937 176.513 258.992 176.49C259.048 176.467 259.108 176.455 259.168 176.455C259.228 176.455 259.288 176.467 259.343 176.49C259.399 176.513 259.449 176.547 259.492 176.59C259.534 176.631 259.568 176.681 259.591 176.736C259.614 176.791 259.626 176.849 259.626 176.909C259.626 176.968 259.614 177.027 259.591 177.082C259.568 177.137 259.534 177.186 259.492 177.228L259.446 177.274C259.227 177.483 258.999 177.693 258.762 177.894C258.692 177.95 258.605 177.982 258.516 177.985ZM74.1483 174.337C74.083 174.336 74.0184 174.322 73.9588 174.296C73.8992 174.269 73.8457 174.23 73.8017 174.182L73.2089 173.471C73.1667 173.43 73.1331 173.381 73.1102 173.327C73.0873 173.273 73.0755 173.215 73.0755 173.156C73.0755 173.097 73.0873 173.039 73.1102 172.985C73.1331 172.931 73.1667 172.882 73.2089 172.841C73.3046 172.767 73.425 172.733 73.5453 172.745C73.6657 172.757 73.777 172.814 73.8564 172.905L74.4401 173.589C74.5243 173.676 74.5713 173.792 74.5713 173.913C74.5713 174.034 74.5243 174.15 74.4401 174.237C74.3564 174.301 74.2539 174.336 74.1483 174.337ZM262.31 174.127C262.189 174.127 262.073 174.079 261.987 173.994C261.902 173.908 261.854 173.792 261.854 173.671C261.861 173.565 261.899 173.464 261.963 173.379L262.547 172.686C262.583 172.64 262.629 172.602 262.68 172.573C262.731 172.544 262.788 172.526 262.846 172.519C262.905 172.512 262.964 172.517 263.021 172.533C263.077 172.549 263.13 172.577 263.176 172.613C263.222 172.65 263.261 172.695 263.29 172.746C263.318 172.798 263.337 172.854 263.344 172.913C263.35 172.971 263.345 173.031 263.329 173.087C263.313 173.144 263.286 173.197 263.249 173.243L262.656 173.954C262.615 174.007 262.562 174.049 262.502 174.079C262.443 174.109 262.377 174.126 262.31 174.127ZM70.8832 169.896C70.8045 169.896 70.727 169.876 70.6583 169.838C70.5896 169.799 70.532 169.744 70.491 169.677L70.0259 168.874C69.9994 168.82 69.9839 168.762 69.9801 168.702C69.9763 168.642 69.9844 168.582 70.0039 168.525C70.0234 168.468 70.0539 168.416 70.0937 168.371C70.1334 168.326 70.1817 168.289 70.2357 168.263C70.3358 168.212 70.4514 168.201 70.5596 168.231C70.6678 168.261 70.7605 168.332 70.8194 168.427C70.9653 168.692 71.1203 168.947 71.2754 169.212C71.336 169.315 71.3537 169.437 71.3247 169.553C71.2957 169.669 71.2223 169.769 71.1203 169.832C71.0585 169.866 70.9902 169.888 70.9197 169.896H70.8832ZM265.511 169.704C265.428 169.706 265.345 169.684 265.274 169.64C265.172 169.578 265.099 169.478 265.07 169.362C265.041 169.246 265.058 169.123 265.119 169.02C265.265 168.756 265.42 168.5 265.557 168.236C265.585 168.183 265.624 168.137 265.671 168.099C265.718 168.061 265.771 168.033 265.829 168.016C265.887 167.999 265.947 167.994 266.007 168C266.066 168.007 266.124 168.025 266.177 168.053C266.23 168.082 266.276 168.121 266.314 168.168C266.351 168.214 266.38 168.268 266.396 168.326C266.413 168.383 266.419 168.444 266.412 168.503C266.406 168.563 266.388 168.621 266.359 168.674C266.213 168.947 266.058 169.212 265.903 169.476C265.866 169.539 265.814 169.592 265.752 169.632C265.69 169.671 265.62 169.696 265.548 169.704H265.511ZM68.5849 164.962C68.4885 164.963 68.3942 164.934 68.3156 164.878C68.2369 164.822 68.1779 164.743 68.1471 164.652C68.0468 164.351 67.9556 164.059 67.8735 163.74C67.8426 163.618 67.8606 163.488 67.9237 163.379C67.9867 163.27 68.0898 163.19 68.2109 163.156C68.3319 163.125 68.4599 163.144 68.5675 163.207C68.675 163.27 68.7534 163.373 68.7855 163.493C68.8676 163.776 68.9588 164.059 69.05 164.342C69.088 164.453 69.0805 164.575 69.0293 164.68C68.9781 164.786 68.8872 164.868 68.7764 164.907C68.7339 164.93 68.6876 164.946 68.6396 164.953L68.5849 164.962ZM267.782 164.743H267.645C267.533 164.707 267.439 164.629 267.383 164.525C267.326 164.422 267.313 164.3 267.344 164.186C267.426 163.904 267.518 163.621 267.59 163.329C267.623 163.209 267.701 163.106 267.809 163.043C267.916 162.979 268.044 162.961 268.165 162.992C268.286 163.026 268.389 163.106 268.452 163.215C268.515 163.324 268.533 163.453 268.503 163.575L268.238 164.487C268.197 164.572 268.132 164.641 268.05 164.687C267.969 164.733 267.875 164.752 267.782 164.743ZM67.5816 159.626C67.4638 159.627 67.3505 159.581 67.2655 159.499C67.1805 159.418 67.1303 159.306 67.1256 159.189V158.277C67.1279 158.158 67.1754 158.045 67.2585 157.96C67.3416 157.875 67.4539 157.825 67.5725 157.821C67.6912 157.823 67.8045 157.87 67.8893 157.954C67.9741 158.037 68.0239 158.149 68.0285 158.268V159.18C68.0322 159.238 68.0243 159.297 68.0052 159.353C67.9861 159.408 67.9562 159.46 67.9173 159.504C67.8783 159.548 67.831 159.584 67.7781 159.61C67.7252 159.635 67.6677 159.65 67.609 159.654L67.5816 159.626ZM268.776 159.398C268.654 159.391 268.54 159.337 268.458 159.246C268.376 159.156 268.333 159.037 268.338 158.915V158.003C268.338 157.882 268.386 157.766 268.472 157.681C268.557 157.595 268.673 157.547 268.794 157.547C268.915 157.547 269.031 157.595 269.117 157.681C269.202 157.766 269.25 157.882 269.25 158.003V158.915C269.254 158.975 269.246 159.035 269.226 159.092C269.207 159.149 269.176 159.201 269.136 159.246C269.097 159.291 269.048 159.327 268.994 159.354C268.94 159.38 268.882 159.395 268.822 159.398H268.776ZM268.776 157.128C268.66 157.126 268.55 157.081 268.465 157.001C268.381 156.922 268.329 156.814 268.32 156.699C268.31 156.394 268.282 156.089 268.238 155.787C268.225 155.665 268.261 155.543 268.338 155.447C268.415 155.351 268.527 155.29 268.648 155.276C268.708 155.27 268.769 155.276 268.827 155.293C268.884 155.31 268.938 155.339 268.985 155.377C269.031 155.415 269.07 155.462 269.098 155.515C269.127 155.568 269.144 155.627 269.15 155.687C269.15 155.988 269.214 156.298 269.232 156.599C269.237 156.659 269.23 156.719 269.212 156.776C269.193 156.833 269.164 156.886 269.125 156.932C269.086 156.978 269.038 157.016 268.985 157.043C268.931 157.07 268.873 157.087 268.813 157.091L268.776 157.128ZM68.0468 154.2H67.9465C67.8884 154.189 67.8331 154.167 67.7839 154.134C67.7347 154.101 67.6926 154.059 67.6602 154.01C67.6279 153.96 67.6058 153.905 67.5954 153.847C67.5851 153.788 67.5866 153.729 67.5999 153.671C67.6637 153.361 67.7367 153.06 67.8188 152.759C67.8336 152.702 67.8596 152.649 67.8951 152.602C67.9307 152.555 67.9752 152.515 68.026 152.486C68.0769 152.456 68.1331 152.437 68.1914 152.429C68.2498 152.421 68.3091 152.425 68.366 152.44C68.4817 152.472 68.5802 152.548 68.6399 152.653C68.6997 152.757 68.716 152.88 68.6852 152.996C68.6122 153.279 68.5393 153.571 68.4754 153.863C68.4513 153.958 68.3961 154.043 68.3186 154.104C68.241 154.165 68.1455 154.199 68.0468 154.2ZM267.682 151.802C267.588 151.798 267.496 151.767 267.42 151.712C267.344 151.657 267.286 151.58 267.253 151.491C267.162 151.209 267.052 150.926 266.952 150.652C266.93 150.597 266.919 150.537 266.92 150.477C266.92 150.417 266.933 150.358 266.957 150.303C266.981 150.248 267.015 150.198 267.058 150.156C267.101 150.115 267.152 150.082 267.207 150.06C267.264 150.038 267.324 150.027 267.384 150.029C267.444 150.03 267.504 150.043 267.559 150.068C267.614 150.093 267.664 150.128 267.705 150.172C267.747 150.216 267.779 150.268 267.8 150.324C267.91 150.607 268.019 150.899 268.119 151.236C268.161 151.35 268.155 151.475 268.103 151.585C268.052 151.694 267.96 151.779 267.846 151.82C267.786 151.834 267.723 151.834 267.663 151.82L267.682 151.802ZM69.8526 149.066C69.787 149.084 69.7176 149.084 69.652 149.066C69.5459 149.014 69.4644 148.923 69.4252 148.812C69.3859 148.701 69.392 148.579 69.4422 148.473C69.5699 148.199 69.7158 147.926 69.8617 147.652C69.8887 147.599 69.926 147.551 69.9715 147.513C70.0171 147.474 70.0699 147.445 70.1268 147.427C70.1838 147.409 70.2438 147.403 70.3032 147.409C70.3626 147.415 70.4203 147.432 70.4728 147.46C70.5777 147.52 70.6553 147.618 70.6893 147.734C70.7234 147.849 70.7111 147.974 70.6552 148.081L70.2448 148.874C70.2041 148.941 70.1463 148.996 70.0773 149.032C70.0084 149.069 69.9308 149.087 69.8526 149.084V149.066ZM265.338 146.877C265.261 146.878 265.185 146.86 265.118 146.823C265.051 146.786 264.995 146.732 264.955 146.667C264.8 146.412 264.635 146.156 264.471 145.91C264.405 145.808 264.381 145.684 264.405 145.565C264.429 145.445 264.498 145.34 264.599 145.272C264.701 145.207 264.824 145.184 264.942 145.21C265.06 145.236 265.163 145.307 265.228 145.408C265.402 145.664 265.566 145.928 265.73 146.184C265.761 146.235 265.782 146.292 265.792 146.352C265.801 146.411 265.798 146.472 265.784 146.531C265.769 146.589 265.743 146.644 265.708 146.693C265.672 146.741 265.627 146.782 265.575 146.813C265.495 146.861 265.403 146.883 265.31 146.877H265.338ZM72.7346 144.442C72.6346 144.441 72.5381 144.405 72.461 144.341C72.4134 144.306 72.3732 144.262 72.3429 144.211C72.3125 144.161 72.2924 144.104 72.284 144.046C72.2755 143.987 72.2787 143.928 72.2934 143.87C72.3082 143.813 72.3341 143.759 72.3698 143.712L72.9353 142.992C72.9777 142.949 73.0281 142.915 73.0837 142.892C73.1392 142.869 73.1988 142.857 73.259 142.857C73.3192 142.857 73.3789 142.869 73.4344 142.892C73.49 142.915 73.5404 142.949 73.5828 142.992C73.6589 143.067 73.7069 143.166 73.7185 143.272C73.7301 143.378 73.7048 143.486 73.6467 143.575L73.0903 144.287C73.0446 144.347 72.985 144.394 72.9167 144.426C72.8484 144.458 72.7734 144.473 72.6981 144.469L72.7346 144.442ZM262.082 142.499C262.016 142.499 261.952 142.485 261.892 142.458C261.833 142.431 261.779 142.392 261.735 142.344C261.544 142.125 261.343 141.897 261.133 141.678C261.093 141.634 261.061 141.582 261.04 141.526C261.02 141.469 261.01 141.409 261.013 141.349C261.015 141.289 261.03 141.23 261.055 141.175C261.08 141.121 261.116 141.072 261.161 141.031C261.205 140.99 261.257 140.959 261.313 140.938C261.37 140.917 261.43 140.908 261.49 140.91C261.55 140.913 261.609 140.927 261.664 140.953C261.718 140.978 261.767 141.014 261.808 141.058L262.419 141.742C262.462 141.785 262.496 141.835 262.519 141.891C262.542 141.946 262.554 142.006 262.554 142.066C262.554 142.126 262.542 142.186 262.519 142.241C262.496 142.297 262.462 142.347 262.419 142.39C262.369 142.432 262.311 142.463 262.248 142.482C262.185 142.501 262.12 142.507 262.054 142.499H262.082ZM76.3645 140.347C76.2755 140.347 76.1883 140.322 76.1136 140.274C76.0389 140.225 75.98 140.156 75.9441 140.075C75.9082 139.993 75.897 139.903 75.9117 139.815C75.9264 139.728 75.9666 139.646 76.0271 139.581C76.2368 139.362 76.4648 139.152 76.6837 138.942C76.7261 138.9 76.7766 138.866 76.8321 138.843C76.8877 138.819 76.9473 138.807 77.0075 138.807C77.0677 138.807 77.1273 138.819 77.1829 138.843C77.2384 138.866 77.2889 138.9 77.3313 138.942C77.4143 139.026 77.4608 139.139 77.4608 139.257C77.4608 139.375 77.4143 139.488 77.3313 139.572L76.6837 140.201C76.6395 140.251 76.5844 140.29 76.5228 140.315C76.4611 140.34 76.3945 140.351 76.328 140.347H76.3645ZM258.206 138.651C258.094 138.648 257.988 138.606 257.905 138.532L257.221 137.948C257.129 137.869 257.072 137.757 257.061 137.636C257.051 137.515 257.089 137.394 257.166 137.301C257.247 137.211 257.359 137.155 257.479 137.145C257.599 137.135 257.719 137.171 257.814 137.246L258.507 137.848C258.597 137.929 258.653 138.042 258.661 138.162C258.67 138.283 258.631 138.403 258.552 138.495C258.507 138.549 258.449 138.591 258.384 138.618C258.319 138.645 258.248 138.656 258.178 138.651H258.206ZM80.4504 136.754C80.3303 136.749 80.2166 136.698 80.1333 136.611C80.0499 136.524 80.0034 136.409 80.0035 136.288C80.0075 136.222 80.0249 136.157 80.0547 136.097C80.0844 136.038 80.126 135.985 80.1768 135.942L80.8973 135.376C80.9963 135.306 81.1188 135.276 81.2393 135.293C81.3599 135.31 81.4693 135.372 81.5449 135.468C81.6151 135.565 81.6449 135.686 81.6279 135.805C81.6109 135.924 81.5484 136.032 81.4537 136.106L80.7332 136.662C80.6517 136.723 80.5522 136.756 80.4504 136.754ZM253.892 135.258C253.797 135.259 253.705 135.23 253.627 135.176L252.879 134.656C252.779 134.587 252.71 134.481 252.688 134.361C252.666 134.242 252.692 134.118 252.761 134.018C252.83 133.917 252.936 133.848 253.055 133.826C253.175 133.804 253.299 133.83 253.399 133.899L254.156 134.428C254.252 134.501 254.317 134.608 254.335 134.727C254.354 134.846 254.326 134.968 254.257 135.066C254.216 135.125 254.161 135.173 254.098 135.207C254.034 135.24 253.963 135.258 253.892 135.258ZM84.9103 133.589C84.8137 133.588 84.72 133.556 84.6427 133.498C84.5654 133.44 84.5084 133.359 84.48 133.267C84.4516 133.175 84.4532 133.076 84.4847 132.985C84.5161 132.893 84.5757 132.814 84.6549 132.759L85.4301 132.267C85.5329 132.202 85.657 132.182 85.775 132.209C85.893 132.237 85.9953 132.31 86.0594 132.412C86.1235 132.515 86.1442 132.639 86.1168 132.757C86.0894 132.875 86.0163 132.978 85.9135 133.042L85.1565 133.525C85.0797 133.572 84.9914 133.598 84.9012 133.598L84.9103 133.589ZM249.304 132.267C249.224 132.268 249.144 132.246 249.076 132.203L248.292 131.738C248.24 131.709 248.195 131.671 248.158 131.624C248.121 131.578 248.094 131.525 248.078 131.468C248.062 131.411 248.057 131.352 248.064 131.293C248.071 131.235 248.09 131.178 248.119 131.127C248.181 131.022 248.282 130.947 248.4 130.916C248.517 130.886 248.642 130.902 248.748 130.962L249.532 131.428C249.584 131.456 249.63 131.494 249.666 131.541C249.703 131.587 249.73 131.641 249.745 131.698C249.76 131.755 249.764 131.815 249.756 131.873C249.747 131.932 249.727 131.988 249.696 132.039C249.657 132.107 249.599 132.165 249.531 132.205C249.462 132.245 249.384 132.266 249.304 132.267ZM89.6164 130.789C89.5147 130.79 89.4157 130.756 89.3352 130.694C89.2548 130.632 89.1974 130.544 89.1722 130.446C89.1471 130.347 89.1556 130.243 89.1964 130.15C89.2372 130.057 89.308 129.98 89.3975 129.932L90.2001 129.494C90.3077 129.437 90.4335 129.425 90.5498 129.461C90.6661 129.497 90.7634 129.578 90.8202 129.686C90.8771 129.793 90.8888 129.919 90.8529 130.035C90.817 130.152 90.7364 130.249 90.6287 130.306L89.8352 130.734C89.768 130.771 89.6928 130.789 89.6164 130.789ZM244.525 129.649C244.452 129.652 244.38 129.637 244.315 129.604L243.504 129.193C243.398 129.142 243.316 129.051 243.277 128.94C243.238 128.829 243.244 128.707 243.294 128.6C243.32 128.546 243.357 128.498 243.402 128.458C243.447 128.419 243.499 128.388 243.556 128.369C243.613 128.349 243.673 128.341 243.733 128.345C243.793 128.349 243.851 128.364 243.905 128.391L244.726 128.81C244.779 128.839 244.825 128.877 244.863 128.924C244.901 128.971 244.929 129.025 244.946 129.082C244.963 129.14 244.968 129.2 244.962 129.26C244.955 129.32 244.937 129.378 244.908 129.43C244.871 129.502 244.815 129.562 244.746 129.604C244.676 129.646 244.597 129.668 244.516 129.667L244.525 129.649ZM94.4957 128.299C94.4103 128.3 94.3265 128.276 94.2539 128.231C94.1813 128.185 94.1229 128.121 94.0853 128.044C94.0343 127.935 94.0277 127.81 94.0668 127.696C94.1059 127.582 94.1878 127.488 94.2951 127.433L95.125 127.05C95.2311 127.015 95.3464 127.02 95.449 127.064C95.5516 127.108 95.6344 127.189 95.6816 127.29C95.7289 127.391 95.7373 127.506 95.7053 127.613C95.6733 127.72 95.6031 127.812 95.5081 127.871L94.6873 128.263C94.6265 128.288 94.5614 128.3 94.4957 128.299ZM239.591 127.26C239.532 127.278 239.468 127.278 239.409 127.26L238.597 126.913C238.49 126.863 238.407 126.773 238.365 126.663C238.323 126.553 238.325 126.431 238.371 126.323C238.417 126.214 238.503 126.127 238.612 126.081C238.72 126.035 238.842 126.032 238.953 126.074L239.792 126.439C239.911 126.465 240.015 126.537 240.081 126.639C240.148 126.741 240.172 126.865 240.148 126.984C240.124 127.104 240.054 127.209 239.953 127.278C239.853 127.346 239.729 127.372 239.609 127.351L239.591 127.26ZM99.5028 126.092C99.4131 126.091 99.3257 126.063 99.2512 126.013C99.1768 125.963 99.1185 125.892 99.0833 125.81C99.0403 125.698 99.0419 125.574 99.0877 125.464C99.1336 125.354 99.2202 125.265 99.3295 125.217L100.178 124.87C100.233 124.848 100.293 124.837 100.353 124.838C100.413 124.839 100.472 124.851 100.527 124.875C100.582 124.899 100.632 124.933 100.674 124.976C100.716 125.019 100.748 125.07 100.771 125.126C100.794 125.181 100.807 125.24 100.807 125.3C100.808 125.36 100.796 125.419 100.773 125.474C100.75 125.529 100.716 125.58 100.673 125.622C100.631 125.663 100.58 125.696 100.524 125.718L99.6761 126.056C99.616 126.07 99.5537 126.07 99.4937 126.056L99.5028 126.092ZM234.538 125.18H234.374L233.526 124.852C233.405 124.823 233.301 124.747 233.236 124.641C233.171 124.535 233.15 124.408 233.179 124.287C233.209 124.166 233.284 124.061 233.39 123.996C233.496 123.931 233.624 123.911 233.745 123.94H233.845L234.703 124.268C234.813 124.313 234.901 124.399 234.949 124.508C234.997 124.617 235 124.741 234.958 124.852C234.921 124.932 234.859 124.999 234.783 125.043C234.706 125.087 234.617 125.106 234.529 125.098L234.538 125.18ZM104.601 124.177C104.509 124.172 104.419 124.142 104.343 124.088C104.268 124.035 104.208 123.962 104.172 123.876C104.131 123.762 104.137 123.637 104.188 123.528C104.24 123.418 104.332 123.334 104.446 123.292L105.358 122.982C105.472 122.941 105.597 122.947 105.707 122.998C105.816 123.05 105.901 123.142 105.942 123.256C105.98 123.37 105.971 123.494 105.918 123.601C105.865 123.709 105.772 123.791 105.659 123.831L104.802 124.141C104.739 124.171 104.67 124.183 104.601 124.177ZM229.376 123.265H229.23L228.373 122.973C228.252 122.936 228.151 122.852 228.092 122.74C228.033 122.628 228.021 122.497 228.058 122.376C228.096 122.255 228.18 122.154 228.292 122.095C228.404 122.036 228.535 122.024 228.656 122.061L229.522 122.353C229.635 122.389 229.729 122.467 229.785 122.571C229.841 122.674 229.855 122.796 229.823 122.909C229.8 123.011 229.744 123.101 229.662 123.166C229.581 123.231 229.48 123.266 229.376 123.265ZM109.791 122.353C109.731 122.362 109.669 122.359 109.611 122.344C109.552 122.329 109.497 122.303 109.448 122.266C109.4 122.23 109.359 122.184 109.329 122.131C109.298 122.079 109.278 122.021 109.271 121.961C109.26 121.902 109.262 121.841 109.276 121.782C109.29 121.723 109.315 121.668 109.351 121.619C109.387 121.571 109.432 121.53 109.484 121.499C109.536 121.469 109.594 121.449 109.654 121.441L110.566 121.168C110.681 121.133 110.804 121.146 110.91 121.202C111.016 121.258 111.095 121.354 111.131 121.468C111.15 121.523 111.158 121.581 111.154 121.638C111.15 121.696 111.135 121.752 111.11 121.803C111.084 121.855 111.049 121.901 111.006 121.939C110.963 121.977 110.912 122.006 110.858 122.025L109.946 122.298C109.907 122.323 109.863 122.338 109.818 122.344L109.791 122.353ZM224.159 121.624C224.117 121.633 224.074 121.633 224.032 121.624L223.12 121.368C223.005 121.329 222.909 121.248 222.853 121.14C222.796 121.033 222.783 120.908 222.816 120.791C222.848 120.674 222.925 120.575 223.029 120.512C223.133 120.45 223.257 120.43 223.375 120.456L224.287 120.712C224.345 120.727 224.4 120.754 224.447 120.792C224.494 120.829 224.534 120.875 224.563 120.928C224.592 120.981 224.61 121.039 224.616 121.099C224.622 121.159 224.615 121.22 224.597 121.277C224.582 121.382 224.529 121.477 224.448 121.546C224.368 121.615 224.265 121.652 224.159 121.651V121.624ZM115.044 120.812C114.984 120.821 114.924 120.818 114.866 120.803C114.807 120.788 114.753 120.761 114.705 120.724C114.657 120.688 114.618 120.642 114.588 120.59C114.558 120.537 114.54 120.479 114.533 120.42C114.524 120.36 114.527 120.299 114.542 120.24C114.557 120.181 114.584 120.126 114.62 120.077C114.657 120.029 114.702 119.988 114.755 119.958C114.807 119.927 114.865 119.908 114.925 119.9L115.837 119.663C115.953 119.646 116.07 119.673 116.167 119.738C116.264 119.802 116.333 119.9 116.363 120.013C116.392 120.126 116.379 120.245 116.326 120.349C116.272 120.452 116.183 120.533 116.074 120.575L115.162 120.812C115.123 120.821 115.083 120.821 115.044 120.812ZM218.888 120.173H218.769L217.857 119.945C217.74 119.917 217.639 119.844 217.576 119.741C217.513 119.639 217.492 119.516 217.52 119.398C217.55 119.28 217.625 119.179 217.729 119.116C217.833 119.053 217.958 119.033 218.076 119.061L218.988 119.289C219.048 119.296 219.106 119.315 219.159 119.344C219.211 119.374 219.257 119.414 219.295 119.461C219.332 119.508 219.359 119.563 219.376 119.621C219.392 119.679 219.397 119.74 219.39 119.8C219.382 119.859 219.363 119.917 219.334 119.97C219.304 120.022 219.265 120.069 219.217 120.106C219.17 120.143 219.116 120.171 219.057 120.187C218.999 120.203 218.939 120.208 218.879 120.201L218.888 120.173ZM120.388 119.453C120.267 119.466 120.146 119.431 120.051 119.355C119.956 119.279 119.895 119.168 119.882 119.047C119.869 118.926 119.904 118.805 119.98 118.71C120.056 118.615 120.167 118.554 120.288 118.541L121.2 118.331C121.321 118.301 121.449 118.32 121.556 118.384C121.663 118.448 121.74 118.552 121.77 118.673C121.8 118.794 121.781 118.922 121.717 119.029C121.653 119.136 121.549 119.213 121.428 119.243L120.516 119.453H120.388ZM213.607 118.888H213.507L212.595 118.696C212.536 118.683 212.48 118.659 212.431 118.624C212.382 118.59 212.34 118.546 212.308 118.495C212.275 118.444 212.254 118.387 212.243 118.328C212.233 118.268 212.235 118.208 212.248 118.149C212.259 118.091 212.282 118.035 212.314 117.986C212.347 117.937 212.389 117.895 212.439 117.863C212.488 117.83 212.544 117.808 212.602 117.798C212.66 117.787 212.72 117.789 212.777 117.802L213.689 118.003C213.749 118.009 213.808 118.026 213.861 118.054C213.914 118.083 213.961 118.121 213.999 118.168C214.037 118.215 214.066 118.268 214.083 118.326C214.1 118.384 214.106 118.445 214.1 118.505C214.086 118.626 214.025 118.738 213.929 118.815C213.833 118.892 213.711 118.928 213.589 118.915L213.607 118.888ZM125.733 118.267C125.629 118.268 125.528 118.233 125.447 118.168C125.366 118.104 125.309 118.013 125.286 117.912C125.264 117.792 125.289 117.669 125.355 117.567C125.421 117.465 125.524 117.393 125.642 117.365L126.554 117.182C126.673 117.161 126.797 117.187 126.897 117.255C126.998 117.323 127.068 117.428 127.092 117.547C127.104 117.606 127.104 117.666 127.093 117.725C127.081 117.784 127.058 117.84 127.025 117.89C126.992 117.94 126.95 117.983 126.9 118.016C126.851 118.05 126.795 118.073 126.736 118.085L125.824 118.258L125.733 118.267ZM208.254 117.784H208.162L207.25 117.62C207.131 117.596 207.027 117.526 206.958 117.425C206.89 117.325 206.864 117.201 206.886 117.082C206.908 116.963 206.976 116.859 207.075 116.79C207.174 116.722 207.296 116.696 207.415 116.717L208.327 116.89C208.445 116.912 208.55 116.98 208.618 117.08C208.686 117.179 208.713 117.301 208.691 117.419C208.668 117.529 208.606 117.626 208.518 117.694C208.43 117.763 208.32 117.798 208.208 117.793L208.254 117.784ZM131.114 117.246C130.993 117.257 130.873 117.219 130.779 117.141C130.686 117.064 130.628 116.952 130.617 116.831C130.606 116.71 130.644 116.59 130.721 116.497C130.799 116.403 130.911 116.345 131.032 116.334L131.944 116.179C132.004 116.169 132.065 116.17 132.124 116.184C132.183 116.197 132.239 116.223 132.289 116.258C132.339 116.293 132.381 116.337 132.413 116.389C132.445 116.44 132.467 116.498 132.477 116.557C132.488 116.617 132.486 116.679 132.472 116.738C132.459 116.797 132.434 116.853 132.399 116.903C132.363 116.952 132.319 116.994 132.267 117.027C132.216 117.059 132.159 117.081 132.099 117.091L131.187 117.246H131.114ZM202.864 116.836H202.791L201.879 116.69C201.76 116.669 201.654 116.604 201.582 116.507C201.511 116.41 201.48 116.289 201.495 116.17C201.518 116.051 201.585 115.945 201.684 115.876C201.783 115.806 201.905 115.777 202.024 115.796L202.936 115.933C203.055 115.955 203.161 116.023 203.231 116.121C203.3 116.22 203.329 116.342 203.31 116.462C203.306 116.522 203.289 116.58 203.262 116.634C203.235 116.687 203.197 116.735 203.151 116.774C203.106 116.813 203.053 116.842 202.995 116.861C202.938 116.879 202.878 116.886 202.818 116.881L202.864 116.836ZM136.513 116.38C136.454 116.385 136.394 116.378 136.337 116.359C136.28 116.34 136.228 116.311 136.183 116.272C136.138 116.233 136.101 116.185 136.075 116.131C136.049 116.078 136.033 116.02 136.03 115.96C136.025 115.9 136.032 115.84 136.05 115.783C136.068 115.725 136.098 115.672 136.137 115.627C136.176 115.581 136.224 115.543 136.277 115.516C136.331 115.489 136.389 115.472 136.449 115.468L137.361 115.34C137.481 115.324 137.602 115.355 137.699 115.426C137.795 115.498 137.861 115.604 137.881 115.723C137.897 115.844 137.865 115.966 137.791 116.063C137.718 116.16 137.609 116.225 137.489 116.243L136.577 116.37L136.513 116.38ZM197.446 116.033H197.382L196.47 115.914C196.35 115.899 196.242 115.836 196.169 115.74C196.095 115.644 196.062 115.523 196.078 115.404C196.092 115.287 196.151 115.18 196.243 115.106C196.336 115.033 196.453 114.999 196.57 115.012L197.482 115.13C197.6 115.144 197.707 115.203 197.78 115.296C197.854 115.388 197.888 115.505 197.875 115.623C197.87 115.683 197.854 115.741 197.826 115.795C197.799 115.848 197.761 115.896 197.716 115.935C197.67 115.974 197.617 116.003 197.56 116.022C197.502 116.04 197.442 116.047 197.382 116.042L197.446 116.033ZM191.974 115.385L191.062 115.285C190.942 115.271 190.833 115.211 190.758 115.117C190.683 115.023 190.648 114.903 190.661 114.784C190.679 114.666 190.74 114.559 190.833 114.485C190.926 114.411 191.043 114.374 191.162 114.382L192.074 114.473C192.195 114.473 192.311 114.522 192.397 114.607C192.482 114.693 192.53 114.809 192.53 114.929C192.53 115.05 192.482 115.166 192.397 115.252C192.311 115.337 192.195 115.385 192.074 115.385H191.974ZM186.502 114.875L185.59 114.802C185.53 114.797 185.471 114.781 185.418 114.753C185.364 114.726 185.316 114.689 185.277 114.643C185.238 114.597 185.209 114.544 185.19 114.487C185.172 114.43 185.165 114.369 185.17 114.309C185.184 114.19 185.242 114.08 185.334 114.003C185.425 113.925 185.543 113.884 185.663 113.89L186.575 113.963C186.633 113.966 186.691 113.981 186.744 114.007C186.797 114.033 186.844 114.069 186.883 114.113C186.922 114.157 186.952 114.208 186.971 114.264C186.99 114.319 186.998 114.378 186.994 114.437C186.993 114.497 186.98 114.556 186.956 114.611C186.932 114.666 186.897 114.715 186.854 114.757C186.811 114.798 186.76 114.831 186.704 114.853C186.648 114.874 186.589 114.885 186.529 114.884L186.502 114.875ZM181.029 114.501H180.117C179.996 114.494 179.883 114.439 179.803 114.348C179.723 114.257 179.681 114.138 179.689 114.017C179.696 113.897 179.751 113.783 179.842 113.703C179.932 113.623 180.051 113.582 180.172 113.589L181.084 113.644C181.205 113.644 181.321 113.692 181.407 113.777C181.492 113.863 181.54 113.979 181.54 114.1C181.54 114.22 181.492 114.336 181.407 114.422C181.321 114.508 181.205 114.556 181.084 114.556L181.029 114.501ZM175.557 114.255H174.645C174.585 114.253 174.526 114.24 174.471 114.216C174.416 114.192 174.367 114.158 174.325 114.115C174.284 114.071 174.251 114.02 174.23 113.965C174.208 113.909 174.197 113.849 174.198 113.789C174.199 113.729 174.213 113.669 174.237 113.613C174.262 113.558 174.297 113.508 174.342 113.466C174.386 113.425 174.438 113.392 174.495 113.371C174.551 113.35 174.612 113.34 174.673 113.343H175.585C175.706 113.343 175.822 113.391 175.907 113.476C175.993 113.562 176.041 113.678 176.041 113.799C176.041 113.92 175.993 114.036 175.907 114.121C175.822 114.207 175.706 114.255 175.585 114.255H175.557ZM170.085 114.145H169.173C169.052 114.145 168.936 114.097 168.851 114.012C168.765 113.926 168.717 113.81 168.717 113.689C168.722 113.57 168.771 113.456 168.856 113.372C168.94 113.287 169.054 113.238 169.173 113.233H170.085C170.145 113.234 170.204 113.247 170.259 113.271C170.314 113.295 170.363 113.33 170.405 113.373C170.446 113.416 170.479 113.467 170.501 113.523C170.523 113.579 170.533 113.638 170.532 113.698C170.532 113.812 170.489 113.922 170.411 114.005C170.333 114.088 170.226 114.138 170.112 114.145H170.085Z" fill="#ED4ABF"/>
<path d="M64.9185 170.087C74.7558 170.087 82.7305 162.113 82.7305 152.276C82.7305 142.439 74.7558 134.464 64.9185 134.464C55.0812 134.464 47.1065 142.439 47.1065 152.276C47.1065 162.113 55.0812 170.087 64.9185 170.087Z" fill="white"/>
<path d="M62.8938 150.023H73.674V154.2H62.912V157.365H68.0468V159.745H62.8938V163.393H58.1695V159.745H55.9532V157.328H58.133V141.131H73.8838V145.29H63.3589C62.9576 145.29 62.8299 145.372 62.8391 145.81V149.458L62.8938 150.023Z" fill="#ED4ABF"/>
<path d="M112.746 129.613C122.583 129.613 130.558 121.638 130.558 111.801C130.558 101.964 122.583 93.99 112.746 93.99C102.908 93.99 94.9335 101.964 94.9335 111.801C94.9335 121.638 102.908 129.613 112.746 129.613Z" fill="white"/>
<path d="M124.401 105.445L120.197 107.515C118.637 105.043 116.476 103.803 113.512 104.241C112.397 104.39 111.334 104.807 110.416 105.456C109.498 106.106 108.751 106.969 108.24 107.971H116.758V110.588H107.41V112.859H116.768V115.531H108.176C108.66 116.545 109.387 117.422 110.292 118.086C111.198 118.75 112.254 119.179 113.366 119.334C114.698 119.605 116.083 119.433 117.308 118.843C118.533 118.254 119.532 117.28 120.151 116.069L124.447 118.149C123.927 118.851 123.489 119.535 122.96 120.155C121.973 121.325 120.741 122.263 119.351 122.903C117.961 123.543 116.447 123.869 114.916 123.858C112.47 123.941 110.05 123.338 107.93 122.116C105.602 120.798 103.837 118.673 102.969 116.142C102.804 115.686 102.604 115.449 102.056 115.522C101.689 115.55 101.32 115.55 100.953 115.522V112.877H102.166V110.607H100.953V107.98H102.339C102.455 108.005 102.576 107.983 102.677 107.92C102.777 107.857 102.849 107.758 102.877 107.643C103.472 105.781 104.567 104.118 106.042 102.836C107.452 101.585 109.141 100.687 110.967 100.219C112.795 99.7257 114.704 99.617 116.576 99.8998C117.922 100.079 119.217 100.53 120.383 101.224C121.549 101.919 122.563 102.842 123.362 103.94C123.681 104.359 123.964 104.852 124.274 105.253C124.323 105.312 124.366 105.376 124.401 105.445Z" fill="#ED4ABF"/>
<path d="M225.92 132.093C235.757 132.093 243.732 124.119 243.732 114.282C243.732 104.445 235.757 96.4706 225.92 96.4706C216.082 96.4706 208.108 104.445 208.108 114.282C208.108 124.119 216.082 132.093 225.92 132.093Z" fill="white"/>
<path d="M219.362 126.101L217.702 122.764C218.122 122.517 218.55 122.298 218.952 122.034C220.08 121.399 220.946 120.384 221.396 119.17C221.618 118.329 221.52 117.436 221.122 116.662C221.122 116.571 220.876 116.507 220.739 116.507H216.945V113.662H219.18C218.815 112.996 218.432 112.376 218.14 111.71C217.728 110.793 217.561 109.784 217.657 108.783C217.753 107.782 218.108 106.823 218.687 106.001C219.297 105.072 220.092 104.279 221.023 103.672C221.954 103.064 223 102.656 224.096 102.472C226.464 101.946 228.941 102.232 231.127 103.283C232.488 103.978 233.591 105.09 234.274 106.457L230.389 108.673C230.08 108.208 229.742 107.763 229.376 107.342C228.896 106.861 228.294 106.522 227.634 106.362C226.975 106.201 226.284 106.224 225.637 106.43C224.787 106.605 224.041 107.111 223.564 107.836C223.087 108.561 222.917 109.446 223.092 110.297C223.148 110.572 223.24 110.839 223.366 111.09C223.739 111.915 224.178 112.708 224.679 113.461C224.738 113.525 224.811 113.575 224.891 113.608C224.971 113.641 225.058 113.656 225.144 113.653H229.796V116.489H225.874C225.976 117.334 225.846 118.191 225.499 118.968C225.152 119.746 224.601 120.414 223.904 120.903L224.579 120.821C225.84 120.704 227.108 120.957 228.227 121.551C228.899 121.875 229.648 122.007 230.39 121.931C231.132 121.856 231.839 121.575 232.432 121.122C232.606 120.984 232.767 120.832 232.915 120.666C233.572 121.97 234.21 123.256 234.867 124.578C234.266 125.21 233.507 125.67 232.669 125.91C230.846 126.503 228.882 126.503 227.06 125.91C226.53 125.73 226.009 125.523 225.5 125.29C224.787 124.974 224.014 124.817 223.234 124.832C222.454 124.846 221.687 125.03 220.986 125.372L219.362 126.101Z" fill="#ED4ABF"/>
<path d="M258.288 194.355C268.125 194.355 276.1 186.381 276.1 176.544C276.1 166.707 268.125 158.733 258.288 158.733C248.45 158.733 240.476 166.707 240.476 176.544C240.476 186.381 248.45 194.355 258.288 194.355Z" fill="white"/>
<path d="M258.315 174.465L259.492 172.549C260.75 170.488 262.018 168.427 263.267 166.357C263.327 166.232 263.424 166.127 263.544 166.059C263.665 165.99 263.804 165.961 263.942 165.974H268.694C266.523 169.321 264.407 172.604 262.237 175.942H267.782V178.477H260.568V180.985H267.782V183.457H260.577V187.105H256.09V183.457H248.894V180.976H256.044V178.468H248.885V175.942H254.421L247.927 165.91H252.697C252.802 165.897 252.909 165.917 253.004 165.965C253.098 166.014 253.175 166.09 253.226 166.184C254.266 167.892 255.311 169.595 256.363 171.291L258.315 174.465Z" fill="#ED4ABF"/>
<path d="M112.317 212.732C122.154 212.732 130.129 204.758 130.129 194.921C130.129 185.084 122.154 177.109 112.317 177.109C102.48 177.109 94.5049 185.084 94.5049 194.921C94.5049 204.758 102.48 212.732 112.317 212.732Z" fill="white"/>
<path d="M110.83 183.457V180.447H114.342V183.539C116.867 183.844 119.233 184.931 121.109 186.649L118.263 190.406C117.169 189.375 115.833 188.635 114.378 188.254V192.395C115.29 192.705 116.202 192.96 117.05 193.307C118.569 193.715 119.871 194.695 120.685 196.041C121.499 197.387 121.762 198.995 121.419 200.53C121.285 201.466 120.945 202.361 120.423 203.149C119.9 203.938 119.21 204.601 118.4 205.09C117.287 205.761 116.043 206.187 114.752 206.339C114.405 206.339 114.342 206.512 114.351 206.822V209.367H110.83V206.512C109.918 206.321 109.052 206.166 108.204 205.938C106.454 205.491 104.847 204.606 103.534 203.366C102.978 202.855 102.987 202.837 103.425 202.217C104.182 201.132 104.948 200.055 105.75 198.924C107.091 200.403 108.861 201.423 110.812 201.843V197.137C109.809 196.8 108.833 196.526 107.893 196.143C107.055 195.872 106.285 195.423 105.636 194.826C104.988 194.229 104.476 193.499 104.136 192.686C103.822 191.885 103.675 191.028 103.707 190.169C103.738 189.309 103.946 188.465 104.318 187.689C104.825 186.683 105.555 185.806 106.453 185.126C107.351 184.446 108.393 183.981 109.499 183.767C109.918 183.639 110.338 183.576 110.83 183.457ZM114.369 201.779C114.894 201.724 115.382 201.485 115.748 201.105C116.113 200.724 116.333 200.226 116.366 199.7C116.366 198.915 115.454 198.268 114.369 198.049V201.779ZM110.785 191.455V188.017C110.3 188.028 109.838 188.222 109.491 188.561C109.144 188.899 108.938 189.357 108.915 189.841C108.915 190.58 109.718 191.264 110.785 191.446V191.455Z" fill="#ED4ABF"/>
</g>
<defs>
<linearGradient id="paint0_linear_88_2688" x1="150.285" y1="67.1134" x2="197.793" y2="59.9172" gradientUnits="userSpaceOnUse">
<stop offset="0.01"/>
<stop offset="0.13" stop-opacity="0.69"/>
<stop offset="0.25" stop-opacity="0.32"/>
<stop offset="1" stop-opacity="0"/>
</linearGradient>
<linearGradient id="paint1_linear_88_2688" x1="209.831" y1="161.058" x2="155.33" y2="211.439" gradientUnits="userSpaceOnUse">
<stop offset="0.01"/>
<stop offset="0.13" stop-opacity="0.69"/>
<stop offset="0.25" stop-opacity="0.32"/>
<stop offset="1" stop-opacity="0"/>
</linearGradient>
<linearGradient id="paint2_linear_88_2688" x1="186.775" y1="166.047" x2="178.139" y2="179.745" gradientUnits="userSpaceOnUse">
<stop offset="0.01"/>
<stop offset="0.13" stop-opacity="0.69"/>
<stop offset="0.25" stop-opacity="0.32"/>
<stop offset="1" stop-opacity="0"/>
</linearGradient>
<linearGradient id="paint3_linear_88_2688" x1="204.916" y1="192.586" x2="193.753" y2="167.478" gradientUnits="userSpaceOnUse">
<stop offset="0.01"/>
<stop offset="0.13" stop-opacity="0.69"/>
<stop offset="0.25" stop-opacity="0.32"/>
<stop offset="1" stop-opacity="0"/>
</linearGradient>
<linearGradient id="paint4_linear_88_2688" x1="124.638" y1="141.706" x2="192.311" y2="144.442" gradientUnits="userSpaceOnUse">
<stop/>
<stop offset="1" stop-opacity="0"/>
</linearGradient>
<linearGradient id="paint5_linear_88_2688" x1="208.518" y1="117.638" x2="138.155" y2="107.624" gradientUnits="userSpaceOnUse">
<stop/>
<stop offset="1" stop-opacity="0"/>
</linearGradient>
<linearGradient id="paint6_linear_88_2688" x1="162.926" y1="74.6465" x2="150.851" y2="101.004" gradientUnits="userSpaceOnUse">
<stop offset="0.01"/>
<stop offset="0.13" stop-opacity="0.69"/>
<stop offset="0.25" stop-opacity="0.32"/>
<stop offset="1" stop-opacity="0"/>
</linearGradient>
<linearGradient id="paint7_linear_88_2688" x1="176.415" y1="135.65" x2="168.617" y2="118.203" gradientUnits="userSpaceOnUse">
<stop/>
<stop offset="1" stop-opacity="0"/>
</linearGradient>
<clipPath id="clip0_88_2688">
<rect width="341" height="257" fill="white"/>
</clipPath>
</defs>
</svg>
