<svg width="390" height="294" viewBox="0 0 390 294" fill="none" xmlns="http://www.w3.org/2000/svg">
<path opacity="0.24" d="M238.186 281.288C208.378 276.269 178.127 283.936 148.184 288.087C118.241 292.239 85.246 292.098 60.9319 274.148C32.3256 253.016 24.3066 213.582 25.0583 178.016C25.9001 136.846 36.6692 93.8248 65.4683 64.3837C80.8252 48.6894 100.32 37.8024 119.597 27.3011C143.699 14.1519 169.041 0.944794 196.471 0.0450431C220.451 -0.617772 243.729 8.17967 261.279 24.5375C274.946 37.3911 284.224 54.1393 295.623 69.0559C316.673 96.6012 345.691 119.024 358.497 151.235C370.153 180.548 365.886 215.664 347.516 241.3C329.145 266.937 297.313 282.316 265.822 280.735" fill="#ED4ABF"/>
<path d="M265.828 254.141L95.3725 277.245C92.3331 277.658 89.2524 276.873 86.7796 275.058C84.3068 273.243 82.6351 270.539 82.1167 267.515L68.9894 191.197C68.7217 189.637 68.7692 188.039 69.129 186.498C69.4889 184.956 70.1538 183.503 71.0845 182.223C72.0152 180.942 73.1929 179.862 74.5481 179.044C75.9032 178.227 77.4084 177.689 78.9747 177.463L233.829 155.181C236.492 154.796 239.206 155.33 241.524 156.695C243.843 158.059 245.627 160.173 246.584 162.688L275.287 238.19C275.921 239.856 276.171 241.643 276.019 243.42C275.866 245.196 275.315 246.915 274.406 248.448C273.496 249.982 272.253 251.29 270.768 252.276C269.283 253.261 267.594 253.899 265.828 254.141Z" fill="#ED4ABF"/>
<path d="M265.828 254.141L95.3725 277.245C92.3331 277.658 89.2524 276.873 86.7796 275.058C84.3068 273.243 82.6351 270.539 82.1167 267.515L68.9894 191.197C68.7217 189.637 68.7692 188.039 69.129 186.498C69.4889 184.956 70.1538 183.503 71.0845 182.223C72.0152 180.942 73.1929 179.862 74.5481 179.044C75.9032 178.227 77.4084 177.689 78.9747 177.463L233.829 155.181C236.492 154.796 239.206 155.33 241.524 156.695C243.843 158.059 245.627 160.173 246.584 162.688L275.287 238.19C275.921 239.856 276.171 241.643 276.019 243.42C275.866 245.196 275.315 246.915 274.406 248.448C273.496 249.982 272.253 251.29 270.768 252.276C269.283 253.261 267.594 253.899 265.828 254.141Z" fill="url(#paint0_linear_291_255)"/>
<path d="M234.067 149.468L75.5755 172.219C73.0531 172.583 70.4874 171.957 68.4163 170.472C66.3452 168.986 64.9294 166.756 64.4658 164.25L44.3797 54.1072C44.1387 52.7824 44.1713 51.4222 44.4754 50.1105C44.7794 48.7987 45.3486 47.563 46.1479 46.4794C46.9472 45.3959 47.9596 44.4873 49.123 43.8096C50.2864 43.132 51.5761 42.6995 52.9128 42.5389L227.192 21.5747C228.544 21.4122 229.916 21.5315 231.22 21.9252C232.525 22.3189 233.733 22.9785 234.77 23.8623C235.807 24.7461 236.65 25.8351 237.246 27.0607C237.841 28.2863 238.176 29.622 238.231 30.9836L242.516 139.326C242.608 141.762 241.796 144.145 240.236 146.018C238.676 147.89 236.479 149.119 234.067 149.468Z" fill="#ED4ABF"/>
<path d="M228.94 149.147L81.2366 170.355C78.8811 170.694 76.4858 170.107 74.5541 168.717C72.6225 167.327 71.305 165.242 70.8787 162.9L52.1612 60.2576C51.9347 59.0225 51.9634 57.754 52.2457 56.5305C52.528 55.3069 53.0578 54.1541 53.8024 53.1431C54.5471 52.1322 55.4909 51.2845 56.5756 50.6522C57.6604 50.02 58.863 49.6166 60.1095 49.467L222.533 29.9295C223.794 29.7796 225.071 29.8921 226.286 30.2599C227.501 30.6277 228.626 31.2429 229.592 32.0668C230.558 32.8908 231.342 33.9056 231.897 35.0475C232.451 36.1894 232.764 37.4336 232.814 38.7021L236.817 139.654C236.912 141.931 236.159 144.162 234.704 145.916C233.249 147.67 231.195 148.821 228.94 149.147Z" fill="#ED4ABF"/>
<path d="M228.94 149.147L81.2366 170.355C78.8811 170.694 76.4858 170.107 74.5541 168.717C72.6225 167.327 71.305 165.242 70.8787 162.9L52.1612 60.2576C51.9347 59.0225 51.9634 57.754 52.2457 56.5305C52.528 55.3069 53.0578 54.1541 53.8024 53.1431C54.5471 52.1322 55.4909 51.2845 56.5756 50.6522C57.6604 50.02 58.863 49.6166 60.1095 49.467L222.533 29.9295C223.794 29.7796 225.071 29.8921 226.286 30.2599C227.501 30.6277 228.626 31.2429 229.592 32.0668C230.558 32.8908 231.342 33.9056 231.897 35.0475C232.451 36.1894 232.764 37.4336 232.814 38.7021L236.817 139.654C236.912 141.931 236.159 144.162 234.704 145.916C233.249 147.67 231.195 148.821 228.94 149.147Z" fill="url(#paint1_linear_291_255)"/>
<path d="M191.517 75.3413L184.7 69.1587L173.449 71.0546L176.302 83.7411L195.958 80.8876L191.517 75.3413Z" fill="#ED4ABF"/>
<path d="M191.517 75.3413L184.7 69.1587L173.449 71.0546L176.302 83.7411L195.958 80.8876L191.517 75.3413Z" fill="url(#paint2_linear_291_255)"/>
<path d="M178.307 75.9197L166.734 76.3953L165.629 85.1164L183.543 82.7385L178.307 75.9197Z" fill="#ED4ABF"/>
<path d="M178.307 75.9197L166.734 76.3953L165.629 85.1164L183.543 82.7385L178.307 75.9197Z" fill="url(#paint3_linear_291_255)"/>
<path d="M169.96 71.8516L176.302 83.7411L158.702 85.4892L159.017 72.6421L169.96 71.8516Z" fill="#ED4ABF"/>
<path d="M169.96 71.8516L176.302 83.7411L158.702 85.4892L159.017 72.6421L169.96 71.8516Z" fill="url(#paint4_linear_291_255)"/>
<path d="M208.853 79.7243L209.49 66.8322L188.986 67.0378L187.501 82.8991L208.853 79.7243Z" fill="#ED4ABF"/>
<path d="M208.853 79.7243L209.49 66.8322L188.986 67.0378L187.501 82.8991L208.853 79.7243Z" fill="url(#paint5_linear_291_255)"/>
<path d="M264.877 246.847L94.4023 269.983C91.3629 270.395 88.2822 269.611 85.8094 267.796C83.3366 265.981 81.6649 263.277 81.1465 260.253L68.0192 183.935C67.746 182.371 67.79 180.769 68.1485 179.222C68.507 177.676 69.1727 176.218 70.1061 174.934C71.0394 173.651 72.2213 172.568 73.5815 171.75C74.9417 170.933 76.4524 170.397 78.0237 170.175L232.878 147.887C235.541 147.502 238.255 148.036 240.573 149.4C242.892 150.765 244.676 152.879 245.633 155.393L274.355 230.895C274.989 232.563 275.239 234.352 275.086 236.129C274.932 237.907 274.379 239.627 273.468 241.16C272.556 242.694 271.31 244.002 269.823 244.987C268.335 245.971 266.645 246.607 264.877 246.847Z" fill="#ED4ABF"/>
<path d="M103.372 237.656L242.928 219.584C251.313 218.357 256.421 210.497 254.295 202.033L241.328 170.259C239.22 161.794 230.713 155.927 222.321 157.161L91.3953 176.364C83.01 177.591 77.9018 185.451 80.0286 193.916L84.3658 224.558C86.4734 233.016 94.9872 238.89 103.372 237.656Z" fill="url(#paint6_linear_291_255)"/>
<path d="M211.218 246.924C211.899 249.456 212.644 252.097 214.431 253.993C218.068 257.779 224.21 257.02 229.357 255.979C230.591 255.728 231.889 255.452 232.84 254.623C233.645 253.821 234.226 252.821 234.523 251.725C238.379 240.452 234.273 227.997 228.593 217.528C226.575 213.813 224.32 210.163 221.235 207.277C216.615 202.952 210.492 200.67 204.529 198.491C210.14 203.704 214.646 209.99 217.782 216.977C220.918 223.964 222.619 231.51 222.784 239.167C222.784 240.394 212.934 233.832 212.336 233.794C206.842 233.427 210.389 243.858 211.218 246.924Z" fill="url(#paint7_linear_291_255)"/>
<path d="M138.68 248.383C136.207 242.078 133.681 235.381 134.825 228.704C135.667 223.807 138.443 219.301 138.68 214.334C138.809 211.448 138.038 208.504 138.68 205.689C139.966 200.027 146.224 197.052 149.263 192.097C150.195 190.587 150.735 188.44 149.488 187.18C148.589 186.261 147.143 186.229 145.864 186.287C134.416 186.805 123.153 189.374 112.612 193.871C107.883 195.889 103.09 198.491 100.404 202.868C97.7179 207.245 97.5765 212.74 97.6472 217.907C97.8901 234.457 99.4153 250.963 102.209 267.277C102.27 268.058 102.549 268.806 103.012 269.437C104.021 270.562 105.814 270.304 107.285 269.951C116.789 267.676 122.816 267.38 132.345 265.137C135.224 264.443 142.542 264.347 145.029 263.023C143.898 258.858 140.351 252.605 138.68 248.383Z" fill="url(#paint8_linear_291_255)"/>
<path d="M102.364 173.941C106.861 171.775 112.58 171.37 116.66 174.282C120.021 176.66 121.691 180.754 122.732 184.732C124.287 190.67 124.795 197.013 123.118 202.913C121.441 208.813 117.335 214.199 111.629 216.454C105.923 218.71 98.6946 217.277 94.9935 212.386C92.0121 208.453 91.6586 203.196 91.4145 198.247C91.2089 193.999 89.4033 186.493 91.3309 182.823C93.1815 179.275 98.8938 175.676 102.364 173.941Z" fill="#F3A984"/>
<path d="M102.364 173.941C106.861 171.775 112.58 171.37 116.66 174.282C120.021 176.66 121.691 180.754 122.732 184.732C124.287 190.67 124.795 197.013 123.118 202.913C121.441 208.813 117.335 214.199 111.629 216.454C105.923 218.71 98.6946 217.277 94.9935 212.386C92.0121 208.453 91.6586 203.196 91.4145 198.247C91.2089 193.999 89.4033 186.493 91.3309 182.823C93.1815 179.275 98.8938 175.676 102.364 173.941Z" fill="url(#paint9_linear_291_255)"/>
<path d="M100.165 149.937L145.386 127.661C148.012 126.367 151.19 127.448 152.484 130.075L165.168 155.835C166.461 158.462 165.381 161.641 162.754 162.934L117.533 185.21C114.907 186.504 111.729 185.423 110.436 182.796L97.7513 157.036C96.4578 154.409 97.5383 151.231 100.165 149.937Z" fill="#ED4ABF"/>
<path d="M99.5272 150.951L144.837 128.795C147.414 127.535 150.525 128.603 151.785 131.181L163.84 155.844C165.1 158.422 164.032 161.534 161.455 162.794L116.146 184.95C113.568 186.21 110.457 185.142 109.197 182.564L97.1419 157.9C95.8818 155.323 96.9498 152.211 99.5272 150.951Z" fill="url(#paint10_linear_291_255)"/>
<path d="M124.442 180.317C127.176 177.024 130.933 174.741 135.114 173.832C136.247 173.534 137.433 173.507 138.578 173.755C139.148 173.886 139.676 174.162 140.109 174.556C140.542 174.95 140.867 175.448 141.052 176.004C141.22 176.947 141.095 177.918 140.692 178.787C138.494 184.764 133.72 189.545 131.657 195.567C129.935 200.6 127.282 204.501 127.076 209.809C126.819 216.686 128.567 223.633 127.295 230.375C126.408 235.086 124.082 239.494 123.677 244.27C123.407 247.444 123.934 250.928 122.186 253.595C120.014 256.911 115.433 257.393 111.475 257.541C107.973 257.676 104.098 257.689 101.432 255.407C99.8769 254.083 98.9774 252.162 98.1292 250.304L82.0012 215.137C81.0824 213.132 80.1442 211.03 80.2535 208.826C80.4141 205.747 82.5474 203.196 83.8582 200.407C88.1632 191.281 83.4341 180.484 84.6613 170.464C85.7023 161.974 90.9648 154.609 96.7863 148.343C98.1742 146.846 100.063 145.252 102.023 145.824C104.523 146.557 104.78 150.162 103.552 152.456C102.325 154.751 100.179 156.518 99.3115 158.973C98.6689 160.869 98.8296 162.945 99.0159 164.95L100.301 178.549C100.635 182.09 100.944 185.619 101.548 189.153C102.242 193.363 103.925 198.215 108.037 199.34C111.25 200.227 114.694 198.26 116.725 195.599C118.755 192.939 119.777 189.661 121.126 186.602C122.475 183.543 122.315 182.887 124.442 180.317Z" fill="#F3A984"/>
<path d="M112.779 246.956C115.664 246.429 118.562 245.619 121.492 245.818C124.422 246.018 127.5 247.515 128.56 250.253C129.004 251.378 129.068 252.618 129.447 253.762C130.006 255.459 131.214 256.853 132.017 258.434C133.367 261.005 133.694 263.942 134.003 266.821L136.412 289.315C121.261 294.79 103.591 296.532 89.6026 288.537C88.6507 288.08 87.8402 287.374 87.2573 286.494C86.6661 285.42 86.7561 284.116 86.8653 282.901C87.8035 272.091 87.7006 260.555 89.7247 249.906C90.8941 243.775 93.1495 246.243 98.4955 247.142C103.469 247.991 107.909 246.956 112.779 246.956Z" fill="#ED4ABF"/>
<path d="M148.895 142.773L145.42 144.443C143.841 145.202 142.628 146.557 142.048 148.21C141.468 149.863 141.568 151.68 142.327 153.259L142.513 153.647C142.825 154.297 143.383 154.796 144.063 155.035C144.743 155.274 145.49 155.232 146.14 154.92L153.119 151.567C153.441 151.412 153.729 151.196 153.967 150.93C154.205 150.664 154.388 150.354 154.507 150.017C154.625 149.68 154.676 149.323 154.656 148.966C154.636 148.61 154.547 148.261 154.392 147.939L152.522 144.046C152.368 143.724 152.151 143.436 151.885 143.198C151.619 142.96 151.309 142.777 150.972 142.658C150.636 142.54 150.279 142.489 149.922 142.509C149.566 142.529 149.217 142.618 148.895 142.773Z" fill="url(#paint11_linear_291_255)"/>
<path d="M143.898 160.555L146.437 159.34L148.369 163.381L145.83 164.596L143.898 160.555Z" fill="url(#paint12_linear_291_255)"/>
<path d="M140.127 162.459L142.666 161.244L144.598 165.285L142.059 166.5L140.127 162.459Z" fill="url(#paint13_linear_291_255)"/>
<path d="M136.356 164.363L138.895 163.149L140.827 167.19L138.288 168.404L136.356 164.363Z" fill="url(#paint14_linear_291_255)"/>
<path d="M132.579 166.261L135.118 165.046L137.05 169.087L134.511 170.302L132.579 166.261Z" fill="url(#paint15_linear_291_255)"/>
<path d="M128.811 168.171L131.35 166.956L133.282 170.998L130.743 172.212L128.811 168.171Z" fill="url(#paint16_linear_291_255)"/>
<path d="M125.04 170.075L127.579 168.861L129.511 172.902L126.972 174.116L125.04 170.075Z" fill="url(#paint17_linear_291_255)"/>
<path d="M121.269 171.979L123.808 170.765L125.741 174.806L123.202 176.021L121.269 171.979Z" fill="url(#paint18_linear_291_255)"/>
<path d="M117.492 173.877L120.031 172.663L121.964 176.704L119.425 177.918L117.492 173.877Z" fill="url(#paint19_linear_291_255)"/>
<path d="M113.722 175.781L116.26 174.567L118.193 178.608L115.654 179.823L113.722 175.781Z" fill="url(#paint20_linear_291_255)"/>
<path d="M208.384 233.453C208.199 232.977 208.148 232.459 208.237 231.956C208.422 231.436 208.793 231.004 209.277 230.741C212.207 228.884 216.185 230.31 218.787 232.598C221.39 234.886 223.285 237.958 225.977 240.111C227.558 234.854 225.193 229.308 222.88 224.327C218.665 215.253 213.885 205.58 205.133 200.773C204.066 200.195 202.839 199.565 202.511 198.395C201.946 196.416 204.388 194.86 206.444 194.79C209.502 194.68 212.407 196.12 215.44 196.383C218.01 196.602 220.58 195.985 223.15 196.017C225.435 196.13 227.7 196.499 229.903 197.116C235.121 198.369 240.499 199.687 244.785 202.9C247.715 205.105 249.97 208.08 252.052 211.101C255.207 215.67 258.105 220.503 259.641 225.837C262.448 235.58 260.598 246.538 265.147 255.6C266.76 258.813 269.208 262.162 268.238 265.619C267.473 268.357 264.768 270.067 262.159 271.198C256.73 273.543 250.82 274.559 244.92 274.16C243.852 274.123 242.799 273.906 241.803 273.518C240.804 273.018 239.887 272.368 239.085 271.59C226.382 260.523 212.722 250.793 208.384 233.453Z" fill="#F3A984"/>
<path d="M173.121 255.992L201.194 252.072C204.407 251.622 206.238 248.858 205.281 245.889L201.689 234.816C200.732 231.847 197.345 229.809 194.126 230.259L166.053 234.179C162.84 234.629 161.009 237.393 161.973 240.362L165.558 251.435C166.503 254.405 169.908 256.442 173.121 255.992Z" fill="url(#paint21_linear_291_255)"/>
<path d="M285.799 278.274C278.57 281.114 271.283 283.974 263.656 285.44C256.029 286.905 247.946 286.905 240.692 284.122C239.194 283.55 237.562 282.65 237.228 281.082C236.991 279.97 237.485 278.846 237.974 277.811L240.287 272.914C240.485 272.278 240.882 271.723 241.418 271.329C241.954 270.935 242.603 270.722 243.268 270.722C247.978 269.9 252.817 269.392 257.224 267.509C264.575 264.411 265.044 256.211 273.134 261.166C274.907 262.277 287.444 277.625 285.799 278.274Z" fill="#ED4ABF"/>
<path d="M154.539 131.107L222.604 122.636L212.445 79.5187L202.261 80.6048L199.967 80.849L170.487 84.0046L168.186 84.2488L157.064 85.4442L154.539 131.107Z" fill="#ED4ABF"/>
<path d="M170.615 54.6534C174.605 49.467 180.729 47.1726 187.868 48.1623C189.817 48.401 191.694 49.0432 193.382 50.0479C195.069 51.0526 196.528 52.3978 197.667 53.9978C203.411 61.7678 202.807 74.9492 202.261 80.6048L199.967 80.849C200.507 75.759 201.252 62.6226 195.867 55.3282C194.893 53.9799 193.653 52.846 192.222 51.997C190.792 51.148 189.203 50.6018 187.553 50.3924C181.179 49.4927 175.935 51.4528 172.395 56.0223C167.396 62.5133 166.721 73.2782 170.467 84.0045L168.173 84.2488C164.357 72.989 165.237 61.6329 170.615 54.6534Z" fill="#ED4ABF"/>
<path d="M154.539 131.107L222.604 122.636L212.445 79.5187L202.261 80.6048L199.967 80.849L170.487 84.0046L168.186 84.2488L157.064 85.4442L154.539 131.107Z" fill="#ED4ABF"/>
<path d="M170.615 54.6534C174.605 49.467 180.729 47.1726 187.868 48.1623C189.817 48.401 191.694 49.0432 193.382 50.0479C195.069 51.0526 196.528 52.3978 197.667 53.9978C203.411 61.7678 202.807 74.9492 202.261 80.6048L199.967 80.849C200.507 75.759 201.252 62.6226 195.867 55.3282C194.893 53.9799 193.653 52.846 192.222 51.997C190.792 51.148 189.203 50.6018 187.553 50.3924C181.179 49.4927 175.935 51.4528 172.395 56.0223C167.396 62.5133 166.721 73.2782 170.467 84.0045L168.173 84.2488C164.357 72.989 165.237 61.6329 170.615 54.6534Z" fill="#ED4ABF"/>
<path d="M71.987 71.8088L128.535 65.5047C131.716 65.1501 134.582 67.442 134.937 70.6238L135.011 71.2881C135.365 74.47 133.074 77.3369 129.893 77.6916L73.345 83.9957C70.1638 84.3503 67.2974 82.0584 66.9429 78.8766L66.8688 78.2123C66.5143 75.0304 68.8057 72.1635 71.987 71.8088Z" fill="url(#paint22_linear_291_255)"/>
<path d="M73.5758 88.6248L130.123 82.3206C133.305 81.966 136.171 84.2579 136.526 87.4398L136.6 88.104C136.954 91.2859 134.663 94.1528 131.482 94.5075L74.9339 100.812C71.7527 101.166 68.8863 98.8743 68.5317 95.6925L68.4577 95.0282C68.1031 91.8463 70.3946 88.9794 73.5758 88.6248Z" fill="url(#paint23_linear_291_255)"/>
<path d="M75.1576 105.429L131.705 99.1246C134.886 98.7699 137.753 101.062 138.107 104.244L138.181 104.908C138.536 108.09 136.245 110.957 133.063 111.311L76.5157 117.616C73.3344 117.97 70.4681 115.678 70.1135 112.496L70.0395 111.832C69.6849 108.65 71.9763 105.783 75.1576 105.429Z" fill="url(#paint24_linear_291_255)"/>
<defs>
<linearGradient id="paint0_linear_291_255" x1="173.616" y1="194.012" x2="160.927" y2="429.322" gradientUnits="userSpaceOnUse">
<stop stop-color="#010101" stop-opacity="0"/>
<stop offset="0.95" stop-color="#010101"/>
</linearGradient>
<linearGradient id="paint1_linear_291_255" x1="124.801" y1="-35.4245" x2="175.55" y2="219.548" gradientUnits="userSpaceOnUse">
<stop stop-color="white" stop-opacity="0"/>
<stop offset="0.66" stop-color="white"/>
</linearGradient>
<linearGradient id="paint2_linear_291_255" x1="183.081" y1="72.0893" x2="189.952" y2="95.135" gradientUnits="userSpaceOnUse">
<stop stop-color="#010101" stop-opacity="0"/>
<stop offset="0.95" stop-color="#010101"/>
</linearGradient>
<linearGradient id="paint3_linear_291_255" x1="176.919" y1="76.4595" x2="166.134" y2="95.2753" gradientUnits="userSpaceOnUse">
<stop stop-color="#010101" stop-opacity="0"/>
<stop offset="0.95" stop-color="#010101"/>
</linearGradient>
<linearGradient id="paint4_linear_291_255" x1="169.773" y1="74.0302" x2="147.566" y2="117.793" gradientUnits="userSpaceOnUse">
<stop stop-color="#010101" stop-opacity="0"/>
<stop offset="0.95" stop-color="#010101"/>
</linearGradient>
<linearGradient id="paint5_linear_291_255" x1="195.431" y1="69.2486" x2="211.711" y2="99.0598" gradientUnits="userSpaceOnUse">
<stop stop-color="#010101" stop-opacity="0"/>
<stop offset="0.95" stop-color="#010101"/>
</linearGradient>
<linearGradient id="paint6_linear_291_255" x1="150.876" y1="155.284" x2="218.234" y2="367.116" gradientUnits="userSpaceOnUse">
<stop stop-color="#010101" stop-opacity="0"/>
<stop offset="0.95" stop-color="#010101"/>
</linearGradient>
<linearGradient id="paint7_linear_291_255" x1="239.33" y1="257.856" x2="140.063" y2="131.023" gradientUnits="userSpaceOnUse">
<stop stop-color="#010101" stop-opacity="0"/>
<stop offset="0.95" stop-color="#010101"/>
</linearGradient>
<linearGradient id="paint8_linear_291_255" x1="129.184" y1="192.759" x2="103.806" y2="337.366" gradientUnits="userSpaceOnUse">
<stop stop-color="#010101" stop-opacity="0"/>
<stop offset="0.95" stop-color="#010101"/>
</linearGradient>
<linearGradient id="paint9_linear_291_255" x1="118.35" y1="177.81" x2="84.0994" y2="227.277" gradientUnits="userSpaceOnUse">
<stop stop-color="#010101" stop-opacity="0"/>
<stop offset="0.95" stop-color="#010101"/>
</linearGradient>
<linearGradient id="paint10_linear_291_255" x1="145.907" y1="129.843" x2="66.7697" y2="279.135" gradientUnits="userSpaceOnUse">
<stop stop-color="#010101" stop-opacity="0"/>
<stop offset="0.95" stop-color="#010101"/>
</linearGradient>
<linearGradient id="paint11_linear_291_255" x1="141.15" y1="140.391" x2="153.702" y2="157.09" gradientUnits="userSpaceOnUse">
<stop stop-color="white" stop-opacity="0"/>
<stop offset="0.66" stop-color="white"/>
</linearGradient>
<linearGradient id="paint12_linear_291_255" x1="226.623" y1="54.4655" x2="-97.8908" y2="554.985" gradientUnits="userSpaceOnUse">
<stop stop-color="white" stop-opacity="0"/>
<stop offset="0.66" stop-color="white"/>
</linearGradient>
<linearGradient id="paint13_linear_291_255" x1="225.029" y1="53.4299" x2="-99.4858" y2="553.946" gradientUnits="userSpaceOnUse">
<stop stop-color="white" stop-opacity="0"/>
<stop offset="0.66" stop-color="white"/>
</linearGradient>
<linearGradient id="paint14_linear_291_255" x1="223.433" y1="52.4021" x2="-101.07" y2="552.925" gradientUnits="userSpaceOnUse">
<stop stop-color="white" stop-opacity="0"/>
<stop offset="0.66" stop-color="white"/>
</linearGradient>
<linearGradient id="paint15_linear_291_255" x1="221.828" y1="51.3626" x2="-102.676" y2="551.885" gradientUnits="userSpaceOnUse">
<stop stop-color="white" stop-opacity="0"/>
<stop offset="0.66" stop-color="white"/>
</linearGradient>
<linearGradient id="paint16_linear_291_255" x1="220.241" y1="50.3231" x2="-104.27" y2="550.85" gradientUnits="userSpaceOnUse">
<stop stop-color="white" stop-opacity="0"/>
<stop offset="0.66" stop-color="white"/>
</linearGradient>
<linearGradient id="paint17_linear_291_255" x1="218.645" y1="49.2967" x2="-105.87" y2="549.817" gradientUnits="userSpaceOnUse">
<stop stop-color="white" stop-opacity="0"/>
<stop offset="0.66" stop-color="white"/>
</linearGradient>
<linearGradient id="paint18_linear_291_255" x1="217.046" y1="48.2637" x2="-107.462" y2="548.78" gradientUnits="userSpaceOnUse">
<stop stop-color="white" stop-opacity="0"/>
<stop offset="0.66" stop-color="white"/>
</linearGradient>
<linearGradient id="paint19_linear_291_255" x1="215.448" y1="47.2275" x2="-109.06" y2="547.74" gradientUnits="userSpaceOnUse">
<stop stop-color="white" stop-opacity="0"/>
<stop offset="0.66" stop-color="white"/>
</linearGradient>
<linearGradient id="paint20_linear_291_255" x1="213.857" y1="46.1904" x2="-110.658" y2="546.71" gradientUnits="userSpaceOnUse">
<stop stop-color="white" stop-opacity="0"/>
<stop offset="0.66" stop-color="white"/>
</linearGradient>
<linearGradient id="paint21_linear_291_255" x1="182.57" y1="232.432" x2="181.698" y2="275.303" gradientUnits="userSpaceOnUse">
<stop stop-color="#010101" stop-opacity="0"/>
<stop offset="0.95" stop-color="#010101"/>
</linearGradient>
<linearGradient id="paint22_linear_291_255" x1="93.5916" y1="51.5978" x2="107.652" y2="95.8579" gradientUnits="userSpaceOnUse">
<stop stop-color="white" stop-opacity="0"/>
<stop offset="0.66" stop-color="white"/>
</linearGradient>
<linearGradient id="paint23_linear_291_255" x1="95.1797" y1="68.4073" x2="109.234" y2="112.675" gradientUnits="userSpaceOnUse">
<stop stop-color="white" stop-opacity="0"/>
<stop offset="0.66" stop-color="white"/>
</linearGradient>
<linearGradient id="paint24_linear_291_255" x1="96.7622" y1="85.2176" x2="110.822" y2="129.478" gradientUnits="userSpaceOnUse">
<stop stop-color="white" stop-opacity="0"/>
<stop offset="0.66" stop-color="white"/>
</linearGradient>
</defs>
</svg>
