<svg width="406" height="306" viewBox="0 0 406 306" fill="none" xmlns="http://www.w3.org/2000/svg">
<g clip-path="url(#clip0_291_300)">
<path opacity="0.24" d="M110.158 29.6889C106.44 28.9277 102.682 28.3814 98.9018 28.0527C80.6177 26.6046 62.3885 31.4559 47.2429 41.8007C21.8754 59.2223 10.8847 91.263 4.52954 120.107C-2.64363 152.489 -1.88617 187.234 11.1649 218.077C29.0107 260.26 72.7239 292.703 118.399 289.196C138.282 287.681 157.211 279.811 177.034 277.569C199.803 274.993 222.679 279.902 245.547 281.356C280.03 283.526 314.558 277.86 346.539 264.783C365.37 257.064 383.844 246.172 394.85 229.053C411.31 203.428 407.522 169.509 396.66 141.036C390.896 125.887 383.374 111.449 376.209 96.9061C369.043 82.3628 364.302 66.7894 357.636 52.2158C346.471 27.8104 315.68 13.4034 289.82 17.1074C267.028 20.3645 247.455 35.2411 225.027 40.4373C214.377 42.899 203.341 43.1187 192.411 42.8611C173.868 42.4294 155.295 40.6569 137.245 36.3924C128.193 34.2791 119.255 31.4992 110.158 29.6889Z" fill="#ED4ABF"/>
<path opacity="0.24" d="M239.04 246.77C234.882 246.982 230.352 247.346 227.337 250.209C263.664 254.127 300.334 253.6 336.533 248.641C334.261 244.422 328.527 243.808 323.717 243.702C310.083 243.399 294.093 239.574 280.655 241.794C266.756 244.096 253.144 246.77 239.04 246.77Z" fill="#ED4ABF"/>
<path opacity="0.24" d="M66.5127 246.891C64.2403 246.944 61.0666 247.99 61.5362 250.239C61.8619 251.754 63.7404 252.33 65.3235 252.572C103.356 258.571 142.304 257.935 180.39 252.231C179.912 249.838 170.702 250.815 166.755 250.156C161.908 249.345 157.06 248.497 152.242 247.505C144.065 245.794 135.709 245.087 127.36 245.399L66.5127 246.891Z" fill="#ED4ABF"/>
<path d="M265.127 56.1318H119.952C109.334 56.1318 100.727 64.7389 100.727 75.3562V156.617C100.727 167.234 109.334 175.841 119.952 175.841H265.127C275.744 175.841 284.351 167.234 284.351 156.617V75.3562C284.351 64.7389 275.744 56.1318 265.127 56.1318Z" fill="#ED4ABF"/>
<path d="M264.112 56.1318H118.937C108.319 56.1318 99.7124 64.7389 99.7124 75.3562V156.617C99.7124 167.234 108.319 175.841 118.937 175.841H264.112C274.729 175.841 283.337 167.234 283.337 156.617V75.3562C283.337 64.7389 274.729 56.1318 264.112 56.1318Z" fill="url(#paint0_linear_291_300)"/>
<path opacity="0.24" d="M181.102 136.627C181.114 140.739 179.92 144.764 177.667 148.203C175.414 151.643 172.201 154.346 168.427 155.977C164.653 157.608 160.483 158.096 156.434 157.381C152.385 156.666 148.635 154.778 145.648 151.952C142.662 149.126 140.57 145.486 139.632 141.483C138.694 137.48 138.951 133.289 140.372 129.431C141.792 125.572 144.313 122.215 147.623 119.776C150.933 117.336 154.885 115.921 158.991 115.706C159.366 115.662 159.743 115.645 160.12 115.653C165.683 115.653 171.019 117.863 174.954 121.796C178.888 125.729 181.1 131.064 181.102 136.627Z" fill="#ED4ABF"/>
<path opacity="0.45" d="M179.625 80.1283C179.458 80.704 176.769 81.4236 176.08 81.8629C174.893 82.6992 173.849 83.7224 172.989 84.8927C171.346 87.0591 170.05 89.483 168.111 91.3918C167.542 91.8713 167.046 92.433 166.642 93.0582C166.119 93.9596 166.119 95.0503 165.809 96.035C165.484 97.0273 164.872 97.9004 164.048 98.5427C163.225 99.1849 162.23 99.5671 161.188 99.6405C162.024 100.371 162.605 101.349 162.845 102.432C163.086 103.515 162.974 104.647 162.525 105.662C162.077 106.678 161.316 107.523 160.353 108.075C159.39 108.627 158.276 108.856 157.174 108.73C158.293 110.872 158.914 113.238 158.992 115.653C155.988 115.807 153.052 116.605 150.384 117.994C147.716 119.384 145.379 121.332 143.532 123.705C142.873 123.557 142.253 123.273 141.71 122.871C141.168 122.469 140.715 121.959 140.381 121.372C138.707 122.887 136.025 121.918 134.268 120.531C127.913 115.6 126.125 105.7 130.367 98.8603C132.45 95.4518 136.919 92.8007 140.328 94.8458C141.221 93.4066 143.236 92.9749 144.872 93.4066C146.501 93.9746 147.987 94.8895 149.228 96.088C148.91 93.5733 151.046 91.1494 153.53 90.657C154.798 90.4933 156.087 90.651 157.278 91.1155C158.47 91.5801 159.525 92.3367 160.347 93.3157C159.651 92.5052 173.414 80.6509 174.86 79.6814C175.671 79.1739 180.579 76.8636 179.625 80.1283Z" fill="#ED4ABF"/>
<path opacity="0.24" d="M176.496 111.54C171.247 118.297 164.612 125.394 156.045 125.546C154.477 125.546 152.841 125.364 151.387 125.97C148.591 127.136 147.781 130.636 147.342 133.643C146.243 141.218 145.153 148.906 146.584 156.367C147.698 162.184 150.318 167.85 149.766 173.743C149.659 174.826 149.364 176.015 148.432 176.591C147.694 176.924 146.872 177.022 146.077 176.871L132.957 175.72C131.863 175.731 130.789 175.423 129.867 174.834C129.13 174.132 128.605 173.237 128.352 172.251C123.05 157.17 124.322 140.695 125.64 124.773C125.928 121.266 126.231 117.698 127.519 114.419C128.807 111.139 131.223 108.139 134.556 107.011C142.13 104.443 149.455 112.252 157.461 112.563C165.793 112.881 171.618 105.549 177.58 100.875C179.572 99.3072 184.465 94.6034 184.904 99.4132C185.222 102.61 178.405 109.124 176.496 111.54Z" fill="#ED4ABF"/>
<path opacity="0.24" d="M185.094 156.874C196.686 156.874 206.083 147.477 206.083 135.885C206.083 124.293 196.686 114.896 185.094 114.896C173.501 114.896 164.104 124.293 164.104 135.885C164.104 147.477 173.501 156.874 185.094 156.874Z" fill="#ED4ABF"/>
<path d="M99.6744 118.494C98.8639 120.531 98.0383 122.69 98.417 124.849C98.7241 126.205 99.2872 127.491 100.076 128.636C102.361 132.379 104.969 135.914 107.87 139.203C108.622 140.228 109.665 141.003 110.862 141.43C111.975 133.4 112.241 125.276 111.657 117.191C111.664 116.462 111.495 115.743 111.165 115.093C110.607 114.358 109.846 113.803 108.976 113.495C106.969 112.555 104.969 111.457 102.916 110.699C102.31 111.457 100.296 118.494 99.6744 118.494Z" fill="#C8A59C"/>
<path d="M182.745 94.5504L174.368 93.1793C174.368 93.1793 173.504 91.3993 174.822 90.7933L188.078 93.0657L182.745 94.5504Z" fill="#606161"/>
<path d="M157.166 109.631C158.433 109.815 159.719 109.833 160.991 109.684C161.484 109.488 175.815 98.1104 181.306 95.2927C183.846 93.72 186.765 92.8689 189.752 92.8309C191.131 92.74 192.782 92.7855 193.539 93.9595C193.759 94.3713 193.86 94.8365 193.829 95.3024C193.798 95.7683 193.637 96.2163 193.365 96.5955C192.813 97.347 192.078 97.9443 191.229 98.3301C189.477 99.2413 187.556 99.7803 185.586 99.9132C185.072 99.9093 184.561 99.986 184.071 100.14C183.439 100.454 182.895 100.92 182.488 101.496C178.423 106.309 174.168 110.947 169.725 115.411C167.354 117.789 164.672 120.243 161.332 120.622C160.13 120.726 158.92 120.647 157.742 120.387C155.44 119.941 153.212 119.176 151.121 118.115C150.667 117.918 150.264 117.617 149.947 117.236C149.614 116.7 149.463 116.07 149.516 115.441C149.562 113.349 150.318 111.336 151.659 109.73C153.417 107.639 154.916 109.139 157.166 109.631Z" fill="#C8A59C"/>
<path d="M137.176 81.5145C137.316 83.2533 137.25 85.0025 136.979 86.7258C136.639 88.4831 135.654 90.3465 133.95 90.801C132.935 91.0661 131.745 90.801 130.92 91.4903C130.299 91.9978 130.124 92.8537 129.708 93.543C129.304 94.1176 128.765 94.5848 128.14 94.9043C127.514 95.2237 126.82 95.3856 126.117 95.376C124.713 95.3403 123.325 95.0662 122.012 94.5656C121.669 94.4853 121.349 94.3243 121.08 94.0959C120.733 93.6478 120.565 93.0858 120.611 92.5204C120.454 88.2029 120.394 83.8803 120.429 79.5526C120.358 78.3036 120.554 77.0538 121.005 75.8865C121.798 74.5078 123.014 73.4215 124.474 72.7885C126.536 71.7249 128.756 70.9986 131.049 70.6373C133.162 70.2965 136.676 70.4934 137.063 73.2203C137.081 74.217 137.036 75.2138 136.926 76.2047C136.964 77.9544 137.108 79.7269 137.176 81.5145Z" fill="#C8A59C"/>
<path d="M138.457 67.5393C138.792 68.0475 139.006 68.6268 139.079 69.2315C139.153 69.8361 139.085 70.4496 138.881 71.0236C138.454 72.1735 137.72 73.1847 136.76 73.9474C136.19 74.3595 135.68 74.849 135.245 75.4017C134.328 76.7727 134.768 78.6058 134.488 80.2419C134.488 80.3707 134.412 80.5297 134.275 80.5525C134.139 80.5752 134.041 80.4616 133.95 80.3555C133.696 80.0619 133.354 79.8573 132.976 79.7716C132.597 79.686 132.201 79.7238 131.845 79.8796C131.49 80.0354 131.193 80.301 130.999 80.6374C130.806 80.9738 130.725 81.3635 130.768 81.7493C130.874 82.734 131.761 83.5445 131.723 84.5367C131.644 85.0991 131.402 85.626 131.026 86.0517C130.751 86.496 130.347 86.845 129.867 87.0515C129.473 87.1386 129.064 87.1386 128.67 87.0515L120.49 86.1047C120.029 86.0698 119.574 85.9809 119.134 85.8396C118.557 85.5921 118.043 85.2166 117.633 84.7416C117.222 84.2666 116.924 83.7044 116.763 83.0975C116.453 81.8807 116.32 80.6255 116.369 79.3708C116.369 77.0984 116.263 74.7049 115.331 72.5991C115.16 72.2999 115.076 71.9588 115.089 71.6144C115.147 71.3847 115.259 71.172 115.415 70.9933C116.71 69.3193 118.679 68.168 119.565 66.2516C119.704 65.8914 119.88 65.5463 120.088 65.2214C120.77 64.3201 122.095 64.3049 123.224 64.3655L128.276 64.6458C129.435 64.7063 130.337 64.2746 131.443 64.1989C132.263 64.1996 133.074 64.3751 133.821 64.7139C135.336 65.3805 137.472 66.1834 138.457 67.5393Z" fill="#606161"/>
<path d="M138.457 67.5393C138.792 68.0475 139.006 68.6268 139.079 69.2315C139.153 69.8361 139.085 70.4496 138.881 71.0236C138.454 72.1735 137.72 73.1847 136.76 73.9474C136.19 74.3595 135.68 74.849 135.245 75.4017C134.328 76.7727 134.768 78.6058 134.488 80.2419C134.488 80.3707 134.412 80.5297 134.275 80.5525C134.139 80.5752 134.041 80.4616 133.95 80.3555C133.696 80.0619 133.354 79.8573 132.976 79.7716C132.597 79.686 132.201 79.7238 131.845 79.8796C131.49 80.0354 131.193 80.301 130.999 80.6374C130.806 80.9738 130.725 81.3635 130.768 81.7493C130.874 82.734 131.761 83.5445 131.723 84.5367C131.644 85.0991 131.402 85.626 131.026 86.0517C130.751 86.496 130.347 86.845 129.867 87.0515C129.473 87.1386 129.064 87.1386 128.67 87.0515L120.49 86.1047C120.029 86.0698 119.574 85.9809 119.134 85.8396C118.557 85.5921 118.043 85.2166 117.633 84.7416C117.222 84.2666 116.924 83.7044 116.763 83.0975C116.453 81.8807 116.32 80.6255 116.369 79.3708C116.369 77.0984 116.263 74.7049 115.331 72.5991C115.16 72.2999 115.076 71.9588 115.089 71.6144C115.147 71.3847 115.259 71.172 115.415 70.9933C116.71 69.3193 118.679 68.168 119.565 66.2516C119.704 65.8914 119.88 65.5463 120.088 65.2214C120.77 64.3201 122.095 64.3049 123.224 64.3655L128.276 64.6458C129.435 64.7063 130.337 64.2746 131.443 64.1989C132.263 64.1996 133.074 64.3751 133.821 64.7139C135.336 65.3805 137.472 66.1834 138.457 67.5393Z" fill="url(#paint1_linear_291_300)"/>
<path d="M120.103 93.1794C123.133 93.7097 126.315 93.5733 129.42 93.6945C134.132 93.8687 138.972 94.7019 142.926 97.2622C144.53 98.3676 146.037 99.6067 147.433 100.966L154.25 107.261C154.521 107.443 154.73 107.704 154.85 108.009C154.969 108.313 154.992 108.647 154.916 108.965C154.554 112.303 152.954 115.383 150.432 117.6C150.284 117.758 150.091 117.867 149.879 117.911C149.67 117.913 149.464 117.86 149.281 117.759L141.706 114.244C141.445 115.735 141.445 117.26 141.706 118.751C143.653 129.682 141.706 141.066 140.752 152.125C140.747 152.629 140.63 153.126 140.411 153.58C140.095 154.046 139.661 154.42 139.154 154.663C134.889 157.049 129.761 157.147 124.875 157.117C120.331 157.117 115.521 156.89 111.87 154.239C111.432 153.95 111.063 153.57 110.787 153.125C110.514 152.503 110.395 151.825 110.438 151.148L110.014 122.327C110.048 121.643 109.952 120.96 109.734 120.312C109.06 118.63 102.788 116.009 101.705 110.866C102.47 105.481 115.763 93.9748 120.103 93.1794Z" fill="#ED4ABF"/>
<path d="M120.103 93.1794C123.133 93.7097 126.315 93.5733 129.42 93.6945C134.132 93.8687 138.972 94.7019 142.926 97.2622C144.53 98.3676 146.037 99.6067 147.433 100.966L154.25 107.261C154.521 107.443 154.73 107.704 154.85 108.009C154.969 108.313 154.992 108.647 154.916 108.965C154.554 112.303 152.954 115.383 150.432 117.6C150.284 117.758 150.091 117.867 149.879 117.911C149.67 117.913 149.464 117.86 149.281 117.759L141.706 114.244C141.445 115.735 141.445 117.26 141.706 118.751C143.653 129.682 141.706 141.066 140.752 152.125C140.747 152.629 140.63 153.126 140.411 153.58C140.095 154.046 139.661 154.42 139.154 154.663C134.889 157.049 129.761 157.147 124.875 157.117C120.331 157.117 115.521 156.89 111.87 154.239C111.432 153.95 111.063 153.57 110.787 153.125C110.514 152.503 110.395 151.825 110.438 151.148L110.014 122.327C110.048 121.643 109.952 120.96 109.734 120.312C109.06 118.63 102.788 116.009 101.705 110.866C102.47 105.481 115.763 93.9748 120.103 93.1794Z" fill="url(#paint2_linear_291_300)"/>
<path d="M140.388 153.549C140.388 153.549 146.637 186.878 146.637 191.339C146.637 195.8 138.517 238.665 138.517 238.665C138.517 238.665 131.405 239.074 129.579 236.635L133.033 195.619L127.261 178L124.285 201.088L105.393 237.65L96.0615 231.977L114.385 192.589C114.385 192.589 105.197 173.175 110.802 153.125L140.388 153.549Z" fill="#606161"/>
<path d="M140.388 153.549C140.388 153.549 146.637 186.878 146.637 191.339C146.637 195.8 138.517 238.665 138.517 238.665C138.517 238.665 131.405 239.074 129.579 236.635L133.033 195.619L127.261 178L124.285 201.088L105.393 237.65L96.0615 231.977L114.385 192.589C114.385 192.589 105.197 173.175 110.802 153.125L140.388 153.549Z" fill="url(#paint3_linear_291_300)"/>
<path d="M129.7 250.254C129.691 250.366 129.709 250.478 129.753 250.58C129.838 250.708 129.968 250.8 130.117 250.838C131.473 251.269 132.891 251.471 134.313 251.436C138.903 251.557 143.499 251.661 148.099 251.747C148.099 249.55 146.205 247.77 144.168 246.952C142.13 246.134 139.896 245.997 137.775 245.437C137.34 245.366 136.944 245.146 136.654 244.816C136.478 244.494 136.394 244.129 136.411 243.763L136.245 239.423C136.267 239.161 136.236 238.897 136.154 238.647C136.072 238.397 135.941 238.166 135.768 237.968C135.567 237.823 135.341 237.717 135.101 237.658C134.26 237.408 132.109 236.506 131.314 237.044C130.518 237.582 130.518 239.786 130.397 240.695C129.953 243.863 129.72 247.056 129.7 250.254Z" fill="#606161"/>
<path d="M92.8271 241.733C92.7521 241.825 92.6967 241.932 92.6643 242.046C92.6319 242.16 92.6233 242.28 92.6389 242.398C92.6545 242.515 92.694 242.629 92.7551 242.731C92.8161 242.833 92.8973 242.921 92.9938 242.99L99.6519 250.565C99.8241 250.793 100.04 250.983 100.288 251.125C100.581 251.247 100.895 251.307 101.212 251.3C103.969 251.413 106.742 251.406 109.499 251.3C109.321 250.396 108.942 249.545 108.39 248.808C107.838 248.071 107.127 247.468 106.31 247.043C105.272 246.513 104.038 246.285 103.159 245.528C102.379 244.805 101.771 243.918 101.379 242.93C101.024 242.432 100.843 241.83 100.867 241.219C100.89 240.607 101.115 240.021 101.508 239.551L102.879 237.279C103.078 237.035 103.216 236.747 103.282 236.439C103.348 236.13 103.34 235.811 103.257 235.507C103.06 235.175 102.767 234.911 102.417 234.749C101.462 234.189 100.144 233.045 99.0535 232.84C97.9627 232.636 97.5386 233.658 96.978 234.575C95.6373 236.9 93.933 239.256 92.8271 241.733Z" fill="#606161"/>
<path opacity="0.24" d="M265.869 82.0598H215.286C214.278 82.0598 213.46 82.8771 213.46 83.8853V83.8929C213.46 84.9011 214.278 85.7184 215.286 85.7184H265.869C266.877 85.7184 267.695 84.9011 267.695 83.8929V83.8853C267.695 82.8771 266.877 82.0598 265.869 82.0598Z" fill="#ED4ABF"/>
<path opacity="0.24" d="M265.263 88.3544H214.68C213.672 88.3544 212.854 89.1717 212.854 90.1799V90.1874C212.854 91.1956 213.672 92.0129 214.68 92.0129H265.263C266.272 92.0129 267.089 91.1956 267.089 90.1874V90.1799C267.089 89.1717 266.272 88.3544 265.263 88.3544Z" fill="#ED4ABF"/>
<path opacity="0.24" d="M264.65 94.6565H214.066C213.058 94.6565 212.241 95.4738 212.241 96.482V96.4896C212.241 97.4977 213.058 98.315 214.066 98.315H264.65C265.658 98.315 266.475 97.4977 266.475 96.4896V96.482C266.475 95.4738 265.658 94.6565 264.65 94.6565Z" fill="#ED4ABF"/>
<path opacity="0.24" d="M264.044 100.951H213.46C212.452 100.951 211.635 101.768 211.635 102.776V102.784C211.635 103.792 212.452 104.609 213.46 104.609H264.044C265.052 104.609 265.869 103.792 265.869 102.784V102.776C265.869 101.768 265.052 100.951 264.044 100.951Z" fill="#ED4ABF"/>
<path opacity="0.24" d="M267.089 111.109H210.825V160.669H267.089V111.109Z" fill="#ED4ABF"/>
<path opacity="0.24" d="M216.377 127.902L227.746 146.853L246.168 123.834L254.023 134.938L265.127 116.797V157.958H212.854V135.756L216.377 127.902Z" fill="#ED4ABF"/>
<path opacity="0.24" d="M269.271 118.766C266.672 116.312 262.673 115.774 259.219 116.676C255.765 117.577 252.765 119.744 250.129 122.145C248.499 123.507 247.139 125.164 246.123 127.03C244.888 129.53 244.744 132.424 244.729 135.211C244.706 141.378 245.213 147.537 246.244 153.617C246.293 154.197 246.488 154.755 246.812 155.238C247.781 156.443 249.675 155.882 251.213 156.049C253.076 156.253 254.598 157.685 255.545 159.306C256.379 160.983 257.108 162.711 257.727 164.479C259.123 167.729 261.352 170.554 264.188 172.668C266.233 174.182 269.24 175.266 271.21 173.637C271.875 173 272.392 172.224 272.725 171.365C282.117 150.875 274.391 126.212 281.155 104.708C281.579 103.36 284.67 97.0424 282.67 96.0956C281.155 95.4139 278.845 99.33 278.193 100.209C276.193 102.809 274.419 105.576 272.891 108.48C272.27 109.624 268.233 117.789 269.271 118.766Z" fill="#ED4ABF"/>
<path d="M201.818 70.6903C200.349 73.1142 196.94 75.9926 192.554 78.3104C185.775 81.8856 179.223 82.7567 177.898 80.2419C177.734 79.8668 177.657 79.4598 177.671 79.0509C177.686 78.6419 177.792 78.2414 177.981 77.8787C178.587 76.3637 180.117 74.561 182.314 72.7961C184.01 71.4374 185.837 70.25 187.767 69.2512C191.979 67.0242 196.099 65.8426 198.932 65.8729L201.818 70.6903Z" fill="url(#paint4_linear_291_300)"/>
<path opacity="0.24" d="M182.314 72.7961C180.117 74.561 178.587 76.3486 177.981 77.8786C176.368 75.9698 171.921 74.5307 171.921 74.5307C175.588 71.872 180.928 72.5688 182.314 72.7961Z" fill="#ED4ABF"/>
<path opacity="0.24" d="M180.541 88.8164C180.541 88.8164 186.48 85.7865 187.555 80.4464C187.555 80.4464 182.511 82.4613 180.117 81.5372C180.117 81.5372 181.708 83.8171 180.541 88.8164Z" fill="#ED4ABF"/>
<path opacity="0.24" d="M201.849 70.6373L198.963 65.8198C198.963 65.8198 203.697 65.0623 204.333 65.9107C204.969 66.759 202.167 70.2585 201.849 70.6373Z" fill="#ED4ABF"/>
<path opacity="0.24" d="M186.957 77.2576C188.137 77.2576 189.093 76.3012 189.093 75.1215C189.093 73.9418 188.137 72.9855 186.957 72.9855C185.777 72.9855 184.821 73.9418 184.821 75.1215C184.821 76.3012 185.777 77.2576 186.957 77.2576Z" fill="#ED4ABF"/>
<path opacity="0.24" d="M191.403 74.2883C192.332 74.2883 193.085 73.5354 193.085 72.6067C193.085 71.678 192.332 70.9252 191.403 70.9252C190.475 70.9252 189.722 71.678 189.722 72.6067C189.722 73.5354 190.475 74.2883 191.403 74.2883Z" fill="#ED4ABF"/>
<path opacity="0.24" d="M195.622 72.1522C196.551 72.1522 197.304 71.3993 197.304 70.4706C197.304 69.5419 196.551 68.7891 195.622 68.7891C194.694 68.7891 193.941 69.5419 193.941 70.4706C193.941 71.3993 194.694 72.1522 195.622 72.1522Z" fill="#ED4ABF"/>
<path d="M109.711 120.281V106.905C109.711 106.905 103.439 109.889 102.356 112.593C102.356 112.593 108.257 119.569 109.711 120.281Z" fill="url(#paint5_linear_291_300)"/>
<path d="M272.368 196.808C272.053 198.029 272.095 199.314 272.49 200.512C274.648 209.995 276.671 219.6 276.716 229.295C276.716 231.954 276.572 234.681 275.52 237.12C274.525 239.258 273.037 241.13 271.179 242.581C270.49 243.157 269.664 243.914 269.907 244.778C270.024 245.129 270.249 245.434 270.551 245.649C271.139 246.112 271.848 246.395 272.594 246.466C273.339 246.538 274.089 246.393 274.754 246.05C275.486 245.599 276.138 245.031 276.686 244.369L281.761 238.847C282.037 238.578 282.261 238.259 282.42 237.908C282.581 237.173 282.493 236.405 282.17 235.726C280.102 229.227 282.859 222.274 283.208 215.464C283.526 209.124 281.731 202.89 279.958 196.793C279.806 196.117 279.526 195.477 279.133 194.907C278.761 194.496 278.3 194.175 277.785 193.97C277.271 193.766 276.716 193.682 276.163 193.725C275.06 193.82 273.979 194.088 272.959 194.52" fill="url(#paint6_linear_291_300)"/>
<path d="M282.799 198.111C283.733 205.418 284.604 212.74 285.412 220.077C286.253 227.758 287.018 235.658 285.018 243.127C284.609 244.642 284.124 246.475 285.086 247.747C285.57 248.294 286.234 248.648 286.958 248.744C287.682 248.84 288.416 248.672 289.025 248.27C289.62 247.851 290.121 247.313 290.497 246.689C290.872 246.066 291.114 245.371 291.206 244.649C291.369 243.207 291.369 241.751 291.206 240.309C290.707 231.045 292.82 221.857 293.388 212.601C293.686 209.115 293.523 205.606 292.903 202.163C292.191 198.679 290.457 193.664 287.192 191.733C282.996 189.226 282.465 195.475 282.799 198.111Z" fill="url(#paint7_linear_291_300)"/>
<path d="M267.566 245.982C267.335 246.189 267.158 246.449 267.051 246.74C267.012 247.008 267.06 247.281 267.188 247.52C267.317 247.759 267.518 247.95 267.763 248.065C268.258 248.283 268.799 248.374 269.338 248.33C271.402 248.387 273.429 247.776 275.118 246.588C277.337 244.869 278.375 241.869 280.791 240.453C280.867 240.397 280.956 240.361 281.049 240.347C281.715 240.263 281.481 241.559 282.049 241.9C282.617 242.24 283.079 241.468 283.185 240.877C283.382 239.818 283.382 238.732 283.185 237.673C283.109 237.317 282.965 236.915 282.609 236.809C282.253 236.703 281.806 237.181 281.587 237.567C280.941 238.854 279.992 239.964 278.822 240.801C276.663 242.187 274.497 241.468 272.194 241.983C270.194 242.475 268.907 244.558 267.566 245.982Z" fill="#ED4ABF"/>
<path d="M284.132 248.383C284.075 249.272 284.157 250.164 284.374 251.027C284.488 251.458 284.699 251.858 284.992 252.194C285.285 252.53 285.652 252.795 286.063 252.966C286.582 253.089 287.122 253.084 287.637 252.952C288.153 252.82 288.629 252.565 289.025 252.209C290.431 251.059 291.423 249.482 291.85 247.717C292.268 245.959 292.381 244.143 292.184 242.347C292.123 241.627 291.949 240.786 291.298 240.476C291.135 241.359 290.719 242.177 290.1 242.829C289.482 243.481 288.687 243.94 287.813 244.149C287.255 244.297 286.661 244.233 286.148 243.968C285.634 243.704 285.237 243.258 285.033 242.718C283.996 244.096 284.162 246.664 284.132 248.383Z" fill="#ED4ABF"/>
<path d="M268.452 164.729C268.194 169.39 268.272 174.063 268.687 178.712L269.445 190.142L270.255 202.61C270.224 203.771 270.512 204.919 271.088 205.928C271.846 206.988 273.149 207.193 274.315 207.314C281.091 208.028 287.901 208.364 294.714 208.321C295.607 208.321 296.622 208.253 297.221 207.465C297.612 206.815 297.824 206.073 297.834 205.314C298.228 201.33 298.304 197.3 298.705 193.316C299.349 186.802 300.857 180.439 301.485 173.955C302.114 167.471 301.803 160.503 299.054 154.746C298.781 154.054 298.344 153.438 297.781 152.951C297.181 152.572 296.491 152.363 295.782 152.345C289.42 151.658 283.023 151.367 276.625 151.474C275.512 151.474 273.239 151.05 272.262 151.693C271.406 152.254 270.747 154.549 270.361 155.572C269.317 158.525 268.675 161.605 268.452 164.729Z" fill="#606161"/>
<path d="M270.497 90.6722C269.543 93.5127 268.945 96.6183 269.823 99.4815C269.869 99.6873 269.971 99.8762 270.119 100.027C270.251 100.13 270.403 100.204 270.566 100.247L271.74 100.633C272.243 100.851 272.793 100.934 273.338 100.875C273.61 100.84 273.86 100.705 274.039 100.497C274.218 100.288 274.314 100.021 274.308 99.7466L274.77 101.398L281.064 100.83C281.271 100.828 281.473 100.767 281.647 100.656C281.744 100.555 281.819 100.437 281.869 100.306C281.918 100.176 281.941 100.037 281.935 99.8981C282.321 96.0426 282.231 92.1568 282.276 88.2786C282.276 86.1804 282.352 83.999 281.519 82.075C280.685 80.151 278.655 78.5679 276.587 78.9618C274.52 79.3557 273.482 80.9767 273.164 82.8779C272.694 85.5669 271.369 88.1044 270.497 90.6722Z" fill="#606161"/>
<path d="M270.497 90.6722C269.543 93.5127 268.945 96.6183 269.823 99.4815C269.869 99.6873 269.971 99.8762 270.119 100.027C270.251 100.13 270.403 100.204 270.566 100.247L271.74 100.633C272.243 100.851 272.793 100.934 273.338 100.875C273.61 100.84 273.86 100.705 274.039 100.497C274.218 100.288 274.314 100.021 274.308 99.7466L274.77 101.398L281.064 100.83C281.271 100.828 281.473 100.767 281.647 100.656C281.744 100.555 281.819 100.437 281.869 100.306C281.918 100.176 281.941 100.037 281.935 99.8981C282.321 96.0426 282.231 92.1568 282.276 88.2786C282.276 86.1804 282.352 83.999 281.519 82.075C280.685 80.151 278.655 78.5679 276.587 78.9618C274.52 79.3557 273.482 80.9767 273.164 82.8779C272.694 85.5669 271.369 88.1044 270.497 90.6722Z" fill="url(#paint8_linear_291_300)"/>
<path d="M301.478 109.427C302.879 112.336 303.061 115.661 303.212 118.888C303.53 125.356 305.621 132.401 302.909 138.286C299.22 146.323 306.765 150.595 301.303 157.049C300.493 158.003 272.02 159.973 269.717 154.966C268.861 153.117 271.164 146.565 270.99 144.535C270.066 133.848 269.187 122.781 272.732 112.661C273.431 110.359 274.638 108.241 276.262 106.465C284.23 98.565 296.441 98.8528 301.478 109.427Z" fill="#ED4ABF"/>
<path d="M301.478 109.427C302.879 112.336 303.061 115.661 303.212 118.888C303.53 125.356 305.621 132.401 302.909 138.286C299.22 146.323 306.765 150.595 301.303 157.049C300.493 158.003 272.02 159.973 269.717 154.966C268.861 153.117 271.164 146.565 270.99 144.535C270.066 133.848 269.187 122.781 272.732 112.661C273.431 110.359 274.638 108.241 276.262 106.465C284.23 98.565 296.441 98.8528 301.478 109.427Z" fill="url(#paint9_linear_291_300)"/>
<path d="M273.883 90.748C273.626 92.3536 273.626 93.99 273.883 95.5957C274.015 96.3977 274.318 97.162 274.771 97.8365C275.225 98.5109 275.819 99.0797 276.512 99.5042C277.44 99.9043 278.407 100.206 279.398 100.406C279.681 100.457 279.944 100.589 280.155 100.784C280.3 100.954 280.399 101.157 280.443 101.375C280.616 102.439 280.657 103.52 280.564 104.594C280.524 105.133 280.611 105.674 280.819 106.173C281.027 106.672 281.35 107.114 281.761 107.465C282.118 107.677 282.519 107.804 282.933 107.834C283.347 107.864 283.763 107.798 284.147 107.639C284.915 107.318 285.602 106.832 286.162 106.215C286.542 105.842 286.88 105.428 287.169 104.981C287.906 103.567 288.224 101.971 288.086 100.383C288.086 98.2771 287.874 96.1714 287.858 94.0656C287.858 90.3389 289.639 88.1196 289.517 84.4004C289.517 83.749 288.146 81.5751 287.858 80.9918C287.576 80.5043 287.215 80.0667 286.79 79.6966C286.38 79.2602 285.898 78.8965 285.366 78.621C284.554 78.3357 283.677 78.2832 282.837 78.4695C281.034 78.7425 279.271 79.2334 277.587 79.9314C276.931 80.1726 276.326 80.5377 275.807 81.007C275.57 81.2499 275.388 81.542 275.276 81.8626C275.163 82.1832 275.122 82.5246 275.156 82.8628C275.085 83.7139 274.943 84.5576 274.732 85.3851C274.383 87.1677 274.1 88.9553 273.883 90.748Z" fill="url(#paint10_linear_291_300)"/>
<path d="M273.868 73.6672C271.963 75.5108 270.763 77.9625 270.475 80.5979C270.353 81.4384 270.392 82.2942 270.588 83.1203C270.73 83.7409 271.08 84.2942 271.581 84.6882C272.156 85.0496 272.836 85.207 273.512 85.1351C274.244 85.1368 274.958 84.9119 275.557 84.4913C275.856 84.2798 276.086 83.986 276.221 83.6457C276.355 83.3054 276.388 82.9334 276.315 82.5749L276.512 84.4686C276.51 84.5988 276.55 84.7261 276.625 84.8322C276.7 84.8922 276.787 84.9354 276.879 84.9589C276.972 84.9825 277.069 84.9857 277.163 84.9685L281.322 84.7413C281.567 84.7815 281.819 84.7251 282.023 84.5839C282.228 84.4426 282.37 84.2276 282.42 83.9838L283.177 81.9841C283.155 82.7734 283.369 83.5514 283.791 84.2186C284.098 84.5809 284.524 84.8224 284.993 84.9001C285.462 84.9777 285.943 84.8866 286.351 84.6428C286.313 89.945 286.237 95.4366 283.958 100.216C284.344 100.695 284.839 101.074 285.402 101.322C285.964 101.569 286.578 101.679 287.192 101.64C288.073 101.689 288.949 101.49 289.722 101.065C290.104 100.849 290.423 100.537 290.646 100.159C290.87 99.7818 290.99 99.3521 290.994 98.9134L290.903 100.239C290.88 100.365 290.907 100.496 290.979 100.603C291.035 100.644 291.099 100.674 291.167 100.69C291.234 100.705 291.305 100.707 291.373 100.693L295.615 100.39C295.857 100.415 296.1 100.352 296.3 100.213C296.5 100.074 296.644 99.8684 296.706 99.633C297.899 97.4316 298.878 95.1209 299.629 92.7325C300.72 88.8846 300.622 84.8019 300.251 80.8252C300.183 79.6679 299.964 78.5245 299.599 77.4242C298.38 74.1898 294.918 72.3037 291.525 71.675C288.131 71.0463 284.753 71.516 281.367 71.213C280.014 71.0479 278.64 71.1822 277.345 71.6063C276.049 72.0304 274.862 72.7339 273.868 73.6672Z" fill="#606161"/>
<path d="M273.868 73.6672C271.963 75.5108 270.763 77.9625 270.475 80.5979C270.353 81.4384 270.392 82.2942 270.588 83.1203C270.73 83.7409 271.08 84.2942 271.581 84.6882C272.156 85.0496 272.836 85.207 273.512 85.1351C274.244 85.1368 274.958 84.9119 275.557 84.4913C275.856 84.2798 276.086 83.986 276.221 83.6457C276.355 83.3054 276.388 82.9334 276.315 82.5749L276.512 84.4686C276.51 84.5988 276.55 84.7261 276.625 84.8322C276.7 84.8922 276.787 84.9354 276.879 84.9589C276.972 84.9825 277.069 84.9857 277.163 84.9685L281.322 84.7413C281.567 84.7815 281.819 84.7251 282.023 84.5839C282.228 84.4426 282.37 84.2276 282.42 83.9838L283.177 81.9841C283.155 82.7734 283.369 83.5514 283.791 84.2186C284.098 84.5809 284.524 84.8224 284.993 84.9001C285.462 84.9777 285.943 84.8866 286.351 84.6428C286.313 89.945 286.237 95.4366 283.958 100.216C284.344 100.695 284.839 101.074 285.402 101.322C285.964 101.569 286.578 101.679 287.192 101.64C288.073 101.689 288.949 101.49 289.722 101.065C290.104 100.849 290.423 100.537 290.646 100.159C290.87 99.7818 290.99 99.3521 290.994 98.9134L290.903 100.239C290.88 100.365 290.907 100.496 290.979 100.603C291.035 100.644 291.099 100.674 291.167 100.69C291.234 100.705 291.305 100.707 291.373 100.693L295.615 100.39C295.857 100.415 296.1 100.352 296.3 100.213C296.5 100.074 296.644 99.8684 296.706 99.633C297.899 97.4316 298.878 95.1209 299.629 92.7325C300.72 88.8846 300.622 84.8019 300.251 80.8252C300.183 79.6679 299.964 78.5245 299.599 77.4242C298.38 74.1898 294.918 72.3037 291.525 71.675C288.131 71.0463 284.753 71.516 281.367 71.213C280.014 71.0479 278.64 71.1822 277.345 71.6063C276.049 72.0304 274.862 72.7339 273.868 73.6672Z" fill="url(#paint11_linear_291_300)"/>
<path d="M275.216 148.3L248.895 152.042L240.487 115.388L266.809 111.646L275.216 148.3Z" fill="white"/>
<path d="M308.295 138.506C308.295 139.665 308.295 140.937 307.537 141.839C306.78 142.74 305.424 143.051 304.205 143.187C295.366 144.168 286.442 142.373 278.67 138.051C278.053 137.762 277.517 137.325 277.11 136.779C276.777 136.153 276.612 135.45 276.633 134.741C276.571 133.302 276.604 131.859 276.731 130.424C276.716 130.107 276.77 129.79 276.889 129.496C277.008 129.202 277.189 128.937 277.421 128.719C277.855 128.483 278.356 128.397 278.845 128.477L290.782 129.068C291.181 129.139 291.592 129.058 291.934 128.841C292.204 128.573 292.363 128.213 292.381 127.833C293.024 123.985 292.381 120.031 292.759 116.146C293.055 113.328 294.365 108.571 297.607 107.814C301.394 106.927 302.614 111.692 303.583 114.335C306.443 122.086 308.034 130.248 308.295 138.506Z" fill="#ED4ABF"/>
<path d="M271.755 127.583C271.27 127.346 270.763 127.158 270.24 127.023C269.763 126.937 269.278 126.896 268.793 126.902C267.756 126.902 266.725 126.902 265.695 126.902C264.779 126.887 263.864 126.976 262.968 127.167C262.706 127.211 262.466 127.341 262.287 127.538C262.165 127.722 262.102 127.939 262.105 128.159C262.064 128.924 262.24 129.684 262.611 130.354C262.982 131.023 263.533 131.575 264.203 131.946C264.512 132.066 264.776 132.277 264.96 132.552C265.044 132.719 265.044 132.923 265.12 133.098C265.289 133.388 265.558 133.606 265.877 133.711C267.51 134.452 269.262 134.893 271.05 135.014C271.297 135.009 271.542 135.056 271.77 135.15C271.931 135.247 272.085 135.353 272.232 135.469C272.565 135.655 272.935 135.766 273.315 135.796C273.696 135.826 274.078 135.774 274.436 135.643C275.149 135.378 275.881 135.168 276.625 135.014C277.247 134.938 278.004 134.961 278.315 134.431C278.462 134.108 278.492 133.743 278.398 133.401C278.338 132.523 278.209 131.652 278.012 130.795C277.815 130.166 277.3 130.038 276.716 129.803L274.209 128.674C273.527 128.364 272.323 128.091 271.755 127.583Z" fill="url(#paint12_linear_291_300)"/>
<path d="M62.9755 201.678C63.6211 194.733 62.8136 187.729 60.6046 181.113C59.3245 177.326 57.5748 173.645 56.4461 169.751C55.3175 165.858 54.7949 161.707 56.0144 157.874C57.2339 154.042 58.1126 150.777 60.1198 147.308C62.3316 143.52 64.5813 139.635 67.7551 136.59C64.674 141.22 62.5472 146.419 61.4989 151.882C60.4506 157.344 60.502 162.961 61.6499 168.403C62.2937 171.357 63.2557 174.235 63.9905 177.174C65.6948 183.992 66.172 191.059 66.2629 198.088C66.2629 199.436 66.2629 200.891 65.4448 201.981C64.6267 203.072 63.7859 202.792 62.9755 201.678Z" fill="#ED4ABF"/>
<path d="M55.7493 140.172C55.7493 140.172 68.1035 151.481 67.4218 167.138C66.7401 182.795 64.9449 201.224 65.3993 201.981C65.8538 202.739 73.1633 202.784 73.1633 202.784C72.3915 191.03 72.217 179.244 72.6407 167.471C73.3224 147.83 55.7493 140.172 55.7493 140.172Z" fill="#ED4ABF"/>
<path d="M55.7493 140.172C55.7493 140.172 68.1035 151.481 67.4218 167.138C66.7401 182.795 64.9449 201.224 65.3993 201.981C65.8538 202.739 73.1633 202.784 73.1633 202.784C72.3915 191.03 72.217 179.244 72.6407 167.471C73.3224 147.83 55.7493 140.172 55.7493 140.172Z" fill="url(#paint13_linear_291_300)"/>
<path d="M93.2134 141.513C93.2134 141.513 78.5944 152.875 75.2313 171.546C71.8681 190.218 70.1335 202.86 70.1335 202.86L78.4656 202.512C78.4656 202.512 78.5793 172.357 85.0783 158.67C91.5773 144.982 93.2134 141.513 93.2134 141.513Z" fill="#ED4ABF"/>
<path d="M93.2134 141.513C93.2134 141.513 78.5944 152.875 75.2313 171.546C71.8681 190.218 70.1335 202.86 70.1335 202.86L78.4656 202.512C78.4656 202.512 78.5793 172.357 85.0783 158.67C91.5773 144.982 93.2134 141.513 93.2134 141.513Z" fill="url(#paint14_linear_291_300)"/>
<path d="M77.0871 130.477C77.0871 130.477 82.3893 150.08 79.064 159.821C75.7388 169.562 74.5193 203.133 74.5193 203.133L70.1108 202.845C70.1108 202.845 70.5123 167.297 72.0802 162.078C73.6482 156.859 78.4202 143.944 77.0871 130.477Z" fill="#ED4ABF"/>
<path d="M77.0871 130.477C77.0871 130.477 82.3893 150.08 79.064 159.821C75.7388 169.562 74.5193 203.133 74.5193 203.133L70.1108 202.845C70.1108 202.845 70.5123 167.297 72.0802 162.078C73.6482 156.859 78.4202 143.944 77.0871 130.477Z" fill="url(#paint15_linear_291_300)"/>
<path d="M41.5999 158.556C41.5999 158.556 62.8088 155.193 68.2777 169.456C73.7466 183.719 68.2777 202.716 68.2777 202.716L65.3842 201.996C65.3842 201.996 68.1035 171.834 51.7498 163.487L41.5999 158.556Z" fill="#ED4ABF"/>
<path d="M41.5999 158.556C41.5999 158.556 62.8088 155.193 68.2777 169.456C73.7466 183.719 68.2777 202.716 68.2777 202.716L65.3842 201.996C65.3842 201.996 68.1035 171.834 51.7498 163.487L41.5999 158.556Z" fill="url(#paint16_linear_291_300)"/>
<path d="M62.9755 201.678C63.6211 194.733 62.8136 187.729 60.6046 181.113C59.3245 177.326 57.5748 173.645 56.4461 169.751C55.3175 165.858 54.7949 161.707 56.0144 157.874C57.2339 154.042 58.1126 150.777 60.1198 147.308C62.3316 143.52 64.5813 139.635 67.7551 136.59C64.674 141.22 62.5472 146.419 61.4989 151.882C60.4506 157.344 60.502 162.961 61.6499 168.403C62.2937 171.357 63.2557 174.235 63.9905 177.174C65.6948 183.992 66.172 191.059 66.2629 198.088C66.2629 199.436 66.2629 200.891 65.4448 201.981C64.6267 203.072 63.7859 202.792 62.9755 201.678Z" fill="url(#paint17_linear_291_300)"/>
<path d="M57.7188 200.421H85.5555L79.9882 243.566H62.8241L57.7188 200.421Z" fill="#ED4ABF"/>
<path d="M57.7188 200.421H85.5555L79.9882 243.566H62.8241L57.7188 200.421Z" fill="url(#paint18_linear_291_300)"/>
</g>
<defs>
<linearGradient id="paint0_linear_291_300" x1="174.572" y1="-65.1455" x2="195.16" y2="154.769" gradientUnits="userSpaceOnUse">
<stop stop-color="white" stop-opacity="0"/>
<stop offset="0.95" stop-color="white"/>
</linearGradient>
<linearGradient id="paint1_linear_291_300" x1="115.074" y1="75.6896" x2="139.1" y2="75.6896" gradientUnits="userSpaceOnUse">
<stop stop-color="#010101" stop-opacity="0"/>
<stop offset="0.95" stop-color="#010101"/>
</linearGradient>
<linearGradient id="paint2_linear_291_300" x1="130.458" y1="122.804" x2="40.4713" y2="188.612" gradientUnits="userSpaceOnUse">
<stop stop-color="#010101" stop-opacity="0"/>
<stop offset="0.95" stop-color="#010101"/>
</linearGradient>
<linearGradient id="paint3_linear_291_300" x1="121.353" y1="230.992" x2="121.353" y2="115.615" gradientUnits="userSpaceOnUse">
<stop stop-color="#010101" stop-opacity="0"/>
<stop offset="0.95" stop-color="#010101"/>
</linearGradient>
<linearGradient id="paint4_linear_291_300" x1="187.813" y1="54.4428" x2="190.017" y2="77.9771" gradientUnits="userSpaceOnUse">
<stop stop-color="white" stop-opacity="0"/>
<stop offset="0.95" stop-color="white"/>
</linearGradient>
<linearGradient id="paint5_linear_291_300" x1="106.06" y1="109.071" x2="105.924" y2="150.368" gradientUnits="userSpaceOnUse">
<stop stop-color="#010101" stop-opacity="0"/>
<stop offset="0.95" stop-color="#010101"/>
</linearGradient>
<linearGradient id="paint6_linear_291_300" x1="269.899" y1="220.115" x2="283.276" y2="220.115" gradientUnits="userSpaceOnUse">
<stop stop-color="#E4C5D5"/>
<stop offset="0.42" stop-color="#E9D3CF"/>
<stop offset="1" stop-color="#EFE8CA"/>
</linearGradient>
<linearGradient id="paint7_linear_291_300" x1="282.715" y1="219.933" x2="293.539" y2="219.933" gradientUnits="userSpaceOnUse">
<stop stop-color="#E4C5D5"/>
<stop offset="0.42" stop-color="#E9D3CF"/>
<stop offset="1" stop-color="#EFE8CA"/>
</linearGradient>
<linearGradient id="paint8_linear_291_300" x1="266.998" y1="90.1495" x2="279.89" y2="90.1495" gradientUnits="userSpaceOnUse">
<stop stop-color="#010101" stop-opacity="0"/>
<stop offset="0.95" stop-color="#010101"/>
</linearGradient>
<linearGradient id="paint9_linear_291_300" x1="291.653" y1="121.047" x2="259.431" y2="226.667" gradientUnits="userSpaceOnUse">
<stop stop-color="#010101" stop-opacity="0"/>
<stop offset="0.95" stop-color="#010101"/>
</linearGradient>
<linearGradient id="paint10_linear_291_300" x1="273.671" y1="93.1037" x2="289.472" y2="93.1037" gradientUnits="userSpaceOnUse">
<stop stop-color="#E4C5D5"/>
<stop offset="0.42" stop-color="#E9D3CF"/>
<stop offset="1" stop-color="#EFE8CA"/>
</linearGradient>
<linearGradient id="paint11_linear_291_300" x1="280.64" y1="89.4981" x2="310.87" y2="71.2281" gradientUnits="userSpaceOnUse">
<stop stop-color="#010101" stop-opacity="0"/>
<stop offset="0.47" stop-color="#010101" stop-opacity="0.47"/>
<stop offset="0.95" stop-color="#010101"/>
</linearGradient>
<linearGradient id="paint12_linear_291_300" x1="262.067" y1="131.325" x2="278.443" y2="131.325" gradientUnits="userSpaceOnUse">
<stop stop-color="#E4C5D5"/>
<stop offset="0.42" stop-color="#E9D3CF"/>
<stop offset="1" stop-color="#EFE8CA"/>
</linearGradient>
<linearGradient id="paint13_linear_291_300" x1="71.0652" y1="157.814" x2="60.9076" y2="178.803" gradientUnits="userSpaceOnUse">
<stop stop-color="#010101" stop-opacity="0"/>
<stop offset="0.95" stop-color="#010101"/>
</linearGradient>
<linearGradient id="paint14_linear_291_300" x1="84.1239" y1="172.493" x2="50.538" y2="181.977" gradientUnits="userSpaceOnUse">
<stop stop-color="#010101" stop-opacity="0"/>
<stop offset="0.95" stop-color="#010101"/>
</linearGradient>
<linearGradient id="paint15_linear_291_300" x1="78.3748" y1="153.648" x2="64.7632" y2="223.728" gradientUnits="userSpaceOnUse">
<stop stop-color="#010101" stop-opacity="0"/>
<stop offset="0.95" stop-color="#010101"/>
</linearGradient>
<linearGradient id="paint16_linear_291_300" x1="58.8549" y1="174.243" x2="72.2544" y2="209.314" gradientUnits="userSpaceOnUse">
<stop stop-color="#010101" stop-opacity="0"/>
<stop offset="0.95" stop-color="#010101"/>
</linearGradient>
<linearGradient id="paint17_linear_291_300" x1="65.1039" y1="170.024" x2="44.1828" y2="177.644" gradientUnits="userSpaceOnUse">
<stop stop-color="#010101" stop-opacity="0"/>
<stop offset="0.95" stop-color="#010101"/>
</linearGradient>
<linearGradient id="paint18_linear_291_300" x1="72.1636" y1="194.437" x2="56.9916" y2="367.229" gradientUnits="userSpaceOnUse">
<stop stop-color="#010101" stop-opacity="0"/>
<stop offset="0.95" stop-color="#010101"/>
</linearGradient>
<clipPath id="clip0_291_300">
<rect width="406" height="306" fill="white"/>
</clipPath>
</defs>
</svg>
