<svg width="74" height="101" viewBox="0 0 74 101" fill="none" xmlns="http://www.w3.org/2000/svg">
<g id="Social Media">
<path id="Vector" d="M0.92334 1.16018H73.0818V100.088H0.92334V1.16018Z" fill="white"/>
<path id="Vector_2" d="M73.0765 100.625H0.923343C0.781151 100.625 0.644782 100.569 0.544237 100.468C0.443692 100.367 0.387207 100.231 0.387207 100.089V1.16114C0.387207 1.01894 0.443692 0.882575 0.544237 0.78203C0.644782 0.681485 0.781151 0.625 0.923343 0.625H73.0765C73.2187 0.625 73.355 0.681485 73.4556 0.78203C73.5561 0.882575 73.6126 1.01894 73.6126 1.16114V100.089C73.6126 100.231 73.5561 100.367 73.4556 100.468C73.355 100.569 73.2187 100.625 73.0765 100.625ZM1.45948 99.5527H72.5403V1.69727H1.45948V99.5527Z" fill="#020312"/>
<path id="Vector_3" d="M6.35449 13.4375H66.9378V72.6108H6.35449V13.4375Z" fill="#ED4ABF"/>
<path id="Vector_4" d="M66.9378 73.1411H6.35449C6.2123 73.1411 6.07593 73.0847 5.97539 72.9841C5.87484 72.8836 5.81836 72.7472 5.81836 72.605V13.4371C5.81836 13.2949 5.87484 13.1585 5.97539 13.058C6.07593 12.9574 6.2123 12.9009 6.35449 12.9009H66.9378C67.0082 12.9009 67.0779 12.9148 67.143 12.9417C67.208 12.9687 67.2671 13.0082 67.3169 13.058C67.3667 13.1077 67.4062 13.1668 67.4331 13.2319C67.4601 13.2969 67.4739 13.3667 67.4739 13.4371V72.605C67.4739 72.7472 67.4175 72.8836 67.3169 72.9841C67.2164 73.0847 67.08 73.1411 66.9378 73.1411ZM6.89063 72.0689H66.4017V13.9732H6.89063V72.0689Z" fill="#020312"/>
<path id="Vector_5" d="M9.0727 9.7518C10.5739 9.7518 11.7909 8.53482 11.7909 7.0336C11.7909 5.53238 10.5739 4.31539 9.0727 4.31539C7.57148 4.31539 6.35449 5.53238 6.35449 7.0336C6.35449 8.53482 7.57148 9.7518 9.0727 9.7518Z" fill="#020312"/>
<path id="Vector_6" d="M27.9929 5.79206H15.2114C15.0692 5.79206 14.9329 5.73558 14.8323 5.63503C14.7318 5.53449 14.6753 5.39812 14.6753 5.25593C14.6753 5.11374 14.7318 4.97737 14.8323 4.87682C14.9329 4.77628 15.0692 4.71979 15.2114 4.71979H27.9929C28.1351 4.71979 28.2715 4.77628 28.372 4.87682C28.4725 4.97737 28.529 5.11374 28.529 5.25593C28.529 5.39812 28.4725 5.53449 28.372 5.63503C28.2715 5.73558 28.1351 5.79206 27.9929 5.79206Z" fill="#DFEAEF"/>
<path id="Vector_7" d="M24.1702 8.80732H15.2114C15.0692 8.80732 14.9329 8.75084 14.8323 8.65029C14.7318 8.54975 14.6753 8.41338 14.6753 8.27119C14.6753 8.129 14.7318 7.99263 14.8323 7.89208C14.9329 7.79154 15.0692 7.73505 15.2114 7.73505H24.1702C24.3124 7.73505 24.4488 7.79154 24.5493 7.89208C24.6499 7.99263 24.7064 8.129 24.7064 8.27119C24.7064 8.41338 24.6499 8.54975 24.5493 8.65029C24.4488 8.75084 24.3124 8.80732 24.1702 8.80732Z" fill="#DFEAEF"/>
<path id="Vector_8" d="M62.3377 7.38232C62.616 7.38232 62.8417 7.15669 62.8417 6.87836C62.8417 6.60003 62.616 6.37439 62.3377 6.37439C62.0594 6.37439 61.8337 6.60003 61.8337 6.87836C61.8337 7.15669 62.0594 7.38232 62.3377 7.38232Z" fill="#020312"/>
<path id="Vector_9" d="M63.9193 7.38232C64.1976 7.38232 64.4232 7.15669 64.4232 6.87836C64.4232 6.60003 64.1976 6.37439 63.9193 6.37439C63.6409 6.37439 63.4153 6.60003 63.4153 6.87836C63.4153 7.15669 63.6409 7.38232 63.9193 7.38232Z" fill="#020312"/>
<path id="Vector_10" d="M65.5062 7.38232C65.7845 7.38232 66.0101 7.15669 66.0101 6.87836C66.0101 6.60003 65.7845 6.37439 65.5062 6.37439C65.2278 6.37439 65.0022 6.60003 65.0022 6.87836C65.0022 7.15669 65.2278 7.38232 65.5062 7.38232Z" fill="#020312"/>
<path id="Vector_11" d="M66.9377 84.6847C66.8326 84.6838 66.7301 84.6522 66.6429 84.5935L63.6995 82.6205L60.7615 84.5935C60.68 84.6406 60.5875 84.6654 60.4934 84.6654C60.3993 84.6654 60.3068 84.6406 60.2253 84.5935C60.1397 84.5479 60.0681 84.48 60.018 84.3969C59.968 84.3138 59.9414 84.2187 59.9412 84.1217V76.2566C59.9412 76.1144 59.9976 75.9781 60.0982 75.8775C60.1987 75.777 60.3351 75.7205 60.4773 75.7205H66.9538C67.096 75.7205 67.2324 75.777 67.3329 75.8775C67.4335 75.9781 67.49 76.1144 67.49 76.2566V84.1485C67.4897 84.2455 67.4631 84.3406 67.4131 84.4237C67.363 84.5068 67.2914 84.5748 67.2058 84.6203C67.1236 84.6648 67.0312 84.687 66.9377 84.6847ZM63.7209 81.441C63.8278 81.4408 63.9324 81.4725 64.0212 81.5322L66.423 83.1406V76.7928H60.9973V83.1406L63.3992 81.5322C63.488 81.4725 63.5925 81.4408 63.6995 81.441H63.7209Z" fill="#020312"/>
<path id="Vector_12" d="M12.1338 76.8299C12.182 76.7602 12.2249 76.6905 12.2732 76.6261C12.5698 76.1911 12.982 75.8475 13.4634 75.6343C13.8366 75.474 14.2435 75.4077 14.6483 75.4413C15.2016 75.4789 15.7252 75.7056 16.1312 76.0833C16.5373 76.4611 16.8012 76.9669 16.8786 77.5161C16.9161 77.8439 16.9161 78.1748 16.8786 78.5026C16.8484 78.8206 16.78 79.1338 16.6749 79.4355C16.5036 79.9129 16.2373 80.3506 15.8921 80.7222C15.5417 81.1012 15.1694 81.4592 14.7769 81.7945L12.7503 83.5744L12.1713 84.1106L12.1338 84.1427L11.9944 84.0087C11.3403 83.3922 10.6648 82.8024 9.98389 82.2127C9.5389 81.8266 9.0939 81.446 8.68108 81.0332C8.37557 80.7342 8.10735 80.3993 7.88224 80.0359C7.6505 79.6478 7.49747 79.2179 7.43189 78.7707C7.37741 78.4394 7.35765 78.1034 7.37291 77.7681C7.38425 77.2819 7.54457 76.8109 7.83222 76.4187C8.11986 76.0266 8.52097 75.7322 8.98132 75.5753C9.44078 75.405 9.9403 75.3742 10.4172 75.4868C10.8941 75.5993 11.3271 75.8502 11.662 76.2079C11.8356 76.3829 11.9885 76.5771 12.1177 76.787L12.1338 76.8299Z" fill="#ED4ABF"/>
<path id="Vector_13" d="M12.1178 84.6687C11.99 84.6687 11.8664 84.6231 11.7693 84.5401L11.6246 84.406C10.9758 83.7948 10.311 83.2104 9.63551 82.6261L9.53901 82.5403C9.12618 82.1864 8.69728 81.8165 8.30054 81.4144C7.96422 81.0947 7.66887 80.7345 7.42127 80.3421C7.15176 79.8944 6.96981 79.3995 6.88514 78.8838C6.82681 78.517 6.80526 78.1452 6.8208 77.774C6.83664 77.1785 7.03482 76.6021 7.38859 76.1227C7.74237 75.6433 8.2347 75.2841 8.79914 75.0934C9.35095 74.8944 9.94866 74.8599 10.5197 74.9941C11.0907 75.1283 11.6105 75.4254 12.0159 75.8493L12.1285 75.9619C12.4362 75.6197 12.815 75.3489 13.2383 75.1684C13.6584 74.9804 14.1164 74.8924 14.5762 74.9113C15.036 74.9302 15.4852 75.0555 15.8884 75.2774C16.2916 75.4993 16.6379 75.8116 16.9 76.19C17.162 76.5683 17.3328 77.0022 17.3988 77.4577C17.4445 77.828 17.4445 78.2026 17.3988 78.5729C17.3667 78.938 17.2911 79.298 17.1736 79.6451C16.9738 80.1841 16.6715 80.6793 16.2836 81.1034C15.9174 81.4987 15.529 81.8729 15.1202 82.224L14.3964 82.862L13.0989 84.0039L12.7129 84.3578L12.5253 84.5347C12.409 84.6251 12.265 84.6724 12.1178 84.6687ZM9.85532 75.9673C9.61611 75.9704 9.37897 76.0121 9.15299 76.0906C8.79529 76.212 8.48384 76.441 8.2612 76.7461C8.03856 77.0513 7.91561 77.4178 7.90916 77.7955C7.89531 78.0968 7.91328 78.3987 7.96277 78.6962C8.01706 79.0754 8.14647 79.4399 8.34343 79.7685C8.54377 80.0947 8.78522 80.3938 9.06185 80.6584C9.43178 81.0337 9.82316 81.3715 10.2413 81.7307L10.3325 81.8111C10.949 82.3473 11.5441 82.8834 12.1339 83.4195L12.3966 83.1783L13.6994 82.0309L14.4178 81.3983C14.7971 81.0787 15.1553 80.7348 15.4901 80.3689C15.7881 80.0496 16.0195 79.6742 16.171 79.2645C16.26 79.0042 16.3176 78.7342 16.3426 78.4603C16.3747 78.1734 16.3747 77.8839 16.3426 77.5971C16.296 77.1932 16.1169 76.8161 15.8332 76.5248C15.5085 76.1868 15.0681 75.9838 14.6001 75.9565C14.2815 75.9278 13.9608 75.9794 13.6672 76.1066C13.2768 76.2819 12.9427 76.5622 12.7022 76.9162L12.5789 77.1039C12.5303 77.1791 12.4636 77.241 12.3849 77.2838C12.3063 77.3267 12.2181 77.3491 12.1285 77.3491C12.039 77.3491 11.9508 77.3267 11.8721 77.2838C11.7935 77.241 11.7268 77.1791 11.6782 77.1039L12.1285 76.8143L11.6728 77.0931C11.565 76.8976 11.4316 76.7173 11.2761 76.557C10.8991 76.1803 10.3882 75.9683 9.85532 75.9673Z" fill="#020312"/>
<path id="Vector_14" d="M25.1245 84.1166C24.3769 84.1134 23.6412 83.9294 22.98 83.5805L20.2028 84.0844C20.1079 84.1016 20.0102 84.0928 19.9198 84.059C19.8295 84.0252 19.75 83.9677 19.6896 83.8925C19.6292 83.8173 19.5903 83.7272 19.5768 83.6317C19.5633 83.5363 19.5758 83.4389 19.6131 83.3499L20.6853 80.7926C20.5623 80.371 20.4991 79.9343 20.4977 79.4951C20.4977 78.5832 20.7681 77.6918 21.2747 76.9335C21.7814 76.1753 22.5015 75.5843 23.344 75.2353C24.1865 74.8864 25.1136 74.7951 26.008 74.973C26.9024 75.1509 27.7239 75.59 28.3688 76.2348C29.0136 76.8796 29.4527 77.7012 29.6306 78.5956C29.8085 79.49 29.7172 80.4171 29.3682 81.2596C29.0193 82.1021 28.4283 82.8222 27.67 83.3288C26.9118 83.8355 26.0204 84.1059 25.1085 84.1059L25.1245 84.1166ZM23.0765 82.5082C23.1722 82.5066 23.2666 82.5307 23.3499 82.5779C23.8879 82.894 24.5006 83.0606 25.1245 83.0604C25.8244 83.0604 26.5085 82.8529 27.0904 82.4641C27.6723 82.0753 28.1259 81.5226 28.3937 80.8761C28.6615 80.2295 28.7316 79.518 28.595 78.8316C28.4585 78.1452 28.1215 77.5147 27.6266 77.0198C27.1318 76.525 26.5013 76.188 25.8149 76.0514C25.1285 75.9149 24.417 75.985 23.7704 76.2528C23.1238 76.5206 22.5712 76.9741 22.1824 77.556C21.7936 78.138 21.586 78.8221 21.586 79.5219C21.5869 79.9141 21.6521 80.3035 21.779 80.6746C21.8256 80.7972 21.8256 80.9327 21.779 81.0553L21.007 82.8781L22.9907 82.5136L23.0765 82.5082Z" fill="#020312"/>
<path id="Vector_15" d="M37.0642 80.2206C37.0021 80.2205 36.9404 80.2096 36.882 80.1884L33.4024 78.9446C33.2969 78.9077 33.2056 78.8388 33.1412 78.7475C33.0768 78.6562 33.0426 78.547 33.0432 78.4353C33.0441 78.3238 33.0796 78.2153 33.145 78.125C33.2103 78.0347 33.3022 77.967 33.4078 77.9313L41.6268 75.1059C41.7464 75.0566 41.8798 75.0522 42.0024 75.0935C42.125 75.1349 42.2286 75.2192 42.2939 75.3309C42.3592 75.4426 42.3819 75.5741 42.3578 75.7013C42.3338 75.8284 42.2645 75.9426 42.1629 76.0227L37.4127 80.1134C37.3127 80.1887 37.1894 80.2267 37.0642 80.2206ZM35.2038 78.4513L36.9517 79.0733L39.3267 77.0306L35.2038 78.4513Z" fill="#020312"/>
<path id="Vector_16" d="M38.131 84.1518H38.072C37.9621 84.1422 37.8578 84.099 37.7734 84.028C37.689 83.957 37.6285 83.8617 37.6002 83.755L36.528 79.8252C36.504 79.7287 36.5074 79.6274 36.5377 79.5328C36.568 79.4381 36.624 79.3537 36.6995 79.289L41.4336 75.2198C41.5291 75.1423 41.6484 75.1 41.7714 75.1C41.8944 75.1 42.0136 75.1423 42.1091 75.2198C42.2067 75.294 42.2758 75.3994 42.3051 75.5184C42.3344 75.6374 42.322 75.7628 42.27 75.8738L38.6082 83.8676C38.5622 83.954 38.4934 84.0262 38.4092 84.0763C38.3251 84.1264 38.2289 84.1525 38.131 84.1518ZM37.6699 79.8627L38.2597 82.0394L40.2916 77.6109L37.6699 79.8627Z" fill="#020312"/>
<path id="Vector_17" d="M26.277 89.454H8.77222C8.63003 89.454 8.49366 89.3975 8.39311 89.297C8.29257 89.1964 8.23608 89.06 8.23608 88.9178C8.23608 88.7757 8.29257 88.6393 8.39311 88.5387C8.49366 88.4382 8.63003 88.3817 8.77222 88.3817H26.277C26.4192 88.3817 26.5556 88.4382 26.6561 88.5387C26.7567 88.6393 26.8132 88.7757 26.8132 88.9178C26.8132 89.06 26.7567 89.1964 26.6561 89.297C26.5556 89.3975 26.4192 89.454 26.277 89.454Z" fill="#DFEAEF"/>
<path id="Vector_18" d="M61.2117 93.6815H45.1277C44.9855 93.6815 44.8491 93.625 44.7486 93.5244C44.648 93.4239 44.5916 93.2875 44.5916 93.1453C44.5916 93.0032 44.648 92.8668 44.7486 92.7662C44.8491 92.6657 44.9855 92.6092 45.1277 92.6092H61.2117C61.3539 92.6092 61.4903 92.6657 61.5908 92.7662C61.6914 92.8668 61.7479 93.0032 61.7479 93.1453C61.7479 93.2875 61.6914 93.4239 61.5908 93.5244C61.4903 93.625 61.3539 93.6815 61.2117 93.6815Z" fill="#DFEAEF"/>
<path id="Vector_19" d="M39.4338 93.6815H8.77222C8.63003 93.6815 8.49366 93.625 8.39311 93.5244C8.29257 93.4239 8.23608 93.2875 8.23608 93.1453C8.23608 93.0032 8.29257 92.8668 8.39311 92.7662C8.49366 92.6657 8.63003 92.6092 8.77222 92.6092H39.4338C39.576 92.6092 39.7124 92.6657 39.8129 92.7662C39.9135 92.8668 39.97 93.0032 39.97 93.1453C39.97 93.2875 39.9135 93.4239 39.8129 93.5244C39.7124 93.625 39.576 93.6815 39.4338 93.6815Z" fill="#DFEAEF"/>
<path id="Vector_20" d="M62.686 28.0662C62.0716 27.6616 61.3217 27.5174 60.601 27.6652C59.8803 27.8129 59.2476 28.2406 58.8419 28.8544L42.1092 50.5464H31.1881L14.45 28.8544C14.2496 28.5502 13.9914 28.2885 13.6899 28.0841C13.3885 27.8798 13.0497 27.7368 12.693 27.6634C12.3363 27.5899 11.9686 27.5875 11.611 27.6561C11.2533 27.7248 10.9127 27.8632 10.6085 28.0636C10.3044 28.2639 10.0427 28.5221 9.83831 28.8236C9.63396 29.125 9.49099 29.4638 9.41756 29.8205C9.34412 30.1772 9.34167 30.5449 9.41033 30.9025C9.479 31.2602 9.61744 31.6008 9.81774 31.905L26.3897 57.1034C26.6363 57.484 27.3386 72.6513 27.3386 72.6513H45.9586C45.9586 72.6513 46.6556 57.4947 46.9076 57.1034L63.4795 31.9318C63.6837 31.6266 63.8252 31.284 63.8958 30.9237C63.9664 30.5634 63.9648 30.1927 63.891 29.8331C63.8171 29.4735 63.6726 29.1321 63.4658 28.8288C63.2589 28.5255 62.9939 28.2663 62.686 28.0662Z" fill="white"/>
<path id="Vector_21" d="M45.9588 73.1433H27.3495C27.2118 73.1434 27.0794 73.0907 26.9796 72.9958C26.8798 72.901 26.8203 72.7714 26.8134 72.6339C26.5614 67.1546 26.095 58.2762 25.9073 57.3005L9.37823 32.1933C8.92926 31.4598 8.78308 30.5804 8.97059 29.7411C9.1581 28.9018 9.6646 28.1683 10.383 27.6956C11.1015 27.2229 11.9756 27.0481 12.8206 27.208C13.6656 27.368 14.4152 27.8503 14.9112 28.5529L31.4617 49.9983H41.8252L58.4454 28.5261C58.6865 28.1646 58.9965 27.8541 59.3577 27.6123C59.7188 27.3706 60.124 27.2024 60.5502 27.1172C60.9763 27.0321 61.4151 27.0317 61.8414 27.1162C62.2677 27.2006 62.6732 27.3682 63.0347 27.6093C63.3963 27.8504 63.7068 28.1604 63.9485 28.5216C64.1902 28.8827 64.3585 29.2879 64.4436 29.7141C64.5287 30.1402 64.5291 30.579 64.4447 31.0053C64.3602 31.4316 64.1927 31.8371 63.9515 32.1986L47.4224 57.3058C47.2348 58.2816 46.7737 67.16 46.5217 72.6393C46.5134 72.7806 46.4496 72.9129 46.3441 73.0073C46.2387 73.1017 46.1002 73.1506 45.9588 73.1433ZM27.8481 72.071H45.4441C46.1357 57.2737 46.3609 56.9252 46.4574 56.7751L63.0294 31.6035C63.1918 31.3584 63.3043 31.0836 63.3601 30.795C63.416 30.5063 63.4143 30.2094 63.355 29.9214C63.2957 29.6334 63.18 29.3599 63.0146 29.1168C62.8493 28.8736 62.6374 28.6656 62.3914 28.5046C61.8955 28.1793 61.291 28.0638 60.7101 28.1834C60.1293 28.303 59.6195 28.6479 59.2925 29.1426L42.5329 50.8668C42.4829 50.9317 42.4188 50.9843 42.3454 51.0206C42.272 51.0568 42.1912 51.0757 42.1093 51.0759H31.1883C31.1064 51.0757 31.0256 51.0568 30.9522 51.0206C30.8788 50.9843 30.8146 50.9317 30.7647 50.8668L14.0265 29.1802C13.8643 28.9272 13.6531 28.7091 13.4055 28.5388C13.1578 28.3684 12.8787 28.2493 12.5843 28.1883C12.1508 28.0981 11.7002 28.1386 11.2898 28.3047C10.8793 28.4709 10.5274 28.7552 10.2787 29.1216C10.03 29.488 9.89577 29.92 9.89295 30.3628C9.89013 30.8056 10.0189 31.2393 10.2629 31.6089L26.8134 56.7804C26.9313 56.9305 27.1619 57.279 27.8481 72.071Z" fill="#020312"/>
<path id="Vector_22" d="M34.877 52.6448H38.4208V72.3103H34.877V52.6448Z" fill="#020312"/>
<path id="Vector_23" d="M38.4208 72.8472H34.8555C34.7133 72.8472 34.5769 72.7907 34.4764 72.6901C34.3758 72.5896 34.3193 72.4532 34.3193 72.311V52.6456C34.3193 52.5034 34.3758 52.367 34.4764 52.2665C34.5769 52.1659 34.7133 52.1094 34.8555 52.1094H38.3993C38.5415 52.1094 38.6779 52.1659 38.7784 52.2665C38.879 52.367 38.9355 52.5034 38.9355 52.6456V72.311C38.9356 72.4496 38.882 72.5828 38.7861 72.6827C38.6901 72.7827 38.5592 72.8416 38.4208 72.8472ZM35.413 71.7749H37.8846V53.1817H35.3916L35.413 71.7749Z" fill="#020312"/>
<path id="Vector_24" d="M12.3 24.9797C12.4287 23.827 12.6431 22.669 12.804 21.5217C12.8227 21.3655 12.855 21.2112 12.9005 21.0606C12.9538 20.8873 13.0534 20.7319 13.1885 20.6109C13.3236 20.49 13.489 20.4082 13.6672 20.3743C14.5464 20.2564 14.9432 21.2375 14.8681 21.9291C14.7609 22.9585 14.7341 23.9879 14.7126 25.0334C14.6977 25.2467 14.7213 25.461 14.7823 25.666C14.9011 25.9053 15.0547 26.1257 15.238 26.3201C15.6332 26.9128 15.8576 27.6028 15.8868 28.3145C16.0212 29.1584 15.9626 30.0218 15.7152 30.8397C15.1201 32.5071 13.6779 32.609 12.1392 32.4856C10.7774 32.3731 9.22795 31.6117 8.64356 30.3089C7.97876 28.8292 8.59531 27.3924 9.75873 26.3844C9.57108 25.129 9.46363 23.863 9.43704 22.5939C9.40636 22.2856 9.42445 21.9744 9.49066 21.6718C9.83379 20.3743 10.9865 21.1356 11.2438 22.031C11.4748 22.8162 11.6662 23.6125 11.8175 24.4168C11.8548 24.8399 12.0006 25.2462 12.241 25.5963C12.2571 25.3926 12.2786 25.1835 12.3 24.9797Z" fill="#FFC9B0"/>
<path id="Vector_25" d="M12.9756 33.0659C12.6432 33.0659 12.3376 33.0659 12.0909 33.0177C10.6327 32.8997 8.87413 32.0848 8.15571 30.53C7.43729 28.9752 7.87692 27.4419 9.18509 26.1873C9.0249 25.0032 8.93004 23.8112 8.90094 22.6166C8.86735 22.2578 8.89088 21.8959 8.97064 21.5444C9.22798 20.574 9.86598 20.4721 10.1287 20.4721C10.8793 20.4721 11.5494 21.1905 11.7371 21.9036C11.839 22.2521 11.9355 22.6113 12.0212 22.9758C12.0212 22.9008 12.048 22.8204 12.0588 22.7453C12.1285 22.3218 12.1928 21.8982 12.2518 21.48C12.2764 21.2984 12.3158 21.1191 12.3697 20.9439C12.4508 20.6714 12.6061 20.4268 12.8182 20.2375C13.0302 20.0481 13.2908 19.9214 13.5707 19.8716C13.7933 19.8394 14.0203 19.8589 14.2342 19.9286C14.4481 19.9984 14.643 20.1165 14.8038 20.2737C15.0207 20.5038 15.1848 20.7784 15.2848 21.0784C15.3848 21.3784 15.4183 21.6966 15.3828 22.0108C15.2702 23.0241 15.2488 24.0696 15.2273 25.0721C15.216 25.218 15.2287 25.3647 15.2649 25.5064C15.3227 25.6247 15.3987 25.7332 15.49 25.8281L15.6455 26.0211C16.0995 26.692 16.3609 27.4745 16.4015 28.2836C16.5418 29.2094 16.4722 30.1548 16.1977 31.05C15.5919 32.7764 14.1122 33.0659 12.9756 33.0659ZM10.1501 21.5229C10.0806 21.6059 10.0344 21.7058 10.0161 21.8124C9.96918 22.0634 9.95835 22.3197 9.98393 22.5737C10.0098 23.8193 10.1137 25.062 10.2949 26.2945C10.311 26.3858 10.3032 26.4798 10.2722 26.5672C10.2412 26.6546 10.1881 26.7324 10.118 26.7931C9.58183 27.2542 8.42914 28.498 9.14756 30.0957C9.65689 31.2377 11.083 31.8596 12.1928 31.9508C13.7744 32.0794 14.7716 31.9079 15.2166 30.6587C15.4367 29.9181 15.488 29.1377 15.3667 28.3747C15.3422 27.7606 15.1573 27.1636 14.8306 26.643L14.7073 26.4929C14.5335 26.3059 14.3938 26.09 14.2945 25.8549C14.2062 25.5873 14.1716 25.3049 14.1926 25.0239C14.1926 23.9945 14.2408 22.9276 14.3534 21.8714C14.3698 21.7181 14.355 21.563 14.3098 21.4156C14.2647 21.2682 14.1902 21.1314 14.0907 21.0136C14.0473 20.9697 13.9939 20.937 13.9351 20.9183C13.8762 20.8996 13.8137 20.8955 13.753 20.9064C13.6752 20.9287 13.6044 20.9704 13.5472 21.0276C13.49 21.0848 13.4482 21.1556 13.4259 21.2334C13.39 21.3524 13.3649 21.4745 13.3509 21.598C13.2919 22.0269 13.2222 22.4504 13.1579 22.8793C13.0453 23.5924 12.9273 24.3215 12.8523 25.0239C12.8255 25.2223 12.8094 25.426 12.7933 25.6244C12.7852 25.7304 12.7457 25.8315 12.6799 25.9151C12.6142 25.9986 12.525 26.0606 12.4239 26.0934C12.3228 26.1262 12.2142 26.1281 12.1119 26.099C12.0097 26.0699 11.9184 26.0111 11.8497 25.93C11.5525 25.5281 11.3675 25.0544 11.3135 24.5574V24.5038C11.1634 23.7157 10.9758 22.933 10.7506 22.1716C10.7086 22.0239 10.6324 21.8881 10.528 21.7754C10.4237 21.6627 10.2942 21.5762 10.1501 21.5229Z" fill="#020312"/>
<path id="Vector_26" d="M14.4126 26.5007C14.0124 26.45 13.606 26.5112 13.2385 26.6776C12.6021 26.9149 11.9884 27.2092 11.4049 27.5568C11.3078 27.5985 11.2211 27.6608 11.1507 27.7396C11.0803 27.8183 11.028 27.9115 10.9974 28.0126C10.9885 28.1388 11.0246 28.2642 11.0993 28.3664C11.2381 28.5384 11.4163 28.6745 11.6188 28.7631C11.8213 28.8518 12.0421 28.8904 12.2627 28.8757C12.7077 28.8757 13.142 28.7685 13.587 28.7846C12.97 29.138 12.4246 29.6035 11.9785 30.1571C11.9065 30.2372 11.8533 30.3325 11.8231 30.4359C11.7426 30.7576 12.0804 31.0149 12.3592 31.1758" fill="#FFC9B0"/>
<path id="Vector_27" d="M12.3376 31.6832C12.2455 31.6829 12.155 31.6589 12.0749 31.6135C11.2117 31.131 11.201 30.5734 11.2707 30.2839C11.3171 30.1022 11.4073 29.9347 11.5334 29.796C11.6503 29.6428 11.7775 29.4977 11.9141 29.3617C11.6606 29.3395 11.415 29.2628 11.1938 29.137C10.9727 29.0111 10.7813 28.8391 10.6327 28.6326C10.4885 28.4224 10.4239 28.1677 10.4504 27.9142C10.4907 27.7322 10.5713 27.5616 10.6864 27.4149C10.8015 27.2683 10.948 27.1494 11.1152 27.0671C11.7269 26.7009 12.3713 26.3922 13.04 26.1449C13.4973 25.9415 14.0032 25.8727 14.4982 25.9465C14.5687 25.9603 14.6357 25.9877 14.6955 26.0274C14.7553 26.067 14.8067 26.118 14.8467 26.1775C14.8868 26.237 14.9148 26.3038 14.929 26.3741C14.9433 26.4444 14.9436 26.5168 14.9298 26.5872C14.9161 26.6576 14.8886 26.7246 14.849 26.7844C14.8094 26.8442 14.7584 26.8956 14.6989 26.9357C14.6394 26.9758 14.5726 27.0038 14.5023 27.018C14.432 27.0323 14.3596 27.0325 14.2892 27.0188C13.9875 26.9926 13.6843 27.0463 13.4099 27.1743C12.8044 27.3985 12.2211 27.6785 11.6675 28.0107C11.6189 28.0349 11.5738 28.0656 11.5334 28.1018C11.7371 28.2632 11.9923 28.3451 12.2518 28.3323C12.442 28.3307 12.6319 28.3163 12.8201 28.2895C13.0723 28.2538 13.3268 28.2377 13.5815 28.2412C13.6988 28.2439 13.812 28.2849 13.9038 28.3582C13.9955 28.4314 14.0607 28.5327 14.0893 28.6465C14.1179 28.7604 14.1084 28.8804 14.0622 28.9883C14.0159 29.0962 13.9356 29.186 13.8334 29.2438C13.2706 29.5634 12.7724 29.9852 12.3644 30.4876V30.5198C12.4395 30.5906 12.5243 30.6502 12.6164 30.6967C12.7216 30.7535 12.8049 30.8438 12.8528 30.9533C12.9008 31.0629 12.9108 31.1853 12.8812 31.3011C12.8517 31.417 12.7842 31.5196 12.6896 31.5927C12.595 31.6659 12.4786 31.7052 12.3591 31.7046L12.3376 31.6832Z" fill="#020312"/>
<path id="Vector_28" d="M61.0724 24.9797C60.9438 23.827 60.7293 22.669 60.5685 21.5217C60.5472 21.3659 60.5149 21.2118 60.472 21.0606C60.4186 20.8873 60.3191 20.7319 60.184 20.6109C60.0489 20.49 59.8834 20.4082 59.7053 20.3743C58.826 20.2564 58.4293 21.2375 58.5044 21.9291C58.6116 22.9585 58.633 23.9879 58.6545 25.0334C58.6738 25.2464 58.652 25.4612 58.5901 25.666C58.4713 25.9066 58.3157 26.1273 58.1291 26.3201C57.738 26.9144 57.5157 27.6037 57.4857 28.3145C57.3512 29.1584 57.4099 30.0218 57.6573 30.8397C58.2524 32.5071 59.6946 32.609 61.2333 32.4856C62.5951 32.3731 64.1445 31.6117 64.7289 30.3089C65.3883 28.8292 64.7718 27.3924 63.6137 26.3844C63.8014 25.129 63.9088 23.863 63.9354 22.5939C63.9634 22.2856 63.9453 21.9748 63.8818 21.6718C63.5387 20.3743 62.386 21.1356 62.1286 22.031C61.8977 22.8162 61.7062 23.6125 61.555 24.4168C61.5177 24.8399 61.3718 25.2462 61.1314 25.5963C61.1261 25.3926 61.0939 25.1835 61.0724 24.9797Z" fill="#FFC9B0"/>
<path id="Vector_29" d="M60.3968 33.0647C59.2602 33.0647 57.7805 32.7751 57.18 31.022C56.9056 30.1268 56.836 29.1813 56.9763 28.2555C57.0169 27.4465 57.2783 26.664 57.7322 25.993L57.8877 25.8C57.9791 25.7052 58.055 25.5966 58.1129 25.4783C58.1496 25.3367 58.1605 25.1896 58.1451 25.0441C58.1451 24.0415 58.1022 22.996 57.9949 21.9827C57.9573 21.6684 57.9896 21.3496 58.0897 21.0493C58.1899 20.749 58.3552 20.4745 58.574 20.2457C58.7337 20.0885 58.9277 19.9704 59.1407 19.9006C59.3537 19.8309 59.5799 19.8113 59.8017 19.8436C60.0823 19.8916 60.3438 20.0177 60.5561 20.2073C60.7685 20.3969 60.9233 20.6424 61.0027 20.9158C61.0613 21.0897 61.1008 21.2695 61.1206 21.452C61.185 21.8701 61.2493 22.2937 61.319 22.7172L61.3512 22.9478C61.4405 22.5904 61.537 22.2329 61.6407 21.8755C61.7342 21.5031 61.9377 21.1674 62.2245 20.9122C62.5113 20.6569 62.8683 20.4938 63.2491 20.444C63.5118 20.444 64.1498 20.562 64.4071 21.5163C64.4842 21.8682 64.5077 22.2297 64.4768 22.5886C64.4477 23.7831 64.3529 24.9751 64.1927 26.1592C65.5008 27.4138 65.8869 29.0222 65.2221 30.5019C64.5572 31.9817 62.7397 32.8717 61.2815 32.9896C61.0348 33.0379 60.7292 33.0647 60.3968 33.0647ZM59.5605 20.8997C59.5105 20.8997 59.4611 20.9097 59.4151 20.929C59.3691 20.9484 59.3273 20.9767 59.2924 21.0123C59.195 21.1312 59.122 21.2683 59.0779 21.4155C59.0337 21.5627 59.0192 21.7173 59.0351 21.8702C59.1476 22.9424 59.1691 24.0147 59.1905 25.0226C59.2113 25.3032 59.1786 25.5853 59.094 25.8536C58.9947 26.0888 58.855 26.3047 58.6812 26.4916L58.5579 26.6418C58.2312 27.1623 58.0463 27.7593 58.0218 28.3735C57.9013 29.1362 57.9507 29.916 58.1665 30.6574C58.6169 31.9066 59.6194 32.0782 61.1957 31.9495C62.3055 31.8584 63.7316 31.2364 64.2409 30.0945C64.9594 28.4861 63.8013 27.253 63.2652 26.7919C63.1951 26.7312 63.1419 26.6533 63.1109 26.5659C63.0799 26.4785 63.0721 26.3846 63.0882 26.2933C63.2712 25.0608 63.3769 23.8181 63.4046 22.5725C63.4284 22.3182 63.4157 22.0619 63.367 21.8112C63.3489 21.7028 63.3027 21.6012 63.233 21.5163C63.1258 21.5163 62.7666 21.7844 62.6486 22.1865C62.4234 22.9478 62.2358 23.7305 62.0857 24.5187V24.5723C62.0317 25.0692 61.8467 25.5429 61.5495 25.9448C61.4808 26.0259 61.3895 26.0847 61.2873 26.1138C61.185 26.1429 61.0764 26.141 60.9753 26.1082C60.8742 26.0755 60.7851 26.0134 60.7193 25.9299C60.6535 25.8464 60.6141 25.7452 60.6059 25.6392C60.6059 25.4408 60.5684 25.2371 60.547 25.0387C60.4719 24.3256 60.3539 23.5965 60.2414 22.8942C60.1717 22.4653 60.1073 22.0417 60.043 21.6128C60.0332 21.4891 60.0098 21.3668 59.9733 21.2482C59.9505 21.1707 59.9086 21.1001 59.8515 21.043C59.7944 20.9858 59.7238 20.944 59.6462 20.9212L59.5605 20.8997Z" fill="#020312"/>
<path id="Vector_30" d="M58.9814 26.5007C59.3817 26.45 59.7881 26.5112 60.1556 26.6776C60.792 26.9149 61.4057 27.2092 61.9892 27.5568C62.1661 27.6641 62.3645 27.8035 62.3913 28.0126C62.4047 28.1384 62.3702 28.2648 62.2948 28.3664C62.1559 28.5384 61.9777 28.6745 61.7752 28.7631C61.5728 28.8518 61.3519 28.8904 61.1313 28.8757C60.6864 28.8757 60.2521 28.7685 59.8071 28.7846C60.424 29.138 60.9695 29.6035 61.4155 30.1571C61.4857 30.2385 61.5386 30.3334 61.571 30.4359C61.646 30.7576 61.3136 31.0149 61.0348 31.1758" fill="#FFC9B0"/>
<path id="Vector_31" d="M61.0189 31.685C60.8989 31.6868 60.7817 31.6483 60.6861 31.5756C60.5906 31.503 60.5222 31.4003 60.4919 31.2842C60.4616 31.168 60.4712 31.045 60.5191 30.9349C60.567 30.8249 60.6505 30.7341 60.7562 30.6771C60.8505 30.6317 60.9373 30.572 61.0135 30.5002V30.468C60.6055 29.9656 60.1073 29.5437 59.5445 29.2241C59.4424 29.1663 59.362 29.0766 59.3158 28.9687C59.2696 28.8608 59.26 28.7407 59.2887 28.6269C59.3173 28.5131 59.3824 28.4118 59.4742 28.3385C59.5659 28.2653 59.6792 28.2242 59.7965 28.2216C60.051 28.2211 60.3054 28.2372 60.5578 28.2698C60.7462 28.2961 60.936 28.3104 61.1261 28.3127C61.2537 28.3202 61.3815 28.3022 61.502 28.2598C61.6226 28.2175 61.7335 28.1517 61.8285 28.0661L61.7105 27.991C61.1569 27.6588 60.5735 27.3788 59.9681 27.1547C59.6937 27.0266 59.3904 26.973 59.0888 26.9992C58.9466 27.0276 58.7989 26.9984 58.6783 26.918C58.5576 26.8375 58.4739 26.7125 58.4454 26.5703C58.417 26.4281 58.4462 26.2804 58.5266 26.1598C58.6071 26.0391 58.7322 25.9554 58.8743 25.9269C59.3712 25.8523 59.879 25.9211 60.338 26.1253C61.0067 26.3725 61.651 26.6812 62.2627 27.0474C62.4296 27.1295 62.5757 27.2483 62.6899 27.3951C62.8042 27.5418 62.8836 27.7126 62.9222 27.8945C62.9425 28.0258 62.9363 28.1599 62.9041 28.2888C62.8719 28.4177 62.8142 28.5388 62.7345 28.6451C62.5864 28.8522 62.3952 29.0246 62.1739 29.1505C61.9527 29.2763 61.7068 29.3527 61.4532 29.3743C61.5915 29.5101 61.7205 29.6552 61.8392 29.8085C61.964 29.9461 62.0541 30.1116 62.1019 30.2911C62.1716 30.5859 62.1609 31.1435 61.2977 31.626C61.2118 31.6705 61.1154 31.6909 61.0189 31.685Z" fill="#020312"/>
<path id="Vector_32" d="M34.8555 52.1788H38.4369V54.2429C38.4369 54.6467 38.2764 55.034 37.9909 55.3196C37.7053 55.6051 37.3181 55.7655 36.9142 55.7655H36.3781C35.9743 55.7655 35.587 55.6051 35.3014 55.3196C35.0159 55.034 34.8555 54.6467 34.8555 54.2429V52.1788Z" fill="#FFC9B0"/>
<path id="Vector_33" d="M36.9355 56.3022H36.3993C35.8533 56.3022 35.3297 56.0853 34.9436 55.6992C34.5575 55.3131 34.3406 54.7894 34.3406 54.2434V52.1793C34.3406 52.0371 34.3971 51.9007 34.4976 51.8002C34.5982 51.6996 34.7345 51.6431 34.8767 51.6431H38.4635C38.6057 51.6431 38.742 51.6996 38.8426 51.8002C38.9431 51.9007 38.9996 52.0371 38.9996 52.1793V54.2434C38.9982 54.7899 38.7801 55.3135 38.3931 55.6995C38.0062 56.0854 37.482 56.3022 36.9355 56.3022ZM35.3914 52.7154V54.2434C35.3914 54.505 35.4953 54.7559 35.6803 54.941C35.8653 55.126 36.1163 55.2299 36.3779 55.2299H36.914C37.1757 55.2299 37.4266 55.126 37.6116 54.941C37.7966 54.7559 37.9005 54.505 37.9005 54.2434V52.7154H35.3914Z" fill="#020312"/>
<path id="Vector_34" d="M25.7412 42.9573C24.4545 41.3489 24.2293 38.9792 23.929 37.0598C23.6996 35.2486 23.7357 33.4135 24.0363 31.6127C24.5349 28.2565 26.2344 24.7073 30.1268 24.7609C30.2151 24.7797 30.3065 24.7797 30.3948 24.7609C30.5273 24.6974 30.6416 24.6015 30.7272 24.4821C32.6198 22.2303 35.0163 22.5681 37.6327 22.922C40.4178 23.2456 43.07 24.2917 45.3262 25.9565C47.586 27.6402 49.0921 30.146 49.5188 32.9316C49.6547 34.3903 49.5478 35.8613 49.2025 37.285C48.6073 40.0086 47.9747 43.145 45.2887 44.6086C44.1417 45.1691 42.9129 45.5437 41.6483 45.7184C39.0802 46.201 36.4585 46.5709 33.8636 46.2546C32.1114 46.0247 30.396 45.5707 28.7596 44.9035C27.8406 44.59 26.9879 44.1082 26.2451 43.4827C26.0618 43.323 25.8931 43.1472 25.7412 42.9573Z" fill="#725858"/>
<path id="Vector_35" d="M35.7936 46.8716C35.1291 46.8731 34.465 46.8373 33.8046 46.7643C32.0057 46.5334 30.2448 46.0684 28.5665 45.3811C27.5868 45.043 26.678 44.5268 25.8858 43.8585C25.695 43.6752 25.5159 43.48 25.3497 43.2741C24.1112 41.7139 23.8003 39.5908 23.5215 37.7144L23.4303 37.0978C23.1882 35.2353 23.2243 33.3471 23.5376 31.4952C24.2345 26.7986 26.6525 24.1341 30.1642 24.1823C30.1981 24.185 30.2322 24.185 30.2661 24.1823C30.2661 24.1823 30.2982 24.1233 30.3358 24.0804C32.4267 21.5981 35.1127 21.9359 37.7076 22.3219C40.5959 22.6534 43.3466 23.7367 45.6853 25.4637C48.0606 27.2414 49.634 29.8887 50.0602 32.8248C50.2097 34.3425 50.0991 35.8746 49.7332 37.3552L49.6956 37.5267C49.0898 40.32 48.3982 43.4886 45.5567 45.0326C44.3589 45.6196 43.0761 46.0141 41.7555 46.2014C39.7928 46.6066 37.7972 46.8309 35.7936 46.8716ZM30.057 25.2546C25.9823 25.2546 24.8725 29.7206 24.5884 31.6507C24.2915 33.396 24.2553 35.1757 24.4812 36.9316L24.5723 37.5535C24.8297 39.296 25.1084 41.2743 26.1807 42.6039C26.3138 42.7682 26.4571 42.924 26.6096 43.0704C27.3061 43.6523 28.1015 44.1045 28.9579 44.4053C30.551 45.0557 32.2215 45.4973 33.9279 45.7189C36.4799 46.0138 39.0962 45.6277 41.5517 45.1827C42.7606 45.0101 43.9348 44.6482 45.0312 44.1105C47.4438 42.7969 48.0819 39.8857 48.6394 37.3123L48.677 37.1407C49.0149 35.7778 49.1182 34.3672 48.9826 32.9696C48.7906 31.6558 48.3413 30.3929 47.6605 29.253C46.9797 28.1132 46.0808 27.1188 45.0152 26.3268C42.8338 24.7198 40.2704 23.7107 37.579 23.3996C35.0323 23.0511 32.8556 22.7562 31.1453 24.7721C31.0115 24.9661 30.8257 25.1184 30.6092 25.2117C30.461 25.2619 30.3042 25.2819 30.1481 25.2707L30.057 25.2546Z" fill="#020312"/>
<path id="Vector_36" d="M27.3548 45.8752C29.2764 45.8752 30.8343 44.531 30.8343 42.8728C30.8343 41.2147 29.2764 39.8705 27.3548 39.8705C25.4331 39.8705 23.8752 41.2147 23.8752 42.8728C23.8752 44.531 25.4331 45.8752 27.3548 45.8752Z" fill="#FFC9B0"/>
<path id="Vector_37" d="M27.3494 46.4104C25.1351 46.4104 23.3284 44.8019 23.3284 42.8719C23.3284 40.9418 25.1351 39.3334 27.3494 39.3334C29.5636 39.3334 31.365 40.9418 31.365 42.8719C31.365 44.8019 29.569 46.4104 27.3494 46.4104ZM27.3494 40.4056C25.741 40.4056 24.4006 41.5154 24.4006 42.8719C24.4006 44.2283 25.7249 45.3381 27.3494 45.3381C28.9739 45.3381 30.2928 44.2336 30.2928 42.8719C30.2928 41.5101 28.9578 40.4056 27.3494 40.4056Z" fill="#020312"/>
<path id="Vector_38" d="M45.9749 45.8752C47.8966 45.8752 49.4544 44.531 49.4544 42.8728C49.4544 41.2147 47.8966 39.8705 45.9749 39.8705C44.0532 39.8705 42.4954 41.2147 42.4954 42.8728C42.4954 44.531 44.0532 45.8752 45.9749 45.8752Z" fill="#FFC9B0"/>
<path id="Vector_39" d="M45.9749 46.4104C43.7553 46.4104 41.9539 44.8019 41.9539 42.8719C41.9539 40.9418 43.7553 39.3334 45.9749 39.3334C48.1945 39.3334 49.9905 40.9418 49.9905 42.8719C49.9905 44.8019 48.1891 46.4104 45.9749 46.4104ZM45.9749 40.4056C44.3665 40.4056 43.0261 41.5154 43.0261 42.8719C43.0261 44.2283 44.3504 45.3381 45.9749 45.3381C47.5994 45.3381 48.9182 44.2336 48.9182 42.8719C48.9182 41.5101 47.5994 40.4056 45.9749 40.4056Z" fill="#020312"/>
<path id="Vector_40" d="M29.1617 38.171C28.8773 38.1853 28.5989 38.0859 28.3877 37.8949C28.1766 37.7038 28.05 37.4368 28.0358 37.1524C28.0215 36.868 28.1209 36.5896 28.3119 36.3785C28.503 36.1673 28.77 36.0407 29.0544 36.0265L33.6652 35.544C33.9496 35.5141 34.2342 35.5984 34.4564 35.7784C34.6786 35.9584 34.8202 36.2193 34.85 36.5037C34.8799 36.788 34.7956 37.0726 34.6156 37.2948C34.4356 37.517 34.1747 37.6587 33.8904 37.6885L29.2742 38.171H29.1617Z" fill="#020312"/>
<path id="Vector_41" d="M36.6622 52.1794C34.116 52.1794 31.6739 51.1687 29.8725 49.3692C28.071 47.5698 27.0575 45.1288 27.0547 42.5826C27.0547 40.4917 27.1405 38.3793 27.0547 36.2884C26.9421 33.5755 28.9043 30.8573 30.9256 29.1578C31.2279 30.0946 31.8891 30.8735 32.7645 31.3238C33.6384 31.7631 34.5669 32.0841 35.5256 32.2781C35.2382 31.8409 35.0453 31.3484 34.9595 30.8323C34.8736 30.3162 34.8966 29.7878 35.027 29.2811L39.241 30.289C40.7054 30.5609 42.1182 31.0601 43.4282 31.7688C47.1812 34.0688 46.2751 38.8243 46.2751 42.5719C46.2751 43.834 46.0264 45.0838 45.5433 46.2498C45.0601 47.4158 44.352 48.4751 43.4592 49.3673C42.5665 50.2596 41.5068 50.9671 40.3405 51.4496C39.1743 51.9321 37.9243 52.1801 36.6622 52.1794Z" fill="#FFC9B0"/>
<g id="Group">
<path id="Vector_42" d="M36.6622 52.7159C33.9746 52.7131 31.3978 51.6449 29.4964 49.7456C27.5951 47.8462 26.5242 45.2705 26.5185 42.5829C26.5185 41.8806 26.5185 41.1729 26.5185 40.4706C26.5185 39.1034 26.556 37.688 26.5185 36.3102C26.3952 33.3614 28.5397 30.4716 30.5824 28.7453C30.6528 28.6847 30.7378 28.6435 30.829 28.6256C30.9201 28.6077 31.0144 28.6139 31.1025 28.6434C31.1892 28.6704 31.2677 28.719 31.3306 28.7846C31.3934 28.8503 31.4385 28.9308 31.4617 29.0187C31.5939 29.4175 31.8042 29.786 32.0803 30.1027C32.3565 30.4194 32.6929 30.6778 33.0701 30.863C33.5559 31.1265 34.0704 31.3334 34.6034 31.4796C34.3742 30.7233 34.3556 29.9188 34.5498 29.1527C34.5864 29.018 34.6741 28.9029 34.7942 28.8318C34.9144 28.7607 35.0575 28.7393 35.1932 28.7721L39.4126 29.78C40.9303 30.0616 42.3941 30.5809 43.7499 31.3187C47.1812 33.415 47.0311 37.302 46.9024 40.7279C46.9024 41.3605 46.8541 41.9878 46.8541 42.5829C46.84 45.2762 45.7597 47.8543 43.8498 49.7532C41.9398 51.6521 39.3555 52.7174 36.6622 52.7159ZM30.7165 30.0534C29.0544 31.6297 27.4996 33.9512 27.5908 36.2565C27.6498 37.6612 27.6283 39.0927 27.5908 40.4759V42.5722C27.6484 44.9406 28.6296 47.1927 30.3251 48.8474C32.0205 50.5021 34.2958 51.4284 36.6649 51.4284C39.034 51.4284 41.3092 50.5021 43.0047 48.8474C44.7001 47.1927 45.6814 44.9406 45.739 42.5722C45.739 41.9557 45.739 41.3337 45.7872 40.6743C45.9105 37.3878 46.0392 33.994 43.1494 32.2248C41.895 31.5457 40.5446 31.0612 39.1445 30.788L35.4827 29.9141C35.4264 30.6359 35.6153 31.3556 36.0188 31.9567C36.0795 32.0466 36.1115 32.1527 36.1106 32.2611C36.1097 32.3695 36.076 32.4751 36.0138 32.564C35.9517 32.6528 35.8641 32.7207 35.7626 32.7588C35.661 32.7968 35.5504 32.8032 35.4452 32.777C34.4394 32.572 33.4657 32.233 32.55 31.7691C31.7894 31.3814 31.1538 30.7867 30.7165 30.0534Z" fill="#020312"/>
<path id="Vector_43" d="M37.3807 43.5363C37.0727 43.5362 36.7662 43.4947 36.4692 43.413C36.3339 43.3731 36.2198 43.2815 36.1516 43.1581C36.0833 43.0346 36.0665 42.8893 36.1047 42.7535C36.1434 42.6172 36.2345 42.5018 36.3581 42.4325C36.4816 42.3632 36.6276 42.3456 36.7641 42.3836C36.7641 42.3836 38.0455 42.7321 38.2867 41.9922C38.4744 41.4561 37.3807 39.9174 36.2494 38.829C36.1463 38.7309 36.0864 38.5958 36.0829 38.4536C36.0794 38.3113 36.1326 38.1735 36.2307 38.0704C36.3288 37.9673 36.4638 37.9074 36.6061 37.9039C36.7484 37.9003 36.8862 37.9535 36.9893 38.0516C37.4611 38.5073 39.804 40.8449 39.3054 42.3407C39.1618 42.7246 38.895 43.0502 38.5468 43.2665C38.1986 43.4828 37.7885 43.5777 37.3807 43.5363Z" fill="#020312"/>
<path id="Vector_44" d="M32.1211 38.1606C32.5475 38.1606 32.8932 37.8149 32.8932 37.3886C32.8932 36.9622 32.5475 36.6165 32.1211 36.6165C31.6948 36.6165 31.3491 36.9622 31.3491 37.3886C31.3491 37.8149 31.6948 38.1606 32.1211 38.1606Z" fill="#020312"/>
<path id="Vector_45" d="M41.8306 38.1606C42.257 38.1606 42.6027 37.8149 42.6027 37.3886C42.6027 36.9622 42.257 36.6165 41.8306 36.6165C41.4042 36.6165 41.0586 36.9622 41.0586 37.3886C41.0586 37.8149 41.4042 38.1606 41.8306 38.1606Z" fill="#020312"/>
<path id="Vector_46" d="M39.1927 44.7288H35.22C35.22 44.7288 35.7239 50.771 37.2037 50.267C38.6834 49.7631 39.1927 44.7288 39.1927 44.7288Z" fill="#020312"/>
<path id="Vector_47" d="M37.032 50.8121C36.8286 50.8047 36.6315 50.7397 36.4637 50.6244C35.2199 49.8095 34.8071 45.9225 34.7052 44.7269C34.6958 44.578 34.746 44.4315 34.8446 44.3195C34.8952 44.2649 34.9566 44.2215 35.0249 44.1919C35.0932 44.1624 35.1669 44.1474 35.2414 44.1479H39.2141C39.2889 44.1481 39.3629 44.1639 39.4312 44.1944C39.4995 44.2249 39.5607 44.2693 39.6109 44.3248C39.6607 44.3805 39.6984 44.446 39.7215 44.5171C39.7446 44.5882 39.7526 44.6633 39.7449 44.7377C39.6216 45.9976 39.0747 50.158 37.402 50.7263C37.2844 50.7755 37.1593 50.8045 37.032 50.8121ZM35.8097 45.2631C36.0563 47.5363 36.6139 49.6058 37.0428 49.7559C37.6647 49.5414 38.3081 47.3647 38.5868 45.2631H35.8097Z" fill="#020312"/>
</g>
</g>
</svg>
